<svg width="798" height="423" viewBox="0 0 798 423" fill="none" xmlns="http://www.w3.org/2000/svg">
<path d="M640.188 142.125C646.125 210.562 538.312 275.875 399.25 287.75C260.187 299.625 143 253.687 137.062 185.25C131.125 116.812 238.937 51.5 378 39.625C516.75 27.75 634.25 73.375 640.188 142.125Z" fill="#BBE6FB"/>
<path d="M381.75 47.4375C328.625 46.5 266.75 67.75 220.5 87.4375C215.812 101.187 213 115.875 213 131.187C213 212.437 286.438 278.375 377.063 278.375C467.688 278.375 541.437 212.75 541.437 131.187C541.437 105.562 533.937 81.1875 521.125 60.25C484.25 54.625 433.313 48.375 381.75 47.4375Z" fill="white"/>
<path d="M377.375 47.4375C348 45.5625 297.375 60.875 255.188 76.1875C248.625 91.1875 245.188 107.75 245.188 125.25C245.188 196.5 309.875 254.313 378 254.313C445.813 254.313 505.813 196.5 510.813 125.25C512.375 102.125 504.563 80.25 493.313 61.5C449.875 54 403.625 49.3125 377.375 47.4375Z" fill="white"/>
<path d="M302.063 116.187C305.813 108.062 311.125 104.312 316.438 97.75C315.812 96.1875 314.563 90.875 314.563 89.3125C314.563 81.1875 321.125 74.9375 328.938 74.9375C330.813 74.9375 332.687 75.25 334.25 75.875C358.312 57.4375 389.875 49.625 421.75 56.8125C424.563 57.4375 427.375 58.375 430.188 59C398.938 54.625 363.312 65.875 339.25 85.25C339.875 87.125 342.062 91.8125 342.062 94C342.062 102.125 336.75 104 328.938 104C327.062 104 325.5 103.687 323.625 103.062C318.312 110.25 311.438 124.312 308.313 133.062C321.75 144.937 333.625 149.312 349.25 155.25C349.25 154.625 349.875 153.687 349.875 153.062C349.875 129 371.125 109.312 395.187 109.312C416.75 109.312 434.875 124.937 438.312 145.562C449.25 138.687 459.562 133.375 467.375 123.375C465.5 121.187 463.625 114.625 463.625 111.5C463.625 104.312 469.562 98.375 476.75 98.375C477.687 98.375 478.625 98.375 479.875 98.6875C483.937 90.25 487.063 81.5 488.938 72.4375C451.125 44.3125 378 48.375 378 48.375C378 48.375 319.875 45.25 280.5 64.625C283.312 82.75 290.813 100.875 302.063 116.187Z" fill="#373535"/>
<path d="M482.688 105.25C485.5 107.75 486.75 109.625 488 111.812C491.438 118.062 484.563 124 477.062 124C476.437 124 475.5 124 474.875 123.687C466.75 136.5 452.375 152.75 439.562 161.187C459.25 164.312 477.688 172.125 492.063 184.312C502.688 165.25 510.813 137.438 510.813 114C510.813 96.1875 503 83.0625 491.125 73.375C490.812 83.0625 485.5 96.5 482.688 105.25Z" fill="#373535"/>
<path d="M323.938 226.5C330.5 208.375 346.438 194.625 361.75 182.438C359.563 179.313 356.125 171.813 354.875 168.375C336.437 162.75 320.188 152.125 307.375 138.375C307.375 138.688 307.063 139.313 307.063 139.625C304.563 150.25 304.25 161.188 305.5 171.5C314.25 173.063 321.125 180.875 321.125 190.25C321.125 195.875 316.125 203.688 312.375 207.438C316.125 215.563 318.938 219.938 323.938 226.5Z" fill="#373535"/>
<path d="M322.688 241.5C314.875 233.688 309.563 218.375 304.562 208.688C303.625 208.688 302.687 209 301.75 209C291.125 209 280.188 200.25 282.688 189.937C283.938 184.312 288 180.562 294.25 177.437C292.688 165.562 292.375 149 295.188 136.812C295.813 133.375 297.687 131.812 298.625 128.375C287.062 111.5 279.562 89 279.562 66.8125V64.3125C259.875 74.3125 245.188 89.625 245.188 114C245.188 168.062 276.438 221.188 322.688 241.813V241.5Z" fill="#373535"/>
<path d="M436.75 166.812C430.812 183.688 414.562 196.187 395.5 196.187C385.187 196.187 375.812 192.75 368.625 186.812C353.312 198.687 339.25 219.625 332.375 238.062C335.5 241.5 337.688 244.312 341.438 247.437C352.063 250.25 367.063 247.437 378.625 247.437C425.188 247.437 466.75 226.812 490.5 190.25C474.25 179 455.5 168.375 436.75 166.812Z" fill="#373535"/>
<path d="M300.813 122.438C304.563 114.313 308.937 107.125 314.25 100.25C313.625 98.6875 313.313 96.8125 313.313 95.25C313.313 87.125 319.875 80.875 327.688 80.875C329.563 80.875 331.438 81.1875 333 81.8125C357.062 63.375 388.625 55.5625 420.5 62.75C423.312 63.375 426.125 64.3125 428.937 64.9375C397.687 60.5625 365.188 70.25 341.125 89.625C341.75 91.5 342.375 93.375 342.375 95.25C342.375 103.375 335.813 109.625 328 109.625C326.125 109.625 324.563 109.313 322.688 108.688C317.375 115.875 312.688 124 309.562 132.75C321.125 144.938 335.188 154.938 350.813 160.563V158.375C350.813 134.313 370.5 114.625 394.563 114.625C416.125 114.625 434.25 130.25 437.688 150.875C448.625 144 458 135.25 466.125 124.938C464.25 122.75 463 119.938 463 116.813C463 109.625 468.938 103.688 476.125 103.688C477.063 103.688 478 103.688 479.25 104C483.313 95.5625 486.437 86.8125 488.312 77.75C450.5 49.625 377.375 53.6875 377.375 53.6875C377.375 53.6875 319.25 50.5625 279.875 69.9375C282.062 89 289.563 107.125 300.813 122.438Z" fill="#1287B1"/>
<path d="M484.562 107.438C487.375 109.938 488.938 113.375 488.938 117.125C488.938 124.312 483 130.25 475.812 130.25C475.187 130.25 474.25 130.25 473.625 129.937C465.5 142.75 454.562 153.687 441.75 161.812C460.5 164.625 478.312 172.75 493 184.938C503.625 165.875 509.875 143.688 509.875 120.25C509.875 102.438 502.062 89.3125 490.188 79.625C489.562 89.3125 487.687 98.6875 484.562 107.438Z" fill="#1287B1"/>
<path d="M325.812 230.563C332.375 212.438 343.625 196.5 358.937 184.312C356.75 181.187 354.875 178.062 353.625 174.312C335.187 168.687 318.937 158.063 306.125 144.312C306.125 144.625 305.812 145.25 305.812 145.562C303.312 156.187 303 167.125 304.25 177.437C313 179 319.875 186.812 319.875 196.187C319.875 201.812 317.375 206.813 313.625 210.25C316.75 217.438 321.125 224.313 325.812 230.563Z" fill="#1287B1"/>
<path d="M322.687 241.187C314.875 233.375 308.312 224.625 303.312 214.938C302.375 214.938 301.438 215.25 300.5 215.25C289.875 215.25 281.437 206.812 281.437 196.187C281.437 188.687 285.812 182.125 292.062 179C290.5 167.125 291.125 155.25 293.937 143.062C294.562 139.625 295.812 136.187 296.75 132.75C285.187 115.875 278.312 95.25 278.312 73.0625V70.5625C258.625 80.5625 243.937 95.875 243.937 120.25C243.937 174.312 276.125 220.875 322.375 241.5C322.688 241.5 322.687 241.5 322.687 241.187Z" fill="#1287B1"/>
<path d="M435.5 173.062C429.562 189.938 413.312 202.438 394.25 202.438C383.938 202.438 374.562 199 367.375 193.062C352.062 204.937 340.5 221.187 333.312 239.625C336.438 243.062 339.875 246.188 343.312 249.313C353.937 252.125 365.187 253.687 376.75 253.687C423.312 253.687 464.562 229.625 488.312 193.062C472.687 181.812 454.25 174.625 435.5 173.062Z" fill="#1287B1"/>
<path d="M437.063 161.812L477.375 152.125L436.75 149.938L469.875 124.938L432.375 138.375L457.688 103.063L422.375 126.5L434.562 85.25L410.5 119.313L409.875 76.1875L393.938 114.625L380.813 75.875L381.438 121.5L358.625 80.5625L371.125 124L333.938 97.125L363 133.688L316.75 116.813L353 143.688L306.438 145.25L354.25 157.438L306.438 167.75L353.625 171.188L313.938 196.5L354.875 181.813L326.438 217.75L362.375 188.688L349.563 236.813L377.375 197.438L373.625 243.688L389.25 201.5L402.688 245.562L405.813 201.188L425.812 239L413.938 195.875L450.188 224L426.75 188.063L466.75 203.687L436.125 173.687L477.063 176.812L437.063 161.812Z" fill="white"/>
<path d="M6.75 239C132.062 113.688 232.062 74.9375 323 57.4375C334.875 55.25 337.375 28.6875 337.375 28.6875C337.375 28.6875 338.937 48.0625 347.375 50.5625C355.813 53.0625 366.75 20.25 366.75 20.25C366.75 20.25 356.75 49.625 366.75 51.5C376.75 53.0625 395.5 22.75 395.5 22.75C395.5 22.75 388 48.6875 393 50.5625C398 52.125 423.313 12.75 423.313 12.75C423.313 12.75 408.312 38.6875 422.375 41.5C436.75 44 457.688 23.6875 457.688 23.6875C457.688 23.6875 441.437 42.125 448.625 44.9375C479.875 55.875 504.875 15.5625 504.875 15.5625C504.875 15.5625 498.937 33.375 483.937 52.75C516.75 61.1875 541.125 11.8125 541.125 11.8125L516.75 61.1875C529.25 67.4375 579.563 9.3125 579.563 9.3125C579.563 9.3125 553.625 54.625 538.312 64C546.75 70.875 577.062 43.6875 577.062 43.6875C577.062 43.6875 552.687 74 562.062 75.5625C575.5 86.5 625.187 19.3125 625.187 19.3125C625.187 19.3125 605.812 59 577.375 89.9375C601.125 102.125 660.5 25.5625 660.5 25.5625C660.5 25.5625 658.937 49.9375 615.812 88.6875C647.687 84.625 688.938 24 688.938 24C688.938 24 673.937 69.3125 637.687 101.5C668.937 98.375 719.25 20.875 719.25 20.875C719.25 20.875 699.875 74.625 660.5 105.875C704.25 115.563 767.375 50.25 767.375 50.25C767.375 50.25 742.687 96.5 710.187 115.562C746.437 129.313 796.125 72.125 796.125 72.125C796.125 72.125 746.437 148.688 667.375 145.25C641.437 144 563 66.5 394.875 72.75C172.375 80.875 125.5 175.25 6.75 239Z" fill="#373535" fill-opacity="0.35"/>
<path d="M11.75 229.625C137.062 104.313 237.062 65.5625 328 48.0625C339.875 45.875 342.375 19.3125 342.375 19.3125C342.375 19.3125 343.937 38.6875 352.375 41.1875C360.813 43.6875 371.75 10.875 371.75 10.875C371.75 10.875 361.75 40.25 371.75 42.125C381.75 43.6875 400.5 13.375 400.5 13.375C400.5 13.375 393 39.3125 398 41.1875C403 42.75 428.313 3.375 428.313 3.375C428.313 3.375 413.312 29.3125 427.375 32.125C441.75 34.625 462.688 14.3125 462.688 14.3125C462.688 14.3125 446.438 32.75 453.625 35.5625C484.875 46.5 509.875 6.1875 509.875 6.1875C509.875 6.1875 503.938 24 488.938 43.375C521.75 51.8125 546.125 2.4375 546.125 2.4375L521.75 51.8125C534.25 58.6875 584.875 0.5625 584.875 0.5625C584.875 0.5625 558.938 45.875 543.625 55.25C552.063 61.1875 582.375 34.3125 582.375 34.3125C582.375 34.3125 558 64.625 567.375 66.1875C580.813 77.125 630.5 9.9375 630.5 9.9375C630.5 9.9375 610.813 49.625 582.375 80.5625C606.125 92.4375 665.813 15.875 665.813 15.875C665.813 15.875 664.25 40.25 621.125 79C653 74.9375 694.25 14.3125 694.25 14.3125C694.25 14.3125 679.25 59.625 643 91.8125C674.25 88.6875 724.563 11.1875 724.563 11.1875C724.563 11.1875 705.188 64.9375 665.813 96.1875C709.563 105.875 772.688 40.5625 772.688 40.5625C772.688 40.5625 748 86.8125 715.5 105.875C751.75 119.625 801.438 62.4375 801.438 62.4375C801.438 62.4375 751.75 139 672.688 135.563C646.75 134.313 568.312 56.8125 400.187 63.0625C177.687 71.5 130.5 165.563 11.75 229.625Z" fill="#373535"/>
<path d="M3.625 252.75C69.875 285.875 130.5 247.75 206.75 269.312C264.875 285.562 335.5 305.875 431.437 291.813C527.375 278.063 609.25 236.188 648.625 161.813C660.812 128.688 710.5 169.313 710.5 169.313C710.5 169.313 674.25 154.313 675.187 161.188C676.125 168.375 729.563 193.063 729.563 193.063C729.563 193.063 681.125 178.063 684.25 189.313C687.063 200.563 744.875 246.188 744.875 246.188C744.875 246.188 678.937 196.812 673.625 203.687C668 210.562 701.438 237.75 701.438 237.75C701.438 237.75 646.437 203.688 627.062 213.688C613 220.875 684.25 267.438 684.25 267.438C684.25 267.438 638 232.125 627.062 241.5C616.125 250.875 679.25 326.5 679.25 326.5C679.25 326.5 607.375 249 600.187 252.75C593 256.5 619.875 293.688 619.875 293.688C619.875 293.688 584.875 254.937 575.187 261.5C565.5 268.375 625.812 368.688 625.812 368.688C625.812 368.688 560.5 265.875 533.312 283.063C575.5 375.875 559.875 389 559.875 389C559.875 389 554.562 294.313 501.75 296.813C475.187 298.063 514.25 367.438 514.25 367.438C514.25 367.438 478.312 304 454.25 305.25C498.312 389 482.688 422.75 482.688 422.75C482.688 422.75 489.875 351.187 430.188 311.5C453 331.812 415.812 422.75 415.812 422.75C415.812 422.75 448.312 288.688 391.75 314.313C382.687 318.375 391.125 381.188 391.125 381.188C391.125 381.188 379.875 309.312 362.687 313.062C352.687 315.25 299.562 412.75 299.562 412.75C299.562 412.75 343 307.438 329.875 311.813C320.187 314.938 302.062 358.375 302.062 358.375C302.062 358.375 310.812 315.562 302.062 313.062C293.313 310.562 243.937 358.375 243.937 358.375C243.937 358.375 280.5 315.563 274.25 306.5C264.562 293.062 253.625 292.438 240.187 297.75C220.812 305.25 194.875 340.563 194.875 340.563C194.875 340.563 220.812 304.625 216.437 291.5C209.25 269.938 134.563 333.063 134.563 333.063C134.563 333.063 178.625 291.5 168.625 282.438C158.625 273.688 103.625 276.188 86.75 276.188C36.4375 276.813 18.9375 264.938 3.625 252.75Z" fill="#373535" fill-opacity="0.35"/>
<path d="M0.8125 245.25C67.0625 278.375 127.688 240.25 203.938 261.813C262.063 278.063 332.688 298.375 428.625 284.312C524.563 270.562 606.438 228.688 645.813 154.313C658 121.188 707.688 161.813 707.688 161.813C707.688 161.813 671.438 146.813 672.375 153.688C673.313 160.875 726.75 185.563 726.75 185.563C726.75 185.563 678.313 170.563 681.438 181.813C684.25 193.063 742.063 238.688 742.063 238.688C742.063 238.688 676.75 189 671.438 195.875C666.125 202.75 699.25 229.937 699.25 229.937C699.25 229.937 644.25 195.875 624.875 205.875C610.813 213.063 682.062 259.625 682.062 259.625C682.062 259.625 635.813 224.313 624.875 233.688C613.938 243.063 677.063 318.687 677.063 318.687C677.063 318.687 605.5 241.188 598.313 244.938C591.125 248.688 618 285.875 618 285.875C618 285.875 582.375 247.438 572.688 254C563 260.875 623 361.187 623 361.187C623 361.187 557.688 258.062 530.813 275.25C573.313 368.375 557.375 381.5 557.375 381.5C557.375 381.5 552.062 286.812 499.25 289.312C472.688 290.562 511.75 359.937 511.75 359.937C511.75 359.937 476.125 296.813 452.063 298.063C496.125 381.813 480.5 415.562 480.5 415.562C480.5 415.562 487.688 344 428 304.313C450.813 324.625 413.625 415.562 413.625 415.562C413.625 415.562 446.125 281.5 389.563 307.125C380.5 311.188 388.937 374 388.937 374C388.937 374 377.687 302.125 360.5 305.875C350.5 308.063 297.375 405.563 297.375 405.563C297.375 405.563 340.812 300.25 327.687 304.625C318 307.75 299.875 351.188 299.875 351.188C299.875 351.188 308.625 308.375 299.875 305.875C291.125 303.375 241.75 351.188 241.75 351.188C241.75 351.188 278.312 308.375 272.062 299.313C262.375 285.875 251.438 285.25 238 290.562C218.625 298.062 192.687 333.375 192.687 333.375C192.687 333.375 218.625 297.437 214.25 284.312C207.062 262.75 132.375 325.875 132.375 325.875C132.375 325.875 176.438 284.312 166.438 275.25C156.437 266.5 101.438 269 84.5625 269C33.625 269.312 16.125 257.437 0.8125 245.25Z" fill="#373535"/>
</svg>
