<svg width="48" height="48" viewBox="0 0 48 48" fill="none" xmlns="http://www.w3.org/2000/svg">
<path d="M32.88 22.75C32.39 22.75 31.93 22.85 31.51 23.03C31.44 19.43 28.5 16.54 24.89 16.54C22.23 16.54 19.93 18.11 18.88 20.38C18.19 20.03 17.42 19.82 16.59 19.82C13.84 19.82 11.61 22.05 11.61 24.8C11.61 27.55 13.84 29.78 16.59 29.78H32.88C34.82 29.78 36.4 28.2 36.4 26.26C36.4 24.32 34.82 22.74 32.88 22.74V22.75Z" stroke="#6C9FFF" stroke-width="2" stroke-linejoin="round"/>
<path d="M3.71997 15.37L9.94997 17.99C10.42 18.19 10.42 18.86 9.94997 19.05L5.52997 20.85C5.23997 20.97 4.89997 20.83 4.77997 20.53L2.97997 16.11C2.78997 15.64 3.25997 15.16 3.73997 15.36L3.71997 15.37Z" fill="#6C9FFF"/>
<path d="M6.79001 16.73C9.63001 10.03 16.26 5.32001 24 5.32001C34.32 5.32001 42.68 13.68 42.68 24C42.68 34.32 34.32 42.68 24 42.68C13.68 42.68 5.32001 34.32 5.32001 24" stroke="#6C9FFF" stroke-width="2" stroke-miterlimit="10"/>
</svg>
