<svg width="48" height="48" viewBox="0 0 48 48" fill="none" xmlns="http://www.w3.org/2000/svg">
<path d="M27.92 10.24C27.39 10.24 26.88 10.35 26.42 10.54C26.34 6.59 23.12 3.41 19.15 3.41C16.23 3.41 13.71 5.14 12.55 7.63C11.8 7.24 10.94 7.02 10.04 7.02C7.02001 7.02 4.57001 9.47 4.57001 12.49C4.57001 15.51 7.02001 17.96 10.04 17.96H27.92C30.05 17.96 31.78 16.23 31.78 14.1C31.78 11.97 30.05 10.24 27.92 10.24V10.24Z" stroke="#6C9FFF" stroke-width="2" stroke-linejoin="round"/>
<path d="M40.13 27.75C39.67 27.75 39.24 27.84 38.84 28.01C38.77 24.63 36.01 21.91 32.62 21.91C30.12 21.91 27.96 23.39 26.97 25.52C26.33 25.19 25.6 25 24.82 25C22.23 25 20.14 27.1 20.14 29.68C20.14 32.26 22.24 34.36 24.82 34.36H40.13C41.96 34.36 43.44 32.88 43.44 31.05C43.44 29.22 41.96 27.74 40.13 27.74V27.75Z" stroke="#6C9FFF" stroke-width="2" stroke-linejoin="round"/>
<path d="M20.44 39.33C20.08 39.33 19.73 39.4 19.42 39.54C19.37 36.85 17.17 34.69 14.48 34.69C12.49 34.69 10.78 35.86 9.99 37.56C9.48 37.3 8.9 37.14 8.28 37.14C6.23 37.14 4.56 38.81 4.56 40.86C4.56 42.91 6.23 44.58 8.28 44.58H20.44C21.89 44.58 23.07 43.4 23.07 41.95C23.07 40.5 21.89 39.32 20.44 39.32V39.33Z" stroke="#6C9FFF" stroke-width="2" stroke-linejoin="round"/>
</svg>
