<svg width="101" height="26" viewBox="0 0 101 26" fill="none" xmlns="http://www.w3.org/2000/svg">
<rect width="100.833" height="26" rx="6" fill="#1464DB"/>
<path d="M19.7266 12.541V15.9219C19.5938 16.082 19.3887 16.2559 19.1113 16.4434C18.834 16.627 18.4766 16.7852 18.0391 16.918C17.6016 17.0508 17.0723 17.1172 16.4512 17.1172C15.9004 17.1172 15.3984 17.0273 14.9453 16.8477C14.4922 16.6641 14.1016 16.3965 13.7734 16.0449C13.4492 15.6934 13.1992 15.2637 13.0234 14.7559C12.8477 14.2441 12.7598 13.6602 12.7598 13.0039V12.4707C12.7598 11.8145 12.8438 11.2305 13.0117 10.7188C13.1836 10.207 13.4277 9.77539 13.7441 9.42383C14.0605 9.07227 14.4375 8.80469 14.875 8.62109C15.3125 8.4375 15.7988 8.3457 16.334 8.3457C17.0762 8.3457 17.6855 8.4668 18.1621 8.70898C18.6387 8.94727 19.002 9.2793 19.252 9.70508C19.5059 10.127 19.6621 10.6113 19.7207 11.1582H18.0156C17.9727 10.8691 17.8906 10.6172 17.7695 10.4023C17.6484 10.1875 17.4746 10.0195 17.248 9.89844C17.0254 9.77734 16.7363 9.7168 16.3809 9.7168C16.0879 9.7168 15.8262 9.77734 15.5957 9.89844C15.3691 10.0156 15.1777 10.1895 15.0215 10.4199C14.8652 10.6504 14.7461 10.9355 14.6641 11.2754C14.582 11.6152 14.541 12.0098 14.541 12.459V13.0039C14.541 13.4492 14.584 13.8438 14.6699 14.1875C14.7559 14.5273 14.8828 14.8145 15.0508 15.0488C15.2227 15.2793 15.4336 15.4531 15.6836 15.5703C15.9336 15.6875 16.2246 15.7461 16.5566 15.7461C16.834 15.7461 17.0645 15.7227 17.248 15.6758C17.4355 15.6289 17.5859 15.5723 17.6992 15.5059C17.8164 15.4355 17.9062 15.3691 17.9688 15.3066V13.7949H16.3633V12.541H19.7266ZM23.957 17.1172C23.4648 17.1172 23.0234 17.0391 22.6328 16.8828C22.2422 16.7227 21.9102 16.502 21.6367 16.2207C21.3672 15.9395 21.1602 15.6133 21.0156 15.2422C20.8711 14.8672 20.7988 14.4688 20.7988 14.0469V13.8125C20.7988 13.332 20.8672 12.8926 21.0039 12.4941C21.1406 12.0957 21.3359 11.75 21.5898 11.457C21.8477 11.1641 22.1602 10.9395 22.5273 10.7832C22.8945 10.623 23.3086 10.543 23.7695 10.543C24.2188 10.543 24.6172 10.6172 24.9648 10.7656C25.3125 10.9141 25.6035 11.125 25.8379 11.3984C26.0762 11.6719 26.2559 12 26.377 12.3828C26.498 12.7617 26.5586 13.1836 26.5586 13.6484V14.3516H21.5195V13.2266H24.9004V13.0977C24.9004 12.8633 24.8574 12.6543 24.7715 12.4707C24.6895 12.2832 24.5645 12.1348 24.3965 12.0254C24.2285 11.916 24.0137 11.8613 23.752 11.8613C23.5293 11.8613 23.3379 11.9102 23.1777 12.0078C23.0176 12.1055 22.8867 12.2422 22.7852 12.418C22.6875 12.5938 22.6133 12.8008 22.5625 13.0391C22.5156 13.2734 22.4922 13.5312 22.4922 13.8125V14.0469C22.4922 14.3008 22.5273 14.5352 22.5977 14.75C22.6719 14.9648 22.7754 15.1504 22.9082 15.3066C23.0449 15.4629 23.209 15.584 23.4004 15.6699C23.5957 15.7559 23.8164 15.7988 24.0625 15.7988C24.3672 15.7988 24.6504 15.7402 24.9121 15.623C25.1777 15.502 25.4062 15.3203 25.5977 15.0781L26.418 15.9688C26.2852 16.1602 26.1035 16.3438 25.873 16.5195C25.6465 16.6953 25.373 16.8398 25.0527 16.9531C24.7324 17.0625 24.3672 17.1172 23.957 17.1172ZM30.625 10.6602V11.8555H26.9336V10.6602H30.625ZM27.8477 9.0957H29.5352V15.0898C29.5352 15.2734 29.5586 15.4141 29.6055 15.5117C29.6562 15.6094 29.7305 15.6777 29.8281 15.7168C29.9258 15.752 30.0488 15.7695 30.1973 15.7695C30.3027 15.7695 30.3965 15.7656 30.4785 15.7578C30.5645 15.7461 30.6367 15.7344 30.6953 15.7227L30.7012 16.9648C30.5566 17.0117 30.4004 17.0488 30.2324 17.0762C30.0645 17.1035 29.8789 17.1172 29.6758 17.1172C29.3047 17.1172 28.9805 17.0566 28.7031 16.9355C28.4297 16.8105 28.2188 16.6113 28.0703 16.3379C27.9219 16.0645 27.8477 15.7051 27.8477 15.2598V9.0957ZM39.1211 14.7676C39.1211 14.6152 39.0977 14.4785 39.0508 14.3574C39.0078 14.2324 38.9258 14.1191 38.8047 14.0176C38.6836 13.9121 38.5137 13.8086 38.2949 13.707C38.0762 13.6055 37.793 13.5 37.4453 13.3906C37.0586 13.2656 36.6914 13.125 36.3438 12.9688C36 12.8125 35.6953 12.6309 35.4297 12.4238C35.168 12.2129 34.9609 11.9688 34.8086 11.6914C34.6602 11.4141 34.5859 11.0918 34.5859 10.7246C34.5859 10.3691 34.6641 10.0469 34.8203 9.75781C34.9766 9.46484 35.1953 9.21484 35.4766 9.00781C35.7578 8.79688 36.0898 8.63477 36.4727 8.52148C36.8594 8.4082 37.2832 8.35156 37.7441 8.35156C38.373 8.35156 38.9219 8.46484 39.3906 8.69141C39.8594 8.91797 40.2227 9.22852 40.4805 9.62305C40.7422 10.0176 40.873 10.4688 40.873 10.9766H39.127C39.127 10.7266 39.0742 10.5078 38.9688 10.3203C38.8672 10.1289 38.7109 9.97852 38.5 9.86914C38.293 9.75977 38.0312 9.70508 37.7148 9.70508C37.4102 9.70508 37.1562 9.75195 36.9531 9.8457C36.75 9.93555 36.5977 10.0586 36.4961 10.2148C36.3945 10.3672 36.3438 10.5391 36.3438 10.7305C36.3438 10.875 36.3789 11.0059 36.4492 11.123C36.5234 11.2402 36.6328 11.3496 36.7773 11.4512C36.9219 11.5527 37.0996 11.6484 37.3105 11.7383C37.5215 11.8281 37.7656 11.916 38.043 12.002C38.5078 12.1426 38.916 12.3008 39.2676 12.4766C39.623 12.6523 39.9199 12.8496 40.1582 13.0684C40.3965 13.2871 40.5762 13.5352 40.6973 13.8125C40.8184 14.0898 40.8789 14.4043 40.8789 14.7559C40.8789 15.127 40.8066 15.459 40.6621 15.752C40.5176 16.0449 40.3086 16.293 40.0352 16.4961C39.7617 16.6992 39.4355 16.8535 39.0566 16.959C38.6777 17.0645 38.2539 17.1172 37.7852 17.1172C37.3633 17.1172 36.9473 17.0625 36.5371 16.9531C36.127 16.8398 35.7539 16.6699 35.418 16.4434C35.0859 16.2168 34.8203 15.9277 34.6211 15.5762C34.4219 15.2246 34.3223 14.8086 34.3223 14.3281H36.0859C36.0859 14.5938 36.127 14.8184 36.209 15.002C36.291 15.1855 36.4062 15.334 36.5547 15.4473C36.707 15.5605 36.8867 15.6426 37.0938 15.6934C37.3047 15.7441 37.5352 15.7695 37.7852 15.7695C38.0898 15.7695 38.3398 15.7266 38.5352 15.6406C38.7344 15.5547 38.8809 15.4355 38.9746 15.2832C39.0723 15.1309 39.1211 14.959 39.1211 14.7676ZM45.0742 10.6602V11.8555H41.3828V10.6602H45.0742ZM42.2969 9.0957H43.9844V15.0898C43.9844 15.2734 44.0078 15.4141 44.0547 15.5117C44.1055 15.6094 44.1797 15.6777 44.2773 15.7168C44.375 15.752 44.498 15.7695 44.6465 15.7695C44.752 15.7695 44.8457 15.7656 44.9277 15.7578C45.0137 15.7461 45.0859 15.7344 45.1445 15.7227L45.1504 16.9648C45.0059 17.0117 44.8496 17.0488 44.6816 17.0762C44.5137 17.1035 44.3281 17.1172 44.125 17.1172C43.7539 17.1172 43.4297 17.0566 43.1523 16.9355C42.8789 16.8105 42.668 16.6113 42.5195 16.3379C42.3711 16.0645 42.2969 15.7051 42.2969 15.2598V9.0957ZM49.457 15.5703V12.7461C49.457 12.543 49.4238 12.3691 49.3574 12.2246C49.291 12.0762 49.1875 11.9609 49.0469 11.8789C48.9102 11.7969 48.7324 11.7559 48.5137 11.7559C48.3262 11.7559 48.1641 11.7891 48.0273 11.8555C47.8906 11.918 47.7852 12.0098 47.7109 12.1309C47.6367 12.248 47.5996 12.3867 47.5996 12.5469H45.9121C45.9121 12.2773 45.9746 12.0215 46.0996 11.7793C46.2246 11.5371 46.4062 11.3242 46.6445 11.1406C46.8828 10.9531 47.166 10.8066 47.4941 10.7012C47.8262 10.5957 48.1973 10.543 48.6074 10.543C49.0996 10.543 49.5371 10.625 49.9199 10.7891C50.3027 10.9531 50.6035 11.1992 50.8223 11.5273C51.0449 11.8555 51.1562 12.2656 51.1562 12.7578V15.4707C51.1562 15.8184 51.1777 16.1035 51.2207 16.3262C51.2637 16.5449 51.3262 16.7363 51.4082 16.9004V17H49.7031C49.6211 16.8281 49.5586 16.6133 49.5156 16.3555C49.4766 16.0938 49.457 15.832 49.457 15.5703ZM49.6797 13.1387L49.6914 14.0938H48.748C48.5254 14.0938 48.332 14.1191 48.168 14.1699C48.0039 14.2207 47.8691 14.293 47.7637 14.3867C47.6582 14.4766 47.5801 14.582 47.5293 14.7031C47.4824 14.8242 47.459 14.957 47.459 15.1016C47.459 15.2461 47.4922 15.377 47.5586 15.4941C47.625 15.6074 47.7207 15.6973 47.8457 15.7637C47.9707 15.8262 48.1172 15.8574 48.2852 15.8574C48.5391 15.8574 48.7598 15.8066 48.9473 15.7051C49.1348 15.6035 49.2793 15.4785 49.3809 15.3301C49.4863 15.1816 49.541 15.041 49.5449 14.9082L49.9902 15.623C49.9277 15.7832 49.8418 15.9492 49.7324 16.1211C49.627 16.293 49.4922 16.4551 49.3281 16.6074C49.1641 16.7559 48.9668 16.8789 48.7363 16.9766C48.5059 17.0703 48.2324 17.1172 47.916 17.1172C47.5137 17.1172 47.1484 17.0371 46.8203 16.877C46.4961 16.7129 46.2383 16.4883 46.0469 16.2031C45.8594 15.9141 45.7656 15.5859 45.7656 15.2188C45.7656 14.8867 45.8281 14.5918 45.9531 14.334C46.0781 14.0762 46.2617 13.8594 46.5039 13.6836C46.75 13.5039 47.0566 13.3691 47.4238 13.2793C47.791 13.1855 48.2168 13.1387 48.7012 13.1387H49.6797ZM54.1445 12.043V17H52.457V10.6602H54.0449L54.1445 12.043ZM56.0547 10.6191L56.0254 12.1836C55.9434 12.1719 55.8438 12.1621 55.7266 12.1543C55.6133 12.1426 55.5098 12.1367 55.416 12.1367C55.1777 12.1367 54.9707 12.168 54.7949 12.2305C54.623 12.2891 54.4785 12.377 54.3613 12.4941C54.248 12.6113 54.1621 12.7539 54.1035 12.9219C54.0488 13.0898 54.0176 13.2812 54.0098 13.4961L53.6699 13.3906C53.6699 12.9805 53.7109 12.6035 53.793 12.2598C53.875 11.9121 53.9941 11.6094 54.1504 11.3516C54.3105 11.0938 54.5059 10.8945 54.7363 10.7539C54.9668 10.6133 55.2305 10.543 55.5273 10.543C55.6211 10.543 55.7168 10.5508 55.8145 10.5664C55.9121 10.5781 55.9922 10.5957 56.0547 10.6191ZM60.25 10.6602V11.8555H56.5586V10.6602H60.25ZM57.4727 9.0957H59.1602V15.0898C59.1602 15.2734 59.1836 15.4141 59.2305 15.5117C59.2812 15.6094 59.3555 15.6777 59.4531 15.7168C59.5508 15.752 59.6738 15.7695 59.8223 15.7695C59.9277 15.7695 60.0215 15.7656 60.1035 15.7578C60.1895 15.7461 60.2617 15.7344 60.3203 15.7227L60.3262 16.9648C60.1816 17.0117 60.0254 17.0488 59.8574 17.0762C59.6895 17.1035 59.5039 17.1172 59.3008 17.1172C58.9297 17.1172 58.6055 17.0566 58.3281 16.9355C58.0547 16.8105 57.8438 16.6113 57.6953 16.3379C57.5469 16.0645 57.4727 15.7051 57.4727 15.2598V9.0957ZM64.1289 17.1172C63.6367 17.1172 63.1953 17.0391 62.8047 16.8828C62.4141 16.7227 62.082 16.502 61.8086 16.2207C61.5391 15.9395 61.332 15.6133 61.1875 15.2422C61.043 14.8672 60.9707 14.4688 60.9707 14.0469V13.8125C60.9707 13.332 61.0391 12.8926 61.1758 12.4941C61.3125 12.0957 61.5078 11.75 61.7617 11.457C62.0195 11.1641 62.332 10.9395 62.6992 10.7832C63.0664 10.623 63.4805 10.543 63.9414 10.543C64.3906 10.543 64.7891 10.6172 65.1367 10.7656C65.4844 10.9141 65.7754 11.125 66.0098 11.3984C66.248 11.6719 66.4277 12 66.5488 12.3828C66.6699 12.7617 66.7305 13.1836 66.7305 13.6484V14.3516H61.6914V13.2266H65.0723V13.0977C65.0723 12.8633 65.0293 12.6543 64.9434 12.4707C64.8613 12.2832 64.7363 12.1348 64.5684 12.0254C64.4004 11.916 64.1855 11.8613 63.9238 11.8613C63.7012 11.8613 63.5098 11.9102 63.3496 12.0078C63.1895 12.1055 63.0586 12.2422 62.957 12.418C62.8594 12.5938 62.7852 12.8008 62.7344 13.0391C62.6875 13.2734 62.6641 13.5312 62.6641 13.8125V14.0469C62.6641 14.3008 62.6992 14.5352 62.7695 14.75C62.8438 14.9648 62.9473 15.1504 63.0801 15.3066C63.2168 15.4629 63.3809 15.584 63.5723 15.6699C63.7676 15.7559 63.9883 15.7988 64.2344 15.7988C64.5391 15.7988 64.8223 15.7402 65.084 15.623C65.3496 15.502 65.5781 15.3203 65.7695 15.0781L66.5898 15.9688C66.457 16.1602 66.2754 16.3438 66.0449 16.5195C65.8184 16.6953 65.5449 16.8398 65.2246 16.9531C64.9043 17.0625 64.5391 17.1172 64.1289 17.1172ZM71.4355 15.6172V8H73.1348V17H71.6055L71.4355 15.6172ZM67.4277 13.9062V13.7832C67.4277 13.2988 67.4824 12.8594 67.5918 12.4648C67.7012 12.0664 67.8613 11.7246 68.0723 11.4395C68.2832 11.1543 68.543 10.9336 68.8516 10.7773C69.1602 10.6211 69.5117 10.543 69.9062 10.543C70.2773 10.543 70.6016 10.6211 70.8789 10.7773C71.1602 10.9336 71.3984 11.1562 71.5938 11.4453C71.793 11.7305 71.9531 12.0684 72.0742 12.459C72.1953 12.8457 72.2832 13.2695 72.3379 13.7305V14C72.2832 14.4414 72.1953 14.8516 72.0742 15.2305C71.9531 15.6094 71.793 15.9414 71.5938 16.2266C71.3984 16.5078 71.1602 16.7266 70.8789 16.8828C70.5977 17.0391 70.2695 17.1172 69.8945 17.1172C69.5 17.1172 69.1484 17.0371 68.8398 16.877C68.5352 16.7168 68.2773 16.4922 68.0664 16.2031C67.8594 15.9141 67.7012 15.5742 67.5918 15.1836C67.4824 14.793 67.4277 14.3672 67.4277 13.9062ZM69.1152 13.7832V13.9062C69.1152 14.168 69.1348 14.4121 69.1738 14.6387C69.2168 14.8652 69.2852 15.0664 69.3789 15.2422C69.4766 15.4141 69.6016 15.5488 69.7539 15.6465C69.9102 15.7402 70.0996 15.7871 70.3223 15.7871C70.6113 15.7871 70.8496 15.7227 71.0371 15.5938C71.2246 15.4609 71.3672 15.2793 71.4648 15.0488C71.5664 14.8184 71.625 14.5527 71.6406 14.252V13.4844C71.6289 13.2383 71.5938 13.0176 71.5352 12.8223C71.4805 12.623 71.3984 12.4531 71.2891 12.3125C71.1836 12.1719 71.0508 12.0625 70.8906 11.9844C70.7344 11.9062 70.5488 11.8672 70.334 11.8672C70.1152 11.8672 69.9277 11.918 69.7715 12.0195C69.6152 12.1172 69.4883 12.252 69.3906 12.4238C69.2969 12.5957 69.2266 12.7988 69.1797 13.0332C69.1367 13.2637 69.1152 13.5137 69.1152 13.7832Z" fill="white"/>
<path d="M87.947 7.80301C87.6541 7.51011 87.1792 7.51011 86.8863 7.80301C86.5934 8.0959 86.5934 8.57077 86.8863 8.86367L90.2726 12.25H82.75C82.3358 12.25 82 12.5857 82 13C82 13.4142 82.3358 13.75 82.75 13.75H90.2727L86.8863 17.1363C86.5934 17.4292 86.5934 17.9041 86.8863 18.197C87.1792 18.4899 87.6541 18.4899 87.947 18.197L92.6137 13.5303C92.6873 13.4567 92.7424 13.3716 92.779 13.2807C92.814 13.194 92.8333 13.0992 92.8333 13C92.8333 12.8857 92.8078 12.7775 92.7621 12.6806C92.7366 12.6263 92.7042 12.5745 92.665 12.5264C92.6473 12.5047 92.6284 12.484 92.6084 12.4644L87.947 7.80301Z" fill="white"/>
</svg>
