<svg width="48" height="48" viewBox="0 0 48 48" fill="none" xmlns="http://www.w3.org/2000/svg">
<path d="M24.08 10.63C29.5145 10.63 33.92 9.1794 33.92 7.38999C33.92 5.60059 29.5145 4.14999 24.08 4.14999C18.6455 4.14999 14.24 5.60059 14.24 7.38999C14.24 9.1794 18.6455 10.63 24.08 10.63Z" stroke="#6C9FFF" stroke-width="2" stroke-miterlimit="10"/>
<path d="M24.08 10.63C18.65 10.63 14.24 9.18001 14.24 7.39001V23.16C14.24 24.95 18.64 26.4 24.08 26.4C29.52 26.4 33.92 24.95 33.92 23.16V7.39001C33.92 9.18001 29.52 10.63 24.08 10.63V10.63Z" stroke="#6C9FFF" stroke-width="2" stroke-miterlimit="10"/>
<path d="M33.91 15.28C33.91 17.07 29.51 18.52 24.07 18.52C18.63 18.52 14.18 17.07 14.23 15.28" stroke="#6C9FFF" stroke-width="2" stroke-miterlimit="10"/>
<path d="M24.08 36.06V26.4" stroke="#6C9FFF" stroke-width="2" stroke-miterlimit="10"/>
<path d="M24.08 43.84C26.2284 43.84 27.97 42.0984 27.97 39.95C27.97 37.8016 26.2284 36.06 24.08 36.06C21.9316 36.06 20.19 37.8016 20.19 39.95C20.19 42.0984 21.9316 43.84 24.08 43.84Z" stroke="#6C9FFF" stroke-width="2" stroke-miterlimit="10"/>
<path d="M4.14001 39.95H20.03" stroke="#6C9FFF" stroke-width="2" stroke-miterlimit="10"/>
<path d="M27.97 39.95H43.86" stroke="#6C9FFF" stroke-width="2" stroke-miterlimit="10"/>
</svg>
