<svg width="48" height="48" viewBox="0 0 48 48" fill="none" xmlns="http://www.w3.org/2000/svg">
<path d="M18.83 13.99C26.7332 13.99 33.14 11.8813 33.14 9.28001C33.14 6.67875 26.7332 4.57001 18.83 4.57001C10.9268 4.57001 4.51999 6.67875 4.51999 9.28001C4.51999 11.8813 10.9268 13.99 18.83 13.99Z" stroke="#6C9FFF" stroke-width="2" stroke-miterlimit="10"/>
<path d="M33.15 20.75C33.15 23.35 26.74 25.46 18.84 25.46C10.94 25.46 4.45 23.35 4.53 20.75" stroke="#6C9FFF" stroke-width="2" stroke-miterlimit="10"/>
<path d="M33.15 27.32V9.28C33.15 11.88 26.74 13.99 18.84 13.99C10.94 13.99 4.53 11.88 4.53 9.28V32.23C4.53 34.83 10.94 36.94 18.84 36.94C21.8 36.94 24.56 36.64 26.84 36.14" stroke="#6C9FFF" stroke-width="2" stroke-miterlimit="10"/>
<path d="M35.28 43.44C39.8087 43.44 43.48 39.7687 43.48 35.24C43.48 30.7113 39.8087 27.04 35.28 27.04C30.7513 27.04 27.08 30.7113 27.08 35.24C27.08 39.7687 30.7513 43.44 35.28 43.44Z" stroke="#6C9FFF" stroke-width="2" stroke-miterlimit="10"/>
<path d="M35.28 31.08V39.39" stroke="#6C9FFF" stroke-width="2" stroke-miterlimit="10"/>
<path d="M39.44 35.24H31.13" stroke="#6C9FFF" stroke-width="2" stroke-miterlimit="10"/>
</svg>
