<svg width="48" height="48" viewBox="0 0 48 48" fill="none" xmlns="http://www.w3.org/2000/svg">
<path d="M35.91 30.93C40.2675 30.93 43.8 29.766 43.8 28.33C43.8 26.8941 40.2675 25.73 35.91 25.73C31.5525 25.73 28.02 26.8941 28.02 28.33C28.02 29.766 31.5525 30.93 35.91 30.93Z" stroke="#6C9FFF" stroke-width="2" stroke-miterlimit="10"/>
<path d="M35.91 30.93C31.55 30.93 28.02 29.77 28.02 28.33V40.97C28.02 42.4 31.55 43.57 35.91 43.57C40.27 43.57 43.8 42.41 43.8 40.97V28.33C43.8 29.76 40.27 30.93 35.91 30.93Z" stroke="#6C9FFF" stroke-width="2" stroke-miterlimit="10"/>
<path d="M43.8 34.66C43.8 36.09 40.27 37.26 35.91 37.26C31.55 37.26 27.98 36.1 28.02 34.66" stroke="#6C9FFF" stroke-width="2" stroke-miterlimit="10"/>
<path d="M12.24 33.28C14.1398 33.28 15.68 31.7399 15.68 29.84C15.68 27.9401 14.1398 26.4 12.24 26.4C10.3401 26.4 8.79999 27.9401 8.79999 29.84C8.79999 31.7399 10.3401 33.28 12.24 33.28Z" stroke="#6C9FFF" stroke-width="2" stroke-linejoin="round"/>
<path d="M9.60999 33.92H14.88C16.94 33.92 18.62 35.59 18.62 37.66V42.55H5.87V37.66C5.87 35.6 7.53999 33.92 9.60999 33.92Z" stroke="#6C9FFF" stroke-width="2" stroke-linejoin="round"/>
<path d="M21.22 4.42001H4.10999V20.37H21.22V4.42001Z" stroke="#6C9FFF" stroke-width="2" stroke-linecap="round" stroke-linejoin="round"/>
<path d="M4.10999 12.4H8.28999C8.28999 12.4 11.21 8.32 11.08 8.4C10.95 8.48 15.6 15.87 15.47 15.87C15.34 15.87 17.2 12.13 17.2 12.13H20.97" stroke="#6C9FFF" stroke-width="2" stroke-linecap="round" stroke-linejoin="round"/>
<path d="M35.91 20.37C40.3117 20.37 43.88 16.8017 43.88 12.4C43.88 7.99828 40.3117 4.42999 35.91 4.42999C31.5083 4.42999 27.94 7.99828 27.94 12.4C27.94 16.8017 31.5083 20.37 35.91 20.37Z" stroke="#6C9FFF" stroke-width="2" stroke-miterlimit="10"/>
<path d="M29.21 12.4H29.05" stroke="#6C9FFF" stroke-width="2" stroke-miterlimit="10" stroke-linecap="round"/>
<path d="M42.78 12.4H42.62" stroke="#6C9FFF" stroke-width="2" stroke-miterlimit="10" stroke-linecap="round"/>
<path d="M30.87 7.35001L31.06 7.54001" stroke="#6C9FFF" stroke-width="2" stroke-miterlimit="10" stroke-linecap="round"/>
<path d="M35.91 5.69V5.53" stroke="#6C9FFF" stroke-width="2" stroke-miterlimit="10" stroke-linecap="round"/>
<path d="M40.96 7.35001L40.77 7.54001" stroke="#6C9FFF" stroke-width="2" stroke-miterlimit="10" stroke-linecap="round"/>
<path d="M35.91 13.18C36.3408 13.18 36.69 12.8308 36.69 12.4C36.69 11.9692 36.3408 11.62 35.91 11.62C35.4792 11.62 35.13 11.9692 35.13 12.4C35.13 12.8308 35.4792 13.18 35.91 13.18Z" stroke="#6C9FFF" stroke-width="2" stroke-miterlimit="10"/>
<path d="M35.91 12.4L38.32 10" stroke="#6C9FFF" stroke-width="2" stroke-miterlimit="10" stroke-linecap="round"/>
<path d="M29.05 16.45H42.7" stroke="#6C9FFF" stroke-width="2" stroke-miterlimit="10"/>
</svg>
