<svg width="48" height="48" viewBox="0 0 48 48" fill="none" xmlns="http://www.w3.org/2000/svg">
<path d="M35.24 32.31C35.24 30.22 36.93 28.53 39.02 28.53C39.54 28.53 40.03 28.63 40.48 28.82C40.93 27.29 41.18 25.67 41.18 23.99C41.18 22.31 40.94 20.82 40.53 19.34C40.07 19.54 39.56 19.65 39.03 19.65C36.94 19.65 35.25 17.96 35.25 15.87C35.25 14.55 35.93 13.39 36.95 12.72C34.59 10.01 31.39 8.05001 27.76 7.23001C27.65 9.21001 26.02 10.79 24 10.79C21.98 10.79 20.36 9.21001 20.24 7.23001C16.61 8.04001 13.41 10 11.05 12.72C12.08 13.4 12.75 14.55 12.75 15.87C12.75 17.96 11.06 19.65 8.97001 19.65C8.44001 19.65 7.93001 19.54 7.47001 19.34C7.05001 20.82 6.82001 22.37 6.82001 23.99C6.82001 25.61 7.07001 27.29 7.52001 28.82C7.97001 28.63 8.46001 28.53 8.98001 28.53C11.07 28.53 12.76 30.22 12.76 32.31C12.76 33.58 12.13 34.7 11.17 35.38C13.53 38.03 16.68 39.95 20.27 40.75C20.48 38.86 22.06 37.39 24.01 37.39C25.96 37.39 27.53 38.86 27.75 40.75C31.34 39.95 34.49 38.03 36.85 35.38C35.89 34.7 35.26 33.58 35.26 32.31H35.24Z" stroke="#6C9FFF" stroke-width="2" stroke-miterlimit="10"/>
<path d="M39.02 36.09C41.1076 36.09 42.8 34.3976 42.8 32.31C42.8 30.2224 41.1076 28.53 39.02 28.53C36.9324 28.53 35.24 30.2224 35.24 32.31C35.24 34.3976 36.9324 36.09 39.02 36.09Z" stroke="#6C9FFF" stroke-width="2" stroke-miterlimit="10"/>
<path d="M39.02 19.66C41.1076 19.66 42.8 17.9676 42.8 15.88C42.8 13.7924 41.1076 12.1 39.02 12.1C36.9324 12.1 35.24 13.7924 35.24 15.88C35.24 17.9676 36.9324 19.66 39.02 19.66Z" stroke="#6C9FFF" stroke-width="2" stroke-miterlimit="10"/>
<path d="M8.98001 36.09C11.0676 36.09 12.76 34.3976 12.76 32.31C12.76 30.2224 11.0676 28.53 8.98001 28.53C6.89238 28.53 5.20001 30.2224 5.20001 32.31C5.20001 34.3976 6.89238 36.09 8.98001 36.09Z" stroke="#6C9FFF" stroke-width="2" stroke-miterlimit="10"/>
<path d="M8.98001 19.66C11.0676 19.66 12.76 17.9676 12.76 15.88C12.76 13.7924 11.0676 12.1 8.98001 12.1C6.89238 12.1 5.20001 13.7924 5.20001 15.88C5.20001 17.9676 6.89238 19.66 8.98001 19.66Z" stroke="#6C9FFF" stroke-width="2" stroke-miterlimit="10"/>
<path d="M24 10.81C26.0876 10.81 27.78 9.11764 27.78 7.03C27.78 4.94236 26.0876 3.25 24 3.25C21.9123 3.25 20.22 4.94236 20.22 7.03C20.22 9.11764 21.9123 10.81 24 10.81Z" stroke="#6C9FFF" stroke-width="2" stroke-miterlimit="10"/>
<path d="M24 44.95C26.0876 44.95 27.78 43.2576 27.78 41.17C27.78 39.0824 26.0876 37.39 24 37.39C21.9123 37.39 20.22 39.0824 20.22 41.17C20.22 43.2576 21.9123 44.95 24 44.95Z" stroke="#6C9FFF" stroke-width="2" stroke-miterlimit="10"/>
<path d="M15.29 20.75H18.06C19 20.75 19.77 21.51 19.77 22.46V25.55C19.77 26.49 19.01 27.26 18.06 27.26H15.29V20.76V20.75Z" stroke="#6C9FFF" stroke-width="2" stroke-linecap="round" stroke-linejoin="round"/>
<path d="M32.7099 27.25H29.0099V20.75H32.7099" stroke="#6C9FFF" stroke-width="2" stroke-linecap="round" stroke-linejoin="round"/>
<path d="M22.7599 27.25H24.2699C25.5599 27.25 26.1799 25.67 25.2399 24.8L23.5299 23.21C22.5899 22.33 23.2099 20.76 24.4999 20.76H26.0099" stroke="#6C9FFF" stroke-width="2" stroke-linecap="round" stroke-linejoin="round"/>
<path d="M29.0099 24H32.7099" stroke="#6C9FFF" stroke-width="2" stroke-linecap="round" stroke-linejoin="round"/>
</svg>
