<svg width="48" height="48" viewBox="0 0 48 48" fill="none" xmlns="http://www.w3.org/2000/svg">
<path d="M24 32.88C28.9043 32.88 32.88 28.9043 32.88 24C32.88 19.0957 28.9043 15.12 24 15.12C19.0957 15.12 15.12 19.0957 15.12 24C15.12 28.9043 19.0957 32.88 24 32.88Z" stroke="#6C9FFF" stroke-width="2" stroke-miterlimit="10"/>
<path d="M39.14 43.58C41.5922 43.58 43.58 41.5922 43.58 39.14C43.58 36.6879 41.5922 34.7 39.14 34.7C36.6879 34.7 34.7 36.6879 34.7 39.14C34.7 41.5922 36.6879 43.58 39.14 43.58Z" stroke="#6C9FFF" stroke-width="2" stroke-miterlimit="10"/>
<path d="M30.28 30.28L36 36" stroke="#6C9FFF" stroke-width="2" stroke-miterlimit="10"/>
<path d="M8.85998 13.3C11.3121 13.3 13.3 11.3122 13.3 8.86001C13.3 6.40787 11.3121 4.42001 8.85998 4.42001C6.40784 4.42001 4.41998 6.40787 4.41998 8.86001C4.41998 11.3122 6.40784 13.3 8.85998 13.3Z" stroke="#6C9FFF" stroke-width="2" stroke-miterlimit="10"/>
<path d="M17.72 17.72L12 12" stroke="#6C9FFF" stroke-width="2" stroke-miterlimit="10"/>
<path d="M8.85998 43.58C11.3121 43.58 13.3 41.5922 13.3 39.14C13.3 36.6879 11.3121 34.7 8.85998 34.7C6.40784 34.7 4.41998 36.6879 4.41998 39.14C4.41998 41.5922 6.40784 43.58 8.85998 43.58Z" stroke="#6C9FFF" stroke-width="2" stroke-miterlimit="10"/>
<path d="M17.72 30.28L12 36" stroke="#6C9FFF" stroke-width="2" stroke-miterlimit="10"/>
<path d="M39.14 13.3C41.5922 13.3 43.58 11.3122 43.58 8.86001C43.58 6.40787 41.5922 4.42001 39.14 4.42001C36.6879 4.42001 34.7 6.40787 34.7 8.86001C34.7 11.3122 36.6879 13.3 39.14 13.3Z" stroke="#6C9FFF" stroke-width="2" stroke-miterlimit="10"/>
<path d="M30.28 17.72L36 12" stroke="#6C9FFF" stroke-width="2" stroke-miterlimit="10"/>
<path d="M20.89 25.99L24 20.89L27.11 25.99" stroke="#6C9FFF" stroke-width="2" stroke-linecap="round" stroke-linejoin="round"/>
</svg>
