<svg width="48" height="48" viewBox="0 0 48 48" fill="none" xmlns="http://www.w3.org/2000/svg">
<path d="M33.49 24.49C39.4657 24.49 44.31 22.8961 44.31 20.93C44.31 18.9639 39.4657 17.37 33.49 17.37C27.5143 17.37 22.67 18.9639 22.67 20.93C22.67 22.8961 27.5143 24.49 33.49 24.49Z" stroke="#6C9FFF" stroke-width="2" stroke-miterlimit="10"/>
<path d="M33.49 24.49C27.52 24.49 22.67 22.9 22.67 20.93V40.11C22.67 42.08 27.51 43.67 33.49 43.67C39.47 43.67 44.31 42.08 44.31 40.11V20.93C44.31 22.9 39.47 24.49 33.49 24.49Z" stroke="#6C9FFF" stroke-width="2" stroke-miterlimit="10"/>
<path d="M44.31 30.52C44.31 32.49 39.47 34.08 33.49 34.08C27.51 34.08 22.62 32.48 22.67 30.52" stroke="#6C9FFF" stroke-width="2" stroke-miterlimit="10"/>
<path d="M10.09 23.19V27.76C10.09 29.36 11.39 30.66 12.99 30.66H18.44" stroke="#6C9FFF" stroke-width="2" stroke-miterlimit="10"/>
<path d="M16.04 33.69V27.63C16.04 27.17 16.59 26.94 16.92 27.27L19.95 30.3C20.15 30.5 20.15 30.83 19.95 31.03L16.92 34.06C16.6 34.38 16.04 34.15 16.04 33.7V33.69Z" fill="#6C9FFF"/>
<path d="M15.76 4.84H4.42999V19.9H15.76V4.84Z" stroke="#6C9FFF" stroke-width="2" stroke-linejoin="round"/>
<path d="M7.90997 8.66H12.26" stroke="#6C9FFF" stroke-width="2" stroke-linecap="round" stroke-linejoin="round"/>
<path d="M7.90997 12.37H12.26" stroke="#6C9FFF" stroke-width="2" stroke-linecap="round" stroke-linejoin="round"/>
<path d="M7.90997 16.07H12.26" stroke="#6C9FFF" stroke-width="2" stroke-linecap="round" stroke-linejoin="round"/>
</svg>
