<?xml version="1.0" encoding="UTF-8"?><svg id="Layer_1" xmlns="http://www.w3.org/2000/svg" viewBox="0 0 48 48"><defs><style>.cls-1{fill:#609dff;}.cls-2{fill:none;stroke:#609dff;stroke-miterlimit:10;stroke-width:2px;}</style></defs><g><g><ellipse class="cls-2" cx="9.9" cy="28.35" rx="6.55" ry="2.13"/><path class="cls-2" d="M9.9,30.49c-3.62,0-6.55-.96-6.55-2.13v12.67c0,1.18,2.93,2.13,6.55,2.13s6.55-.96,6.55-2.13v-12.67c0,1.18-2.93,2.13-6.55,2.13Z"/></g><g><ellipse class="cls-2" cx="38.1" cy="33.7" rx="6.55" ry="2.13"/><path class="cls-2" d="M38.1,35.84c-3.62,0-6.55-.96-6.55-2.13v7.32c0,1.18,2.93,2.13,6.55,2.13s6.55-.96,6.55-2.13v-7.32c0,1.18-2.93,2.13-6.55,2.13Z"/></g></g><path class="cls-1" d="M34.71,24.61h6.48c.49,0,.74,.59,.39,.94l-3.24,3.24c-.22,.22-.56,.22-.78,0l-3.24-3.24c-.35-.35-.1-.94,.39-.94Z"/><path class="cls-2" d="M33.68,11.95h2c1.25,0,2.27,1.02,2.27,2.27v11.89"/><path class="cls-2" d="M14.32,11.95h-2c-1.25,0-2.27,1.02-2.27,2.27v12"/><g><path class="cls-2" d="M20.45,11.95v-2.78c0-.43,.35-.78,.78-.78h5.55c.43,0,.78,.35,.78,.78v5.55c0,.43-.35,.78-.78,.78h-2.78"/><path class="cls-2" d="M24,8.4v-2.78c0-.43,.35-.78,.78-.78h5.55c.43,0,.78,.35,.78,.78v5.55c0,.43-.35,.78-.78,.78h-2.78"/></g><rect class="cls-2" x="16.89" y="11.95" width="7.11" height="7.11" rx=".78" ry=".78"/></svg>