<svg width="48" height="48" viewBox="0 0 48 48" fill="none" xmlns="http://www.w3.org/2000/svg">
<path d="M24 43.03L14.03 36.21C8.35998 32.33 4.97998 25.91 4.97998 19.04V4.97H43.03V19.03C43.03 25.9 39.64 32.32 33.98 36.2L24.01 43.02L24 43.03Z" stroke="#6C9FFF" stroke-width="2" stroke-linejoin="round"/>
<path d="M18.79 19.07V15.27C18.79 12.4 21.13 10.06 24 10.06C26.87 10.06 29.21 12.4 29.21 15.27V19.07" stroke="#6C9FFF" stroke-width="2" stroke-miterlimit="10"/>
<path d="M24 34.89C28.827 34.89 32.74 30.977 32.74 26.15C32.74 21.323 28.827 17.41 24 17.41C19.173 17.41 15.26 21.323 15.26 26.15C15.26 30.977 19.173 34.89 24 34.89Z" stroke="#6C9FFF" stroke-width="2" stroke-miterlimit="10"/>
<path d="M24 29.99C26.1207 29.99 27.84 28.2708 27.84 26.15C27.84 24.0292 26.1207 22.31 24 22.31C21.8792 22.31 20.16 24.0292 20.16 26.15C20.16 28.2708 21.8792 29.99 24 29.99Z" stroke="#6C9FFF" stroke-width="2" stroke-miterlimit="10"/>
</svg>
