<svg width="48" height="48" viewBox="0 0 48 48" fill="none" xmlns="http://www.w3.org/2000/svg">
<path d="M25.03 33.6H6.01C4.42 33.6 3.13 32.31 3.13 30.72V10.73H35.78V24.64" stroke="#6C9FFF" stroke-width="2" stroke-linejoin="round"/>
<path d="M6.01 4.75H32.9C34.49 4.75 35.78 6.04 35.78 7.63V10.73H3.13V7.63C3.13 6.04 4.42 4.75 6.01 4.75V4.75Z" stroke="#6C9FFF" stroke-width="2" stroke-linejoin="round"/>
<path d="M7.52002 15.45H31.46" stroke="#6C9FFF" stroke-width="2" stroke-linecap="round" stroke-linejoin="round"/>
<path d="M7.60001 19.8H14.08" stroke="#6C9FFF" stroke-width="2" stroke-linecap="round" stroke-linejoin="round"/>
<path d="M17.52 19.8H29.44" stroke="#6C9FFF" stroke-width="2" stroke-linecap="round" stroke-linejoin="round"/>
<path d="M7.60001 24.21H24" stroke="#6C9FFF" stroke-width="2" stroke-linecap="round" stroke-linejoin="round"/>
<path d="M7.60001 28.62H22" stroke="#6C9FFF" stroke-width="2" stroke-linecap="round" stroke-linejoin="round"/>
<path d="M35.78 28.87C35.78 28.87 35.74 28.9 35.73 28.91C33.9 30.36 32.88 32.59 32.98 34.92M40.47 35.3C40.47 35.3 40.42 35.23 40.39 35.2C38.94 33.37 36.7 32.35 34.38 32.45M34.11 39.85C35.94 38.4 36.96 36.16 36.86 33.84M29.45 33.57C30.9 35.39 33.13 36.41 35.46 36.31" stroke="#6C9FFF" stroke-width="2" stroke-linecap="round" stroke-linejoin="round"/>
<path d="M34.95 44.28C40.4287 44.28 44.87 39.8387 44.87 34.36C44.87 28.8813 40.4287 24.44 34.95 24.44C29.4713 24.44 25.03 28.8813 25.03 34.36C25.03 39.8387 29.4713 44.28 34.95 44.28Z" stroke="#6C9FFF" stroke-width="2" stroke-linejoin="round"/>
<path d="M28.61 8.85999C29.2285 8.85999 29.73 8.35855 29.73 7.74C29.73 7.12144 29.2285 6.62 28.61 6.62C27.9914 6.62 27.49 7.12144 27.49 7.74C27.49 8.35855 27.9914 8.85999 28.61 8.85999Z" fill="#6C9FFF"/>
<path d="M32.11 8.85999C32.7285 8.85999 33.23 8.35855 33.23 7.74C33.23 7.12144 32.7285 6.62 32.11 6.62C31.4914 6.62 30.99 7.12144 30.99 7.74C30.99 8.35855 31.4914 8.85999 32.11 8.85999Z" fill="#6C9FFF"/>
</svg>
