<svg width="48" height="48" viewBox="0 0 48 48" fill="none" xmlns="http://www.w3.org/2000/svg">
<path d="M41.68 4.57999H6.32C4.71286 4.57999 3.41 5.88284 3.41 7.48999V31.58C3.41 33.1871 4.71286 34.49 6.32 34.49H41.68C43.2872 34.49 44.59 33.1871 44.59 31.58V7.48999C44.59 5.88284 43.2872 4.57999 41.68 4.57999Z" stroke="#6C9FFF" stroke-width="2" stroke-miterlimit="10"/>
<path d="M3.41 28.53V31.58C3.41 33.19 4.71 34.49 6.32 34.49H41.68C43.29 34.49 44.59 33.19 44.59 31.58V28.53H3.41Z" stroke="#6C9FFF" stroke-width="2" stroke-miterlimit="10"/>
<path d="M14.7 8.42999H7.56C7.32252 8.42999 7.13 8.62251 7.13 8.85999V24.42C7.13 24.6575 7.32252 24.85 7.56 24.85H14.7C14.9375 24.85 15.13 24.6575 15.13 24.42V8.85999C15.13 8.62251 14.9375 8.42999 14.7 8.42999Z" stroke="#6C9FFF" stroke-width="2" stroke-miterlimit="10"/>
<path d="M40.6 8.42999H32.14C31.9909 8.42999 31.87 8.55088 31.87 8.69999V13.86C31.87 14.0091 31.9909 14.13 32.14 14.13H40.6C40.7491 14.13 40.87 14.0091 40.87 13.86V8.69999C40.87 8.55088 40.7491 8.42999 40.6 8.42999Z" stroke="#6C9FFF" stroke-width="2" stroke-miterlimit="10"/>
<path d="M27.67 8.42999H19.21C19.0609 8.42999 18.94 8.55088 18.94 8.69999V13.86C18.94 14.0091 19.0609 14.13 19.21 14.13H27.67C27.8191 14.13 27.94 14.0091 27.94 13.86V8.69999C27.94 8.55088 27.8191 8.42999 27.67 8.42999Z" stroke="#6C9FFF" stroke-width="2" stroke-miterlimit="10"/>
<path d="M40.41 17.84H19.4C19.146 17.84 18.94 18.0459 18.94 18.3V24.39C18.94 24.644 19.146 24.85 19.4 24.85H40.41C40.6641 24.85 40.87 24.644 40.87 24.39V18.3C40.87 18.0459 40.6641 17.84 40.41 17.84Z" stroke="#6C9FFF" stroke-width="2" stroke-miterlimit="10"/>
<path d="M29.51 43.42H18.49L20.65 34.49H27.35L29.51 43.42Z" stroke="#6C9FFF" stroke-width="2" stroke-miterlimit="10"/>
<path d="M13.47 43.42H34.53" stroke="#6C9FFF" stroke-width="2" stroke-linecap="round" stroke-linejoin="round"/>
</svg>
