<svg width="48" height="48" viewBox="0 0 48 48" fill="none" xmlns="http://www.w3.org/2000/svg">
<path d="M33.69 36.67V43.42H4.94V4.57999H33.69V22.36" stroke="#6C9FFF" stroke-width="2" stroke-linejoin="round"/>
<path d="M33.69 4.57999H22.98V15.29H33.69V4.57999Z" stroke="#6C9FFF" stroke-width="2" stroke-linejoin="round"/>
<path d="M22.98 4.57999L33.69 15.29" stroke="#6C9FFF" stroke-width="2" stroke-linejoin="round"/>
<path d="M40 22.36H17.15C15.1563 22.36 13.54 23.9762 13.54 25.97V33.06C13.54 35.0537 15.1563 36.67 17.15 36.67H40C41.9938 36.67 43.61 35.0537 43.61 33.06V25.97C43.61 23.9762 41.9938 22.36 40 22.36Z" stroke="#6C9FFF" stroke-width="2" stroke-linejoin="round"/>
<path d="M23.7 32.73H20.3C19.59 32.73 19.01 32.15 19.01 31.44V27.59C19.01 26.88 19.59 26.3 20.3 26.3H23.7" stroke="#6C9FFF" stroke-width="2" stroke-linejoin="round"/>
<path d="M39.72 32.73H36.32C35.61 32.73 35.03 32.15 35.03 31.44V25.13" stroke="#6C9FFF" stroke-width="2" stroke-linejoin="round"/>
<path d="M29.5 26.3H27.39C26.6776 26.3 26.1 26.8776 26.1 27.59V31.44C26.1 32.1525 26.6776 32.73 27.39 32.73H29.5C30.2125 32.73 30.79 32.1525 30.79 31.44V27.59C30.79 26.8776 30.2125 26.3 29.5 26.3Z" stroke="#6C9FFF" stroke-width="2" stroke-linejoin="round"/>
<path d="M29.97 31.91L32.03 33.97" stroke="#6C9FFF" stroke-width="2" stroke-linejoin="round"/>
</svg>
