<svg width="48" height="48" viewBox="0 0 48 48" fill="none" xmlns="http://www.w3.org/2000/svg">
<path d="M24 16.72C27.5457 16.72 30.42 13.8457 30.42 10.3C30.42 6.75434 27.5457 3.88 24 3.88C20.4543 3.88 17.58 6.75434 17.58 10.3C17.58 13.8457 20.4543 16.72 24 16.72Z" stroke="#6C9FFF" stroke-width="2" stroke-linejoin="round"/>
<path d="M43.8 32.57L34.81 19.71C33.85 18.34 32.28 17.52 30.61 17.52H17.39C15.72 17.52 14.15 18.34 13.19 19.71L4.19999 32.57C2.07999 35.61 4.24999 39.78 7.95999 39.78H12.1V27.79C12.1 27.08 12.67 26.51 13.38 26.51H34.63C35.34 26.51 35.91 27.08 35.91 27.79V39.78H40.05C43.76 39.78 45.93 35.61 43.81 32.57H43.8Z" stroke="#6C9FFF" stroke-width="2" stroke-linejoin="round"/>
<path d="M12.09 39.78H35.91V42.66C35.91 43.47 35.26 44.12 34.45 44.12H13.55C12.74 44.12 12.09 43.47 12.09 42.66V39.78Z" stroke="#6C9FFF" stroke-width="2" stroke-linejoin="round"/>
<path d="M24 35.99C25.4525 35.99 26.63 34.8125 26.63 33.36C26.63 31.9075 25.4525 30.73 24 30.73C22.5475 30.73 21.37 31.9075 21.37 33.36C21.37 34.8125 22.5475 35.99 24 35.99Z" stroke="#6C9FFF" stroke-width="2" stroke-linejoin="round"/>
</svg>
