<svg width="48" height="48" viewBox="0 0 48 48" fill="none" xmlns="http://www.w3.org/2000/svg">
<path d="M4.51999 30.45H34.17C37.02 30.45 39.34 32.76 39.34 35.62V36.16C39.34 39.01 37.03 41.33 34.17 41.33C31.32 41.33 29 39.02 29 36.16V35.13" stroke="#609DFF" stroke-width="2" stroke-linecap="square" stroke-linejoin="round"/>
<path d="M4.51999 17.55H23.83C26.68 17.55 29 15.24 29 12.38V11.84C29 8.99001 26.69 6.67001 23.83 6.67001C20.98 6.67001 18.66 8.98001 18.66 11.84V12.87" stroke="#609DFF" stroke-width="2" stroke-linecap="square" stroke-linejoin="round"/>
<path d="M4.51999 24H38.31C41.16 24 43.48 21.69 43.48 18.83V18.29C43.48 15.44 41.17 13.12 38.31 13.12C35.46 13.12 33.14 15.43 33.14 18.29V19.32" stroke="#609DFF" stroke-width="2" stroke-linecap="square" stroke-linejoin="round"/>
</svg>
