<svg width="48" height="48" viewBox="0 0 48 48" fill="none" xmlns="http://www.w3.org/2000/svg">
<path d="M27.34 19.78L36.4 33.5" stroke="#6C9FFF" stroke-width="2" stroke-linejoin="round"/>
<path d="M15.08 33.5L24.14 19.78" stroke="#6C9FFF" stroke-width="2" stroke-linejoin="round"/>
<path d="M25.74 36.72V19.78" stroke="#6C9FFF" stroke-width="2" stroke-linejoin="round"/>
<path d="M25.74 12.03C27.9823 12.03 29.8 10.2123 29.8 7.97C29.8 5.72773 27.9823 3.91 25.74 3.91C23.4977 3.91 21.68 5.72773 21.68 7.97C21.68 10.2123 23.4977 12.03 25.74 12.03Z" stroke="#6C9FFF" stroke-width="2" stroke-linejoin="round"/>
<path d="M38.21 12.75H19.74V19.78H38.21V12.75Z" stroke="#6C9FFF" stroke-width="2" stroke-linejoin="round"/>
<path d="M44.7 14.4H38.21V18.13H44.7V14.4Z" stroke="#6C9FFF" stroke-width="2" stroke-linejoin="round"/>
<path d="M39.38 31.07C36.5 33.95 32.69 35.91 28.46 36.51C27.57 36.64 26.67 36.72 25.74 36.72C24.81 36.72 23.91 36.63 23.02 36.51C18.78 35.91 14.98 33.96 12.1 31.07L8.32999 34.84C12.33 38.39 17.41 40.73 23.03 41.31V44.08H28.46V41.31C34.07 40.73 39.16 38.39 43.16 34.84L39.39 31.07H39.38Z" stroke="#6C9FFF" stroke-width="2" stroke-linejoin="round"/>
<path d="M6.37 21.13L8.83 15.73L11.3 21.13" stroke="#6C9FFF" stroke-width="2" stroke-linecap="round" stroke-linejoin="round"/>
<path d="M4.39001 12.47L8.83001 15.73L3.29001 17.28" stroke="#6C9FFF" stroke-width="2" stroke-linecap="round" stroke-linejoin="round"/>
<path d="M13.28 12.47L8.83002 15.73L14.38 17.28" stroke="#6C9FFF" stroke-width="2" stroke-linecap="round" stroke-linejoin="round"/>
<path d="M8.83002 10.33V15.73" stroke="#6C9FFF" stroke-width="2" stroke-linecap="round" stroke-linejoin="round"/>
</svg>
