<svg width="48" height="48" viewBox="0 0 48 48" fill="none" xmlns="http://www.w3.org/2000/svg">
<path d="M43.89 24.83C39.1 18.8 31.72 15.42 24.02 15.75C22.79 15.74 21.58 16 20.46 16.51C21.7 12.78 24 9.49001 27.08 7.04001C27.94 6.44001 28.15 5.25001 27.55 4.39001C26.95 3.53001 25.76 3.32001 24.9 3.92001C24.84 3.96001 24.78 4.01001 24.72 4.06001C18.69 8.84001 15.32 16.23 15.64 23.91C15.64 25.14 15.9 26.36 16.42 27.48C12.68 26.24 9.39002 23.94 6.94002 20.86C6.29002 20.04 5.09002 19.9 4.27002 20.55C3.45002 21.2 3.31002 22.4 3.96002 23.22C8.75002 29.25 16.13 32.62 23.81 32.29C25.04 32.29 26.26 32.03 27.38 31.51C26.14 35.25 23.84 38.54 20.76 40.99C19.94 41.64 19.8 42.84 20.45 43.66C21.1 44.48 22.3 44.62 23.12 43.97C29.15 39.18 32.53 31.8 32.2 24.1C32.21 22.87 31.95 21.66 31.44 20.54C35.18 21.78 38.47 24.08 40.92 27.16C41.48 28.05 42.65 28.32 43.54 27.77C44.43 27.22 44.7 26.04 44.15 25.15C44.07 25.02 43.98 24.91 43.88 24.81L43.89 24.83Z" stroke="#6C9FFF" stroke-width="2" stroke-linejoin="round"/>
<path d="M24.07 20.25V27.75" stroke="#6C9FFF" stroke-width="2" stroke-linecap="round" stroke-linejoin="round"/>
<path d="M27.81 24H20.32" stroke="#6C9FFF" stroke-width="2" stroke-linecap="round" stroke-linejoin="round"/>
</svg>
