<svg width="48" height="48" viewBox="0 0 48 48" fill="none" xmlns="http://www.w3.org/2000/svg">
<path d="M11.55 26.59C9.39 26.59 7.32 25.73 5.79 24.21C4.26 22.68 3.41 20.61 3.41 18.45C3.41 16.29 4.27 14.22 5.79 12.69C7.32 11.16 9.39 10.31 11.55 10.31V10.26C12.64 10.26 13.72 10.48 14.71 10.91C15.7 8.86999 17.28 7.16999 19.25 6.03999C21.22 4.90999 23.49 4.40999 25.75 4.58999C28.01 4.77999 30.17 5.63999 31.93 7.06999C33.69 8.49999 34.98 10.44 35.62 12.61C36.32 12.38 37.04 12.27 37.77 12.27C39.61 12.36 41.34 13.15 42.61 14.49C43.88 15.82 44.59 17.59 44.59 19.43C44.59 21.27 43.88 23.04 42.61 24.37C41.34 25.7 39.61 26.5 37.77 26.59H36.08" stroke="#6C9FFF" stroke-width="2" stroke-linejoin="round"/>
<path d="M24 24.08C30.6716 24.08 36.08 22.2981 36.08 20.1C36.08 17.9019 30.6716 16.12 24 16.12C17.3284 16.12 11.92 17.9019 11.92 20.1C11.92 22.2981 17.3284 24.08 24 24.08Z" stroke="#6C9FFF" stroke-width="2" stroke-miterlimit="10"/>
<path d="M24 24.08C17.33 24.08 11.92 22.3 11.92 20.1V39.47C11.92 41.67 17.33 43.45 24 43.45C30.67 43.45 36.08 41.67 36.08 39.47V20.1C36.08 22.3 30.67 24.08 24 24.08V24.08Z" stroke="#6C9FFF" stroke-width="2" stroke-miterlimit="10"/>
<path d="M36.08 29.79C36.08 31.99 30.67 33.77 24 33.77C17.33 33.77 11.85 31.99 11.92 29.79" stroke="#6C9FFF" stroke-width="2" stroke-miterlimit="10"/>
</svg>
