<svg width="20" height="21" viewBox="0 0 20 21" fill="none" xmlns="http://www.w3.org/2000/svg">
<path fill-rule="evenodd" clip-rule="evenodd" d="M6.855 11.6121C7.28544 11.6121 8.14224 11.589 9.32493 11.1015C10.7045 10.5339 13.4487 9.50333 15.4271 8.4442C16.8121 7.70417 17.4177 6.72381 17.4177 5.40533C17.4177 3.57495 15.9336 2.09082 14.1032 2.09082H6.43271C3.80256 2.09082 1.67209 4.22264 1.67209 6.85144C1.67209 9.48024 3.66949 11.6121 6.855 11.6121Z" fill="#3A594D"/>
<path fill-rule="evenodd" clip-rule="evenodd" d="M8.15311 14.8898C8.15311 13.6012 8.92844 12.4389 10.1193 11.9447L12.5349 10.9426C14.9777 9.92826 17.6676 11.7247 17.6676 14.3698C17.6676 16.4188 16.0056 18.0808 13.9566 18.0794H11.3413C9.58021 18.0781 8.15311 16.651 8.15311 14.8898Z" fill="#BD8FC0"/>
<path d="M4.41902 12.2393C2.90366 12.2393 1.6748 13.4681 1.6748 14.9835V15.3392C1.6748 16.8546 2.90366 18.0834 4.41902 18.0834C5.93438 18.0834 7.16324 16.8546 7.16324 15.3392V14.9835C7.16324 13.4681 5.93438 12.2393 4.41902 12.2393Z" fill="#EE765C"/>
</svg>
