<svg width="40" height="41" viewBox="0 0 40 41" fill="none" xmlns="http://www.w3.org/2000/svg">
<rect y="0.5" width="40" height="40" rx="6" fill="#188BF5"/>
<path d="M20.9666 24.2294H19.9453C19.9165 24.2294 19.8881 24.2237 19.8615 24.2127C19.835 24.2017 19.8109 24.1856 19.7905 24.1653C19.7702 24.145 19.7541 24.1208 19.7431 24.0943C19.7321 24.0677 19.7264 24.0393 19.7264 24.0106V21.433C19.7264 21.4008 19.7136 21.3699 19.6908 21.3471C19.668 21.3243 19.6371 21.3115 19.6049 21.3115H10.2188C10.1608 21.3115 10.1051 21.2884 10.0641 21.2474C10.0231 21.2063 10 21.1507 10 21.0926V11.8185C10 11.7604 10.0231 11.7047 10.0641 11.6637C10.1051 11.6227 10.1608 11.5996 10.2188 11.5996H20.9666C20.9953 11.5996 21.0238 11.6053 21.0503 11.6163C21.0769 11.6273 21.101 11.6434 21.1213 11.6637C21.1416 11.684 21.1578 11.7082 21.1688 11.7347C21.1797 11.7613 21.1854 11.7897 21.1854 11.8185V19.7455C21.1854 19.7778 21.1982 19.8087 21.221 19.8315C21.2438 19.8543 21.2747 19.8671 21.307 19.8671H28.7477C28.7765 19.8671 28.8049 19.8727 28.8315 19.8837C28.858 19.8947 28.8821 19.9109 28.9025 19.9312C28.9228 19.9515 28.9389 19.9756 28.9499 20.0022C28.9609 20.0287 28.9666 20.0572 28.9666 20.0859V21.1072C28.9666 21.1652 28.9435 21.2209 28.9025 21.262C28.8614 21.303 28.8058 21.3261 28.7477 21.3261H21.307C21.2747 21.3261 21.2438 21.3389 21.221 21.3617C21.1982 21.3845 21.1854 21.4154 21.1854 21.4476V24.0251C21.1817 24.0806 21.157 24.1326 21.1164 24.1705C21.0757 24.2085 21.0222 24.2295 20.9666 24.2294ZM11.5562 19.8525H19.6292C19.655 19.8525 19.6797 19.8422 19.698 19.824C19.7162 19.8058 19.7264 19.781 19.7264 19.7552V13.1558C19.7264 13.13 19.7162 13.1053 19.698 13.0871C19.6797 13.0688 19.655 13.0586 19.6292 13.0586H11.5562C11.5304 13.0586 11.5057 13.0688 11.4875 13.0871C11.4692 13.1053 11.459 13.13 11.459 13.1558V19.7698C11.4625 19.793 11.4743 19.8142 11.4921 19.8293C11.51 19.8445 11.5328 19.8528 11.5562 19.8525Z" fill="white"/>
<path d="M20.4559 29.1074C21.396 29.1074 22.158 28.3453 22.158 27.4053C22.158 26.4652 21.396 25.7031 20.4559 25.7031C19.5159 25.7031 18.7538 26.4652 18.7538 27.4053C18.7538 28.3453 19.5159 29.1074 20.4559 29.1074Z" fill="white"/>
</svg>
