<svg width="20" height="20" viewBox="0 0 20 20" fill="none" xmlns="http://www.w3.org/2000/svg">
<g clip-path="url(#clip0_3396_3181)">
<path d="M19.8764 14.4278C19.8245 14.232 19.7404 14.0462 19.6276 13.8779C19.6518 13.7893 19.6703 13.6992 19.6825 13.6082C19.7626 13.0308 19.5624 12.5022 19.1852 12.0933C18.9809 11.8699 18.7619 11.7223 18.5299 11.6318C18.6821 10.9803 18.7591 10.3135 18.7595 9.64456C18.7595 9.33896 18.7422 9.03964 18.7133 8.74476C18.6982 8.59751 18.6799 8.45065 18.6585 8.30418C18.5921 7.872 18.4935 7.44534 18.3637 7.02785C18.2786 6.75352 18.1801 6.4835 18.0686 6.21877C17.9016 5.82671 17.7065 5.44717 17.4849 5.08312C17.3396 4.84089 17.1814 4.60667 17.0108 4.38147C16.9273 4.26775 16.8402 4.15672 16.7496 4.04853C16.4812 3.72234 16.1895 3.41603 15.8768 3.132C15.773 3.03652 15.6662 2.9443 15.5565 2.85548C15.4486 2.76546 15.3383 2.67835 15.2257 2.59423C14.9991 2.42559 14.765 2.26739 14.5241 2.12012C13.1926 1.31142 11.6311 0.847656 9.96224 0.847656C5.10311 0.847656 1.16494 4.78601 1.16494 9.64485C1.16475 10.3223 1.2432 10.9975 1.39876 11.6568C1.19006 11.7475 0.990063 11.8887 0.804556 12.0931C0.427455 12.5019 0.227165 13.0285 0.307262 13.6059C0.319435 13.6976 0.337696 13.7884 0.362044 13.8777C0.249397 14.0461 0.165397 14.232 0.113445 14.4278C-0.00249694 14.8685 0.0356673 15.2659 0.18301 15.6141C0.022817 16.0692 0.0628171 16.5538 0.271416 16.9752C0.423107 17.2829 0.640208 17.521 0.907841 17.7337C1.22601 17.9867 1.62427 18.2016 2.10465 18.4078C2.67779 18.6522 3.37741 18.8819 3.69557 18.9661C4.51741 19.1789 5.30543 19.3137 6.10407 19.3203C7.24195 19.3308 8.22185 19.0633 8.9234 18.3786C9.26803 18.4208 9.61499 18.442 9.96224 18.4418C10.3291 18.441 10.6956 18.4179 11.0596 18.3727C11.7595 19.0618 12.7432 19.3317 13.8852 19.3209C14.6838 19.3145 15.4718 19.1796 16.2915 18.9666C16.6118 18.8823 17.3111 18.6527 17.8846 18.4082C18.3649 18.2018 18.7632 17.9869 19.0835 17.7343C19.3491 17.5215 19.566 17.2835 19.7178 16.9758C19.9285 16.5543 19.9664 16.0697 19.8084 15.6146C19.9543 15.2664 19.9923 14.8681 19.8764 14.4278ZM19.061 15.5847C19.2224 15.891 19.2328 16.2372 19.0904 16.5596C18.8743 17.0482 18.3377 17.4332 17.2955 17.8464C16.6474 18.1034 16.0539 18.2678 16.0487 18.2692C15.1915 18.4915 14.4162 18.6045 13.7451 18.6045C12.6338 18.6045 11.8069 18.2978 11.2824 17.6922C10.3956 17.8433 9.49006 17.8484 8.60156 17.7075C8.07644 18.303 7.25422 18.6045 6.15229 18.6045C5.48108 18.6045 4.70591 18.4915 3.84861 18.2692C3.8434 18.2678 3.25016 18.1034 2.60185 17.8464C1.55973 17.4332 1.02291 17.0485 0.806972 16.5596C0.664556 16.2372 0.674894 15.891 0.836343 15.5847C0.851223 15.5562 0.867262 15.5284 0.884363 15.5016C0.787609 15.3563 0.722711 15.1921 0.693928 15.0198C0.665155 14.8477 0.673155 14.6713 0.717406 14.5024C0.781561 14.2587 0.914025 14.056 1.09393 13.9104C1.00726 13.7679 0.950402 13.6095 0.926778 13.4445C0.874991 13.0856 0.994121 12.7274 1.26204 12.4352C1.47074 12.2078 1.76572 12.0827 2.09229 12.0827H2.10098C1.85475 11.2935 1.72991 10.4713 1.73074 9.64456C1.73074 5.13529 5.38639 1.47935 9.89634 1.47935C14.4062 1.47935 18.0619 5.1349 18.0619 9.64456C18.0625 10.4735 17.9368 11.2978 17.689 12.0889C17.7284 12.085 17.7671 12.0831 17.805 12.083C18.1316 12.083 18.4267 12.2081 18.6352 12.4355C18.9031 12.7274 19.0223 13.0859 18.9704 13.4448C18.9469 13.6098 18.89 13.7682 18.8034 13.9107C18.9833 14.0563 19.1159 14.259 19.1799 14.5027C19.2242 14.6716 19.2322 14.8479 19.2034 15.0202C19.1747 15.1924 19.1098 15.3565 19.013 15.5019C19.0301 15.5284 19.0463 15.5562 19.061 15.5847Z" fill="#090909"/>
<path d="M19.013 15.5018C19.1098 15.3565 19.1747 15.1923 19.2035 15.0202C19.2322 14.8479 19.2242 14.6716 19.1799 14.5027C19.1158 14.2589 18.9832 14.0562 18.8034 13.9106C18.8901 13.7682 18.9469 13.6097 18.9704 13.4447C19.0223 13.0859 18.9032 12.7276 18.6352 12.4354C18.4267 12.2081 18.1316 12.083 17.805 12.083C17.7671 12.083 17.7284 12.085 17.689 12.0889C17.9365 11.2977 18.062 10.4736 18.0612 9.6447C18.0612 5.13534 14.4055 1.47949 9.89604 1.47949C5.38648 1.47949 1.73043 5.13495 1.73043 9.6447C1.72962 10.4715 1.85446 11.2936 2.10068 12.0829H2.09198C1.76541 12.0829 1.47044 12.2079 1.26184 12.4352C0.993918 12.7271 0.874681 13.0858 0.926565 13.4445C0.950208 13.6095 1.00707 13.7681 1.09372 13.9105C0.913812 14.056 0.781261 14.2587 0.717107 14.5025C0.672875 14.6715 0.664904 14.8478 0.693715 15.0201C0.722527 15.1922 0.787454 15.3565 0.884247 15.5018C0.867049 15.5287 0.851203 15.5564 0.836227 15.5849C0.674875 15.8913 0.66445 16.2375 0.806962 16.5599C1.023 17.0485 1.55961 17.4334 2.60183 17.8466C3.24985 18.1036 3.84339 18.268 3.8486 18.2694C4.7058 18.4918 5.48107 18.6047 6.15218 18.6047C7.25421 18.6047 8.07643 18.3033 8.60155 17.7077C9.49005 17.8487 10.3956 17.8434 11.2824 17.6924C11.8069 18.298 12.6338 18.6047 13.7451 18.6047C14.4162 18.6047 15.1915 18.4918 16.0486 18.2694C16.0539 18.268 16.6472 18.1036 17.2955 17.8466C18.3377 17.4334 18.8744 17.0485 19.0903 16.5599C19.2328 16.2375 19.2224 15.8913 19.061 15.5849C19.0463 15.5562 19.0301 15.5284 19.013 15.5018ZM8.2258 16.7753C8.18058 16.8544 8.13218 16.9316 8.08068 17.0066C7.94493 17.2054 7.76638 17.3573 7.55914 17.4701C7.16299 17.6861 6.66155 17.7616 6.15218 17.7616C5.34745 17.7616 4.52252 17.5733 4.0602 17.4534C4.0374 17.4475 1.226 16.6534 1.58194 15.9775C1.64184 15.8637 1.74038 15.8183 1.86454 15.8183C2.3657 15.8183 3.27826 16.5646 3.67043 16.5646C3.75806 16.5646 3.8199 16.5273 3.84512 16.4363C4.01227 15.8369 1.30473 15.5849 1.53275 14.7169C1.57294 14.5633 1.68213 14.5008 1.83556 14.5008C2.49817 14.5007 3.98532 15.6661 4.29633 15.6661C4.3202 15.6661 4.33729 15.659 4.34657 15.6443C4.34792 15.6421 4.34928 15.64 4.35054 15.6376C4.49653 15.3966 4.41275 15.2213 3.41265 14.6088L3.31661 14.5503C2.21603 13.8842 1.44357 13.4833 1.88289 13.0051C1.93343 12.9499 2.00512 12.9255 2.09217 12.9255C2.19536 12.9255 2.32029 12.96 2.45787 13.0179C3.03913 13.2631 3.84474 13.9316 4.18126 14.2231C4.2342 14.269 4.2868 14.3155 4.33903 14.3623C4.33903 14.3623 4.76513 14.8054 5.02271 14.8054C5.08203 14.8054 5.13236 14.782 5.16647 14.7242C5.34918 14.4162 3.46956 12.9918 3.36357 12.4041C3.29169 12.006 3.41401 11.8042 3.64009 11.8042C3.74763 11.8042 3.87884 11.85 4.02367 11.9419C4.47294 12.227 5.34038 13.7176 5.65797 14.2976C5.76444 14.4918 5.94618 14.574 6.10995 14.574C6.43488 14.574 6.68888 14.251 6.13971 13.8405C5.31429 13.223 5.60397 12.2135 5.99788 12.1514C6.01469 12.1487 6.03169 12.1473 6.04859 12.1473C6.40686 12.1473 6.56483 12.7646 6.56483 12.7646C6.56483 12.7646 7.02801 13.9277 7.82368 14.7228C8.54561 15.4444 8.64648 16.0366 8.2258 16.7753ZM10.7987 16.9116L10.7574 16.9165L10.6871 16.9245C10.6501 16.9284 10.613 16.932 10.5758 16.9354L10.5395 16.9387L10.5064 16.9415L10.4594 16.9453L10.4075 16.949L10.3558 16.9524L10.3443 16.9532C10.3307 16.954 10.3172 16.9548 10.3035 16.9555L10.2862 16.9565C10.2702 16.9574 10.2541 16.9581 10.2379 16.9588L10.1817 16.9612L10.1308 16.963L10.0968 16.9639H10.0795C10.0689 16.9639 10.0584 16.9645 10.0477 16.9646H10.0309C10.0203 16.9646 10.0098 16.9646 9.99914 16.9651L9.95585 16.9657H9.89546C9.84802 16.9657 9.80068 16.9652 9.75353 16.9642L9.71527 16.9633C9.70435 16.9633 9.69344 16.9629 9.68271 16.9625L9.64213 16.9613L9.59179 16.9594L9.54638 16.9574L9.53469 16.9569L9.4915 16.9547C9.47943 16.954 9.46754 16.9534 9.45556 16.9525L9.42764 16.9509C9.39256 16.9487 9.35749 16.9462 9.32242 16.9435L9.28571 16.9405C9.27025 16.9394 9.25479 16.9379 9.23943 16.9366C9.22136 16.935 9.20329 16.9333 9.18522 16.9316C9.15498 16.9288 9.12474 16.9257 9.0945 16.9224H9.09305C9.53459 15.9374 9.31131 15.0174 8.41904 14.1259C7.83382 13.5414 7.44455 12.6784 7.36377 12.489C7.20028 11.9281 6.76764 11.3046 6.04909 11.3046C5.98831 11.3046 5.92764 11.3094 5.86764 11.3189C5.55286 11.3685 5.27769 11.5496 5.08136 11.8223C4.86918 11.5584 4.663 11.3487 4.47653 11.2302C4.19537 11.0519 3.91478 10.9615 3.64144 10.9615C3.30029 10.9615 2.99536 11.1016 2.7828 11.3557L2.77739 11.3622C2.77333 11.3455 2.76946 11.3288 2.7655 11.3119L2.76502 11.3097C2.72457 11.1368 2.6906 10.9624 2.66318 10.7868C2.66318 10.7857 2.66318 10.7845 2.6626 10.7833C2.66048 10.7701 2.65855 10.7568 2.65652 10.7435C2.65058 10.7043 2.645 10.665 2.6398 10.6257C2.63748 10.6078 2.63497 10.5899 2.63275 10.572L2.62618 10.5184C2.62405 10.5005 2.62231 10.4843 2.62038 10.4673L2.61981 10.4631C2.61209 10.3935 2.60533 10.3239 2.59951 10.2542L2.59739 10.2274L2.59401 10.1818C2.59304 10.1693 2.59207 10.1568 2.5914 10.1442C2.5914 10.1412 2.59091 10.1383 2.59082 10.1355C2.58836 10.1005 2.58627 10.0655 2.58454 10.0304C2.58357 10.0121 2.5826 9.99398 2.58183 9.97562L2.5799 9.9277L2.57942 9.9132L2.57787 9.86905L2.5769 9.83146C2.5769 9.81649 2.57613 9.80151 2.57594 9.78654C2.57565 9.77156 2.57526 9.75514 2.57516 9.73929C2.57497 9.72344 2.57516 9.70779 2.57468 9.69204C2.5743 9.6762 2.57468 9.66045 2.57468 9.6447C2.57468 5.60094 5.85304 2.32258 9.8972 2.32258C13.9413 2.32258 17.2195 5.60085 17.2195 9.6447V9.73929C17.2195 9.75504 17.219 9.77088 17.2188 9.78654C17.2188 9.79958 17.2182 9.81243 17.2178 9.82567C17.2178 9.83726 17.2173 9.84895 17.2169 9.86016C17.2169 9.87494 17.216 9.88972 17.2156 9.90451V9.90567L17.2135 9.95697C17.2129 9.97195 17.2123 9.98702 17.2115 10.002L17.211 10.0126L17.2084 10.0605C17.2027 10.1633 17.1949 10.2658 17.1851 10.3682V10.3694C17.1835 10.3862 17.1818 10.4031 17.18 10.4199L17.1757 10.4596L17.1671 10.5373L17.1621 10.5766L17.156 10.6229C17.1538 10.6397 17.1516 10.6566 17.1491 10.6733C17.1466 10.6921 17.1438 10.7109 17.141 10.7296L17.1343 10.774L17.1264 10.8242C17.1237 10.8409 17.1208 10.8575 17.1177 10.8742C17.1145 10.8909 17.112 10.9075 17.1091 10.9241C17.1033 10.9574 17.0972 10.9906 17.0908 11.0237C17.0811 11.0733 17.0711 11.1228 17.0609 11.1722L17.0502 11.2212C17.0468 11.2375 17.043 11.254 17.0393 11.2703C16.8332 11.07 16.5603 10.9609 16.2593 10.9609C15.9862 10.9609 15.7053 11.0513 15.4243 11.2295C15.2378 11.348 15.0317 11.5578 14.8194 11.8216C14.6228 11.549 14.3476 11.3678 14.033 11.3182C13.973 11.3088 13.9124 11.3039 13.8516 11.3039C13.1329 11.3039 12.7005 11.9274 12.5369 12.4883C12.4558 12.6777 12.0664 13.5407 11.4807 14.1261C10.589 15.0147 10.3641 15.9306 10.7987 16.9116ZM18.3582 14.9397L18.3553 14.9483C18.3479 14.9677 18.3394 14.9866 18.3299 15.005C18.3226 15.0185 18.3148 15.0317 18.3063 15.0444C18.2901 15.0685 18.2725 15.0915 18.2532 15.1131C18.2488 15.1181 18.2445 15.1232 18.2395 15.1281C18.2326 15.1355 18.2255 15.1429 18.2183 15.15C18.0882 15.2789 17.89 15.3919 17.6658 15.4956C17.6404 15.5071 17.6146 15.5186 17.5886 15.5302L17.5627 15.5417C17.5454 15.5493 17.5281 15.5569 17.51 15.5643C17.4927 15.5718 17.4747 15.5794 17.4567 15.5867L17.4028 15.609C17.2767 15.6608 17.1475 15.7103 17.0216 15.7591L16.9676 15.7801L16.9144 15.8009C16.8789 15.8147 16.844 15.8286 16.8096 15.8424L16.7583 15.8631L16.7078 15.8836L16.6831 15.8941C16.6666 15.9009 16.6504 15.9078 16.6343 15.9147C16.2636 16.0738 15.9968 16.2356 16.0529 16.4364C16.0544 16.4421 16.0561 16.4475 16.0581 16.4528C16.0631 16.4677 16.07 16.4817 16.0786 16.4949C16.0836 16.5028 16.0894 16.5102 16.0958 16.517C16.1617 16.5855 16.2816 16.5747 16.4329 16.5203C16.4541 16.5124 16.4753 16.5043 16.4962 16.4958L16.5094 16.4904C16.544 16.4757 16.5806 16.4593 16.618 16.4415C16.6273 16.4371 16.6368 16.4328 16.6463 16.4279C16.8312 16.3375 17.0408 16.2157 17.2487 16.1049C17.3319 16.06 17.4162 16.0174 17.5016 15.9769C17.6986 15.8842 17.8837 15.8185 18.0325 15.8185C18.1023 15.8185 18.164 15.8328 18.2154 15.8657L18.224 15.8714C18.2562 15.8941 18.2833 15.9233 18.3035 15.9571C18.3074 15.9635 18.3113 15.9704 18.3151 15.9775C18.3886 16.1171 18.3271 16.2616 18.183 16.4033C18.0447 16.5395 17.8297 16.6729 17.5852 16.7964C17.5671 16.8056 17.5489 16.8147 17.5304 16.8237C16.8029 17.181 15.8502 17.4501 15.8369 17.4535C15.583 17.5193 15.2199 17.6057 14.8108 17.6703L14.7503 17.6798L14.7404 17.6812C14.6946 17.6882 14.6487 17.6947 14.6027 17.7006C14.556 17.7069 14.5089 17.7126 14.4615 17.7179L14.4528 17.7189C14.2808 17.7387 14.1081 17.7519 13.9351 17.7581H13.9326C13.87 17.7604 13.8074 17.7615 13.7448 17.7615H13.6727C13.5772 17.7603 13.4819 17.7559 13.3868 17.7486C13.3845 17.7486 13.3821 17.7486 13.3799 17.748C13.3458 17.7454 13.3118 17.7422 13.2778 17.7384C13.2425 17.7347 13.2073 17.7304 13.1723 17.7257C13.1492 17.7226 13.1262 17.7191 13.1032 17.7153C13.0798 17.7116 13.0564 17.7077 13.0331 17.7036L13.0014 17.6976L12.9989 17.6972C12.9654 17.6908 12.9321 17.6837 12.8988 17.676C12.8795 17.6717 12.8603 17.6674 12.8413 17.6622L12.8298 17.6593C12.8203 17.657 12.8111 17.6545 12.8017 17.6519L12.7966 17.6506L12.7669 17.6419C12.756 17.6389 12.7452 17.6356 12.7344 17.6324L12.7306 17.6314L12.7025 17.6228C12.6919 17.6195 12.6813 17.616 12.6707 17.6125L12.6448 17.6039L12.6258 17.5973C12.6074 17.5908 12.5892 17.5841 12.5711 17.5772L12.5539 17.5704L12.5397 17.5648C12.5123 17.5538 12.485 17.5423 12.4581 17.5302L12.4402 17.5215L12.4372 17.5202C12.4308 17.5172 12.4245 17.5142 12.4182 17.5116C12.4057 17.5056 12.3933 17.4994 12.3811 17.4931L12.3773 17.4913L12.3595 17.4819C12.3279 17.4654 12.297 17.4478 12.2667 17.4291L12.2501 17.4189C12.2417 17.4138 12.2334 17.4085 12.2253 17.4031L12.2037 17.3888L12.1804 17.3727L12.1665 17.3628C12.1518 17.3523 12.1374 17.3415 12.1233 17.3304L12.1008 17.3131C12.0918 17.3059 12.0829 17.2985 12.0741 17.2911C12.0667 17.285 12.0594 17.2786 12.0522 17.2722L12.0516 17.2718C12.0438 17.2649 12.0361 17.258 12.0285 17.251C12.021 17.2441 12.0134 17.2372 12.0061 17.2301L12.0052 17.2292C11.9975 17.2219 11.99 17.2145 11.9825 17.2068C11.9751 17.1993 11.9674 17.1918 11.9602 17.184C11.953 17.1764 11.9455 17.1686 11.9384 17.1605C11.9312 17.1526 11.9246 17.1454 11.9179 17.1376L11.9157 17.1349C11.9091 17.1274 11.9026 17.1198 11.8962 17.1119C11.8824 17.0954 11.869 17.0785 11.856 17.0612C11.843 17.0438 11.8302 17.0261 11.8178 17.008L11.8059 16.9902C11.7901 16.967 11.7746 16.9436 11.7596 16.9199C11.7484 16.9028 11.7375 16.8856 11.7269 16.8681C11.72 16.8572 11.7134 16.8461 11.7069 16.8353L11.7042 16.8309C11.6979 16.8203 11.6917 16.8098 11.6857 16.7993C11.6822 16.7936 11.6789 16.7879 11.6759 16.782C11.6727 16.776 11.669 16.7699 11.6656 16.7638L11.6601 16.7543L11.6567 16.7481C11.6502 16.7365 11.6439 16.7248 11.6377 16.713C11.6348 16.7078 11.632 16.7026 11.629 16.6976L11.6204 16.6808L11.6117 16.6643C11.59 16.6208 11.5694 16.5768 11.5501 16.5321L11.5432 16.5158C11.5387 16.5049 11.5346 16.4941 11.5302 16.4833C11.528 16.4781 11.5259 16.473 11.5241 16.4678C11.5137 16.441 11.5041 16.414 11.4952 16.3867C11.492 16.377 11.4889 16.3674 11.486 16.3577C11.479 16.3358 11.4728 16.3137 11.4672 16.2914C11.4603 16.2654 11.4542 16.2392 11.4491 16.2128C11.448 16.2075 11.447 16.2022 11.4461 16.1971C11.4411 16.1713 11.437 16.1453 11.4338 16.1192C11.433 16.1141 11.4325 16.109 11.4319 16.1038L11.4302 16.0882C11.4281 16.0677 11.4265 16.0471 11.4255 16.0265C11.4255 16.0213 11.425 16.0161 11.4248 16.0111C11.4244 16.0008 11.4242 15.9906 11.4241 15.9804C11.4187 15.5675 11.6275 15.1706 12.0742 14.7241C12.8699 13.9292 13.333 12.7661 13.333 12.7661C13.333 12.7661 13.3455 12.7173 13.3714 12.647C13.375 12.6373 13.3787 12.6272 13.383 12.6167C13.3981 12.5774 13.4151 12.5387 13.4339 12.501L13.4377 12.4938C13.4537 12.4617 13.4713 12.4304 13.4902 12.4C13.4947 12.3929 13.4989 12.386 13.5039 12.3789C13.5181 12.3579 13.533 12.3375 13.5488 12.3176C13.5574 12.3069 13.5668 12.2963 13.5761 12.286C13.5799 12.2819 13.5836 12.2778 13.5875 12.274C13.6336 12.2263 13.6863 12.1875 13.7459 12.1668L13.7534 12.1643C13.7585 12.1627 13.7635 12.1611 13.7686 12.1597C13.7745 12.1581 13.7804 12.1568 13.7865 12.1555L13.7893 12.1549C13.8018 12.1524 13.8146 12.1508 13.8274 12.1499H13.8285C13.8352 12.1499 13.8419 12.1492 13.8488 12.1492C13.8574 12.1492 13.8654 12.1492 13.8738 12.1501C13.8825 12.1509 13.8911 12.1518 13.8998 12.1532C13.9715 12.1646 14.0397 12.2073 14.0985 12.2732C14.1208 12.2983 14.1409 12.3254 14.1585 12.354C14.1701 12.3725 14.181 12.3921 14.1913 12.4128C14.1955 12.4214 14.1994 12.4293 14.2033 12.4378C14.2133 12.4597 14.2224 12.4819 14.2303 12.5046C14.2492 12.5577 14.2634 12.6124 14.2728 12.6681C14.2809 12.7169 14.2857 12.7661 14.2873 12.8155C14.288 12.8419 14.288 12.8687 14.2873 12.8956C14.282 13.021 14.2563 13.1448 14.2112 13.262C14.2072 13.2727 14.2026 13.2835 14.1983 13.2944C14.1894 13.3162 14.1796 13.3376 14.1691 13.3586C14.1613 13.3746 14.153 13.3906 14.1442 13.4065C14.1384 13.4172 14.1323 13.4278 14.1262 13.4384C14.1106 13.4649 14.0938 13.4912 14.0758 13.5174L14.0648 13.533C14.0221 13.5925 13.9746 13.6484 13.9226 13.7C13.8714 13.7513 13.8165 13.7987 13.7585 13.842C13.7003 13.8851 13.6457 13.9328 13.5953 13.9847C13.4501 14.1371 13.4162 14.2716 13.4489 14.3735C13.4541 14.3895 13.461 14.4051 13.4693 14.4198C13.479 14.4366 13.4906 14.452 13.5038 14.4661L13.5089 14.4715L13.5141 14.4767C13.5193 14.4817 13.5248 14.4866 13.5307 14.4915L13.5365 14.4961C13.5505 14.5069 13.5654 14.5166 13.581 14.5251C13.5855 14.5275 13.5896 14.5299 13.5947 14.5322C13.6115 14.5404 13.6288 14.5475 13.6466 14.5532C13.6515 14.5548 13.6564 14.5563 13.6615 14.5578L13.6677 14.5595L13.6764 14.5618L13.6839 14.5636L13.692 14.5654L13.7 14.567L13.7076 14.5683C13.7132 14.5692 13.719 14.5702 13.7248 14.5709L13.7303 14.5718L13.7404 14.5727L13.7466 14.5734L13.7567 14.5741H13.7627L13.7733 14.5747H13.8068L13.8163 14.5741L13.8273 14.5734L13.8408 14.5721L13.8533 14.5707C13.8562 14.5707 13.8591 14.5699 13.862 14.5693C13.9007 14.5637 13.9386 14.5535 13.9748 14.5388L13.9902 14.5323C13.9987 14.5286 14.0074 14.5246 14.0154 14.5204C14.0324 14.5119 14.0489 14.5022 14.0647 14.4917C14.0869 14.4772 14.1077 14.4609 14.1273 14.4431C14.1319 14.4389 14.1364 14.4345 14.1409 14.4302C14.1431 14.4281 14.1452 14.4261 14.1473 14.4237C14.1516 14.4194 14.1559 14.4151 14.1602 14.4104C14.1911 14.3764 14.2179 14.3389 14.2399 14.2986C14.429 13.9547 14.6272 13.616 14.8342 13.2828L14.8626 13.2373L14.8913 13.1918C14.9056 13.1687 14.9201 13.146 14.9345 13.1233L14.949 13.1007C14.9971 13.0254 15.046 12.9505 15.0958 12.8762L15.1252 12.8321C15.1844 12.7445 15.2433 12.6593 15.3017 12.5783L15.3308 12.5382C15.3944 12.4506 15.4606 12.3648 15.5293 12.2811L15.5565 12.2485C15.5611 12.2431 15.5652 12.2376 15.5702 12.2324C15.5791 12.2218 15.5881 12.2115 15.5969 12.2014C15.6014 12.1963 15.6055 12.1913 15.6102 12.1862L15.6361 12.1571L15.6491 12.1429C15.6621 12.1289 15.6749 12.1154 15.6874 12.1026C15.6961 12.0939 15.7042 12.0853 15.7125 12.0772C15.7615 12.0271 15.8155 11.9822 15.8737 11.9433L15.8873 11.9346C15.9002 11.9259 15.9136 11.9177 15.9273 11.9104C16.1558 11.7807 16.3448 11.7712 16.4537 11.8801C16.5196 11.946 16.5561 12.0552 16.5541 12.2073C16.5541 12.214 16.5541 12.2207 16.5536 12.2277V12.2351C16.5536 12.2421 16.553 12.249 16.5525 12.2561C16.5525 12.2648 16.5515 12.2734 16.5506 12.2821C16.5498 12.2907 16.5493 12.2973 16.5484 12.305C16.5484 12.3071 16.548 12.3093 16.5476 12.3117C16.5471 12.3183 16.5462 12.3252 16.5452 12.332C16.5452 12.3341 16.5452 12.3362 16.5444 12.3383C16.5434 12.3475 16.542 12.3566 16.5405 12.3657C16.5394 12.3744 16.538 12.3825 16.5364 12.391L16.5339 12.4054C16.5314 12.4191 16.5282 12.4326 16.5243 12.446C16.5167 12.471 16.5076 12.4954 16.4969 12.5192C16.4819 12.5518 16.4654 12.5836 16.4473 12.6146C16.4372 12.6318 16.4269 12.6487 16.4161 12.6654C16.4051 12.6827 16.3935 12.7002 16.3816 12.7178C16.351 12.7615 16.3193 12.8043 16.2864 12.8461L16.2713 12.8652C16.2176 12.9321 16.1621 12.9977 16.1049 13.0618L16.0869 13.0821C16.0625 13.1092 16.0378 13.1366 16.0125 13.164L15.9934 13.1847C15.9808 13.1985 15.9675 13.2123 15.9548 13.2262C15.9421 13.2401 15.9289 13.2541 15.9156 13.2681L15.8759 13.3099L15.8356 13.352L15.795 13.3942C15.7677 13.4224 15.7404 13.4506 15.7129 13.4788C15.3211 13.8806 14.9083 14.2811 14.7686 14.5308C14.7592 14.547 14.7508 14.5638 14.7433 14.5809C14.7234 14.6263 14.7151 14.6652 14.7208 14.6966C14.7226 14.7069 14.7262 14.7168 14.7315 14.7259C14.7393 14.7395 14.7489 14.752 14.76 14.7633C14.7651 14.7683 14.7705 14.7729 14.7762 14.7772C14.805 14.7976 14.8397 14.8082 14.8751 14.8072H14.8861L14.8974 14.8063L14.9087 14.8051L14.9181 14.8037C14.9193 14.8035 14.9207 14.8033 14.9219 14.803L14.9305 14.8013L14.9328 14.8008L14.9423 14.7988L14.9457 14.7979C14.9491 14.7971 14.9524 14.7962 14.9558 14.7952C14.9591 14.7943 14.9638 14.793 14.9678 14.7917C14.9848 14.7865 15.0015 14.7804 15.0178 14.7735C15.0264 14.77 15.0348 14.7662 15.0431 14.7622C15.0474 14.7603 15.0518 14.7582 15.0559 14.7561L15.0688 14.7497C15.0997 14.7337 15.1299 14.7162 15.1592 14.6975L15.1721 14.6888C15.1764 14.6861 15.1808 14.6833 15.1849 14.6802L15.1978 14.6716L15.2046 14.6668L15.2232 14.6538C15.2405 14.6419 15.2566 14.6296 15.273 14.6172L15.2744 14.616L15.3004 14.5959C15.3358 14.5679 15.3695 14.5397 15.4 14.5131L15.4203 14.4953L15.4221 14.4936L15.4328 14.4842C15.4577 14.4618 15.4799 14.4409 15.4984 14.4237L15.506 14.4163C15.5127 14.41 15.5187 14.4041 15.5243 14.3991L15.5351 14.3884L15.5389 14.3846L15.54 14.3835L15.5513 14.3722L15.5585 14.3648L15.5593 14.3641L15.5627 14.361L15.567 14.3572L15.5683 14.3559L15.5719 14.3526L15.5916 14.3353L15.6026 14.3255C15.6085 14.3204 15.6142 14.3151 15.6199 14.3098L15.633 14.2981C15.6355 14.2962 15.6378 14.2941 15.6402 14.2919L15.654 14.2799L15.6743 14.262L15.6851 14.2526C15.7272 14.2161 15.7783 14.1719 15.837 14.1222L15.8611 14.1018L15.9008 14.0685L15.9415 14.0346C15.9946 13.9904 16.0518 13.9435 16.1123 13.8949L16.152 13.8631C16.1858 13.8361 16.2205 13.8087 16.2557 13.781C16.2699 13.7699 16.2843 13.7588 16.2989 13.7478C16.3349 13.7199 16.371 13.6921 16.4074 13.6648C16.4903 13.6022 16.5759 13.5395 16.6624 13.4784L16.6995 13.4525C16.7255 13.4347 16.7514 13.4167 16.7773 13.3992L16.8008 13.3833C16.8471 13.3519 16.894 13.3213 16.9414 13.2915L16.9648 13.2767L16.9881 13.2622C17.0115 13.2477 17.0347 13.2335 17.0578 13.2197L17.0809 13.2059L17.1271 13.179L17.1724 13.153L17.1816 13.148L17.2174 13.1283C17.2324 13.1202 17.2473 13.1123 17.2621 13.1047L17.2843 13.0933L17.3058 13.0825C17.3133 13.0789 17.3208 13.0751 17.3281 13.0716C17.3766 13.0476 17.4261 13.0256 17.4763 13.0055C17.49 12.9997 17.5035 12.9945 17.5169 12.9899L17.5565 12.976C17.5684 12.972 17.58 12.9683 17.5911 12.9649L17.595 12.9637C17.601 12.9618 17.607 12.9601 17.6129 12.9585L17.6146 12.958C17.627 12.9545 17.6392 12.9514 17.6513 12.9485H17.6522C17.6864 12.9403 17.7212 12.9344 17.7562 12.9308C17.7724 12.9291 17.7885 12.9283 17.8047 12.9284H17.8129C17.8237 12.9284 17.8341 12.929 17.8444 12.9301C17.8492 12.9301 17.8539 12.9311 17.8586 12.9317H17.8605C17.8651 12.9322 17.8698 12.9329 17.8744 12.934C17.8789 12.9348 17.8836 12.9356 17.888 12.9367H17.8895C17.894 12.9376 17.8981 12.9388 17.9028 12.9402C17.9273 12.947 17.9507 12.9576 17.9722 12.9716C17.9827 12.9784 17.9926 12.9861 18.0016 12.9947L18.0043 12.9973C18.006 12.9988 18.0076 13.0004 18.0092 13.0021L18.0139 13.0072C18.0528 13.0479 18.0848 13.0946 18.109 13.1454L18.1127 13.1541C18.1209 13.1734 18.1273 13.1934 18.132 13.2138C18.1457 13.2762 18.1404 13.3413 18.1167 13.4007C18.1077 13.4247 18.0968 13.4478 18.084 13.4698C18.0539 13.5204 18.0183 13.5675 17.9778 13.6101L17.9692 13.6193C17.9563 13.6328 17.943 13.6463 17.929 13.6599C17.9228 13.666 17.9163 13.6719 17.9099 13.678L17.8901 13.6963L17.8797 13.7055C17.8548 13.7277 17.8292 13.7492 17.8032 13.7701C17.7874 13.7829 17.7716 13.7953 17.7556 13.8076C17.6989 13.8509 17.6413 13.8926 17.5825 13.9329C17.5471 13.9573 17.5113 13.9811 17.4753 14.0047C17.3865 14.063 17.2967 14.1198 17.2061 14.175C17.0159 14.2919 16.8052 14.417 16.5806 14.5529L16.5224 14.5882C16.4587 14.627 16.3987 14.6641 16.342 14.6995L16.3135 14.7174L16.2596 14.7519C16.2239 14.7748 16.1882 14.7979 16.1526 14.821L16.1239 14.84C16.1099 14.849 16.0959 14.8583 16.082 14.8676L16.0684 14.8763L16.0267 14.9044L16.0045 14.9196L15.9787 14.9376L15.9546 14.9543C15.9143 14.9828 15.8768 15.0099 15.8423 15.0357L15.8294 15.0456C15.8091 15.0609 15.789 15.0766 15.7692 15.0925C15.7393 15.1166 15.7121 15.1396 15.6876 15.1617L15.6757 15.1726C15.6688 15.1789 15.662 15.1852 15.6556 15.1914C15.6511 15.1957 15.647 15.2001 15.6423 15.2042L15.6361 15.2104C15.6223 15.2243 15.6088 15.2385 15.5958 15.2531L15.5894 15.2604C15.5752 15.2769 15.5628 15.2926 15.552 15.308L15.5472 15.3148C15.5387 15.3272 15.5308 15.34 15.5238 15.3531C15.5219 15.3564 15.5203 15.3597 15.5187 15.363L15.5139 15.3728L15.5107 15.38L15.5087 15.3848L15.5071 15.3891L15.5048 15.395C15.4988 15.4114 15.4947 15.4284 15.4923 15.4456L15.4915 15.4516L15.4909 15.4572V15.4876C15.4909 15.4901 15.4909 15.4926 15.4916 15.4953L15.4921 15.5C15.4921 15.5025 15.4927 15.5049 15.493 15.5076C15.4934 15.5101 15.4941 15.5147 15.4949 15.5182V15.5187C15.4956 15.5221 15.4962 15.5254 15.4971 15.5288C15.498 15.5321 15.4988 15.536 15.4999 15.5395C15.5017 15.5463 15.5041 15.5531 15.5065 15.5599C15.508 15.5639 15.5095 15.5679 15.5111 15.5718C15.5111 15.5726 15.5117 15.5735 15.5121 15.5743L15.5156 15.5821L15.5204 15.5928C15.5256 15.6039 15.5313 15.6147 15.5375 15.6253L15.5439 15.6363L15.5504 15.6473C15.5516 15.6491 15.553 15.6509 15.5544 15.6525L15.5565 15.6547L15.5589 15.657L15.5615 15.6589C15.5651 15.6615 15.5691 15.6635 15.5732 15.665C15.5755 15.6658 15.5778 15.6663 15.5801 15.6669C15.6359 15.6795 15.7504 15.6334 15.9027 15.553C15.9113 15.5484 15.9208 15.5435 15.93 15.5385L15.9763 15.5132L15.9989 15.5006C16.0151 15.492 16.0315 15.4823 16.0483 15.4727L16.0789 15.4554C16.2802 15.3396 16.5206 15.1908 16.7691 15.0455C16.7924 15.0318 16.8158 15.0182 16.8391 15.0048L16.8861 14.9747C16.9406 14.9435 16.9954 14.9127 17.0503 14.8823C17.1196 14.8442 17.1894 14.8071 17.2598 14.7712L17.3058 14.7479C17.3363 14.7328 17.3666 14.7181 17.3964 14.7038C17.4542 14.6764 17.5127 14.6503 17.5718 14.6257L17.6042 14.6125L17.608 14.611C17.7795 14.5431 17.935 14.5011 18.0608 14.5011C18.0879 14.5008 18.1152 14.5032 18.1419 14.5078H18.1428C18.1514 14.5093 18.1592 14.5111 18.1673 14.513H18.1687C18.1893 14.5182 18.2093 14.5257 18.2282 14.5352C18.2548 14.549 18.2787 14.5672 18.2988 14.5892C18.3081 14.5995 18.3163 14.6106 18.3236 14.6224C18.3371 14.6432 18.3477 14.6657 18.3554 14.6892C18.3585 14.6984 18.3612 14.7074 18.364 14.717C18.3844 14.7901 18.3823 14.8677 18.3582 14.9397Z" fill="#FF9D00"/>
<path fill-rule="evenodd" clip-rule="evenodd" d="M17.2184 9.69173V9.6443C17.2184 5.60043 13.9413 2.32227 9.89712 2.32227C5.85307 2.32227 2.5747 5.60062 2.5747 9.6443V9.66014C2.57451 9.67067 2.57441 9.6812 2.5747 9.69173C2.57517 9.70748 2.57534 9.72323 2.57518 9.73898L2.57568 9.77376L2.57596 9.78623C2.57596 9.79202 2.57616 9.79772 2.57635 9.80352C2.57664 9.8127 2.57683 9.82198 2.57683 9.83115L2.57789 9.86874L2.57944 9.91289L2.57992 9.92739L2.58185 9.97309V9.97531C2.58262 9.99318 2.5836 10.011 2.58447 10.0287L2.58456 10.0301C2.58552 10.0483 2.5865 10.0665 2.58766 10.0848C2.58862 10.1016 2.58958 10.1184 2.59084 10.1352L2.59104 10.1382C2.59188 10.1526 2.59285 10.1671 2.59393 10.1815L2.59422 10.1854L2.59741 10.2271L2.59771 10.2298C2.59829 10.2379 2.59886 10.246 2.59963 10.2539C2.60541 10.3235 2.61214 10.3932 2.61983 10.4627L2.62031 10.467L2.6262 10.5181L2.63278 10.5717L2.6376 10.6082L2.63982 10.6253C2.64497 10.6647 2.65055 10.704 2.65654 10.7432L2.65693 10.7458L2.66262 10.7829C2.69021 10.9597 2.72437 11.1353 2.76504 11.3095L2.76553 11.3116L2.76861 11.3247L2.77741 11.3619L2.78282 11.3554C2.99538 11.1013 3.30031 10.9612 3.64146 10.9612C3.91489 10.9612 4.19539 11.0516 4.47655 11.2299C4.66302 11.3484 4.8692 11.5581 5.08138 11.822C5.27771 11.5493 5.55288 11.3681 5.86766 11.3186C5.92768 11.3091 5.98834 11.3044 6.04911 11.3043C6.76756 11.3043 7.2003 11.9278 7.36378 12.4886C7.44456 12.6781 7.83383 13.5411 8.42088 14.1249C9.31325 15.0164 9.53654 15.9363 9.09489 16.9213H9.09644C9.12649 16.9247 9.15673 16.9278 9.18716 16.9306C9.20523 16.9323 9.2232 16.9341 9.24137 16.9356L9.24774 16.9362L9.28765 16.9396L9.32436 16.9425C9.35934 16.9452 9.39441 16.9477 9.42958 16.9499L9.4575 16.9515L9.47963 16.9529L9.49335 16.9537L9.53654 16.9559L9.54832 16.9564L9.59364 16.9584L9.64407 16.9603L9.68456 16.9615L9.69132 16.9617C9.69992 16.9621 9.70852 16.9624 9.71712 16.9624L9.72639 16.9627C9.7834 16.964 9.8403 16.9647 9.89731 16.9646H9.95779L10.001 16.9641C10.0116 16.9636 10.0221 16.9636 10.0329 16.9636H10.0497L10.0643 16.9632C10.07 16.963 10.0757 16.9628 10.0815 16.9628H10.0988L10.1327 16.962L10.1837 16.9602L10.2398 16.9577C10.2561 16.9571 10.2721 16.9563 10.2881 16.9555L10.3054 16.9544L10.3311 16.9531L10.3462 16.9522L10.3576 16.9514L10.4095 16.9481L10.4613 16.9443L10.5083 16.9405L10.5414 16.9377L10.5777 16.9344C10.6384 16.929 10.6989 16.9227 10.7593 16.9154L10.8006 16.9105C10.3659 15.9296 10.5909 15.0137 11.4795 14.1257C12.0653 13.5404 12.4546 12.6774 12.5358 12.4879C12.6993 11.9271 13.1318 11.3036 13.8505 11.3036C13.9112 11.3036 13.972 11.3085 14.032 11.3179C14.3465 11.3674 14.6217 11.5486 14.8183 11.8213C15.0305 11.5575 15.2366 11.3476 15.4232 11.2291C15.7043 11.051 15.985 10.9605 16.2582 10.9605C16.5592 10.9605 16.8321 11.0697 17.0382 11.27C17.0419 11.2537 17.0456 11.2373 17.0492 11.2209L17.0597 11.172C17.0635 11.1542 17.0673 11.1363 17.0708 11.1184C17.0772 11.0868 17.0836 11.0552 17.0897 11.0233C17.0961 10.9903 17.1021 10.957 17.1079 10.9238L17.1109 10.9058C17.1128 10.8952 17.1145 10.8846 17.1165 10.8739C17.1198 10.8572 17.1225 10.8406 17.1252 10.8238L17.1263 10.8174L17.1332 10.7737L17.1399 10.7293V10.7289C17.1448 10.6962 17.1495 10.6634 17.1538 10.6307L17.1549 10.6226L17.161 10.5764L17.1659 10.537L17.1746 10.4593L17.178 10.4281L17.1789 10.4196C17.1807 10.4028 17.1824 10.3859 17.184 10.3691V10.3678C17.1852 10.3544 17.1866 10.341 17.1877 10.3276C17.1946 10.2514 17.2004 10.1749 17.205 10.0981C17.2059 10.0856 17.2066 10.0729 17.2074 10.0602V10.0597L17.2099 10.0122L17.2105 10.0016C17.212 9.96951 17.2133 9.93744 17.2144 9.90536V9.9042L17.2149 9.89164C17.2154 9.88111 17.2158 9.87048 17.2158 9.85985L17.216 9.8556C17.2163 9.84565 17.2167 9.83541 17.2167 9.82526L17.217 9.81657C17.2173 9.80642 17.2176 9.79637 17.2176 9.78623L17.2178 9.77763C17.2181 9.76478 17.2184 9.75183 17.2184 9.73898V9.69173ZM8.08098 17.0063C8.66088 16.156 8.61973 15.5177 7.82417 14.7226C7.02843 13.9273 6.56533 12.7644 6.56533 12.7644C6.56533 12.7644 6.39249 12.0889 5.99829 12.151C5.60408 12.213 5.3149 13.2224 6.14031 13.8402C6.96563 14.4581 5.97606 14.877 5.65838 14.2972C5.3407 13.7173 4.47335 12.2268 4.02369 11.9417C3.57402 11.6566 3.25779 11.8164 3.36378 12.404C3.41644 12.6957 3.90611 13.1936 4.3636 13.6587C4.82775 14.1306 5.25876 14.5688 5.16658 14.7239C4.98369 15.0318 4.33954 14.3621 4.33954 14.3621C4.33954 14.3621 2.32253 12.5265 1.88349 13.0049C1.47866 13.4457 2.10291 13.8205 3.06486 14.3982C3.14659 14.4473 3.23085 14.4979 3.31713 14.5501C4.41771 15.2164 4.5033 15.3921 4.34707 15.6442C4.28939 15.7373 3.92098 15.5162 3.46784 15.2442C2.69538 14.7803 1.67684 14.1688 1.53297 14.7162C1.40853 15.1899 2.15789 15.4801 2.8375 15.7434C3.40369 15.9628 3.92157 16.1633 3.84534 16.4356C3.7664 16.7179 3.33848 16.4825 2.87075 16.2251C2.34563 15.9361 1.77027 15.6196 1.58196 15.9768C1.22611 16.6521 4.03703 17.4472 4.06022 17.4531C4.96843 17.6886 7.27489 18.1878 8.08098 17.0063ZM11.8167 17.0063C11.2368 16.156 11.278 15.5177 12.0736 14.7226C12.8693 13.9273 13.3324 12.7644 13.3324 12.7644C13.3324 12.7644 13.5052 12.0889 13.8994 12.151C14.2936 12.213 14.5828 13.2224 13.7575 13.8402C12.9321 14.4581 13.9217 14.877 14.2393 14.2972C14.5571 13.7173 15.4239 12.2268 15.8735 11.9417C16.3232 11.6566 16.6396 11.8164 16.5335 12.404C16.481 12.6957 15.9912 13.1936 15.5337 13.6588C15.0696 14.1307 14.6386 14.5688 14.7306 14.7239C14.9135 15.0318 15.5582 14.3617 15.5582 14.3617C15.5582 14.3617 17.5751 12.5262 18.0143 13.0046C18.419 13.4454 17.7948 13.8202 16.8328 14.3979C16.7486 14.4485 16.6646 14.4991 16.5806 14.5498C15.48 15.2161 15.3944 15.3918 15.5505 15.6438C15.6083 15.737 15.9767 15.5158 16.4298 15.2438C17.2023 14.78 18.2209 14.1685 18.3647 14.7159C18.4893 15.1896 17.7398 15.4799 17.0602 15.7431C16.494 15.9625 15.9762 16.163 16.0523 16.4353C16.1311 16.7175 16.559 16.4821 17.0266 16.2247C17.5517 15.9357 18.1272 15.619 18.3154 15.9765C18.6713 16.6522 15.8599 17.4465 15.8372 17.4523C14.929 17.6886 12.6225 18.1878 11.8167 17.0063Z" fill="#FFD21E"/>
<path fill-rule="evenodd" clip-rule="evenodd" d="M12.2751 7.65148C12.3893 7.69186 12.4742 7.81476 12.555 7.93177C12.6641 8.08984 12.7658 8.23698 12.9217 8.15409C13.1057 8.05621 13.2565 7.90607 13.3551 7.72249C13.4537 7.53892 13.4957 7.33029 13.4758 7.12288C13.461 6.96779 13.4119 6.81793 13.3321 6.68412C13.2523 6.55029 13.1438 6.43582 13.0145 6.34898C12.8851 6.26214 12.7381 6.20508 12.584 6.1819C12.4299 6.15872 12.2726 6.17002 12.1235 6.21496C11.9743 6.25987 11.837 6.3373 11.7213 6.44167C11.6057 6.54604 11.5146 6.67474 11.4547 6.81853C11.3948 6.96232 11.3674 7.11761 11.3747 7.27322C11.382 7.42887 11.4237 7.58085 11.4968 7.71843C11.5691 7.85438 11.7295 7.79022 11.8987 7.72249C12.0314 7.66945 12.1697 7.61418 12.2751 7.65148ZM7.3113 7.65148C7.19709 7.69186 7.11217 7.81486 7.03139 7.93177C6.92221 8.08993 6.82047 8.23698 6.66463 8.15409C6.43328 8.03157 6.25586 7.82723 6.16693 7.58104C6.07801 7.33481 6.08397 7.06429 6.18364 6.82221C6.28331 6.58013 6.46957 6.38385 6.70608 6.27162C6.9426 6.15939 7.21244 6.13926 7.46299 6.21515C7.6625 6.27523 7.8397 6.39309 7.97226 6.55384C8.10482 6.71461 8.18666 6.91104 8.20762 7.11834C8.22849 7.32563 8.18743 7.53447 8.08965 7.71843C8.01729 7.85438 7.8569 7.79022 7.68762 7.72259C7.55487 7.66945 7.4168 7.61418 7.3113 7.65148ZM11.5071 12.1685C12.2939 11.5487 12.5829 10.5367 12.5829 9.91331C12.5829 9.42056 12.2514 9.57563 11.7207 9.83843L11.6907 9.85322C11.2036 10.0945 10.5551 10.4157 9.84318 10.4157C9.1312 10.4157 8.4827 10.0945 7.99564 9.85312C7.44772 9.58172 7.10405 9.41148 7.10405 9.91341C7.10405 10.5565 7.41149 11.6124 8.25535 12.2259C8.36675 11.9999 8.52357 11.7993 8.71603 11.6366C8.9084 11.4739 9.13236 11.3526 9.37371 11.2804C9.45796 11.2552 9.54473 11.4003 9.63352 11.5488C9.71922 11.692 9.80685 11.8384 9.89593 11.8384C9.99091 11.8384 10.0841 11.6941 10.1753 11.5532C10.2704 11.4059 10.3633 11.2624 10.453 11.2911C10.9047 11.4361 11.2826 11.7506 11.5071 12.1685Z" fill="#32343D"/>
<path d="M11.507 12.1683C11.0972 12.4912 10.5526 12.7077 9.84329 12.7077C9.17692 12.7077 8.65576 12.5166 8.25537 12.2257C8.36677 11.9997 8.52358 11.799 8.71605 11.6364C8.90841 11.4737 9.13238 11.3525 9.37373 11.2802C9.53914 11.2308 9.7145 11.8383 9.89595 11.8383C10.0902 11.8383 10.2773 11.2348 10.4531 11.2909C10.9046 11.436 11.2824 11.7505 11.507 12.1683Z" fill="#FF323D"/>
<path fill-rule="evenodd" clip-rule="evenodd" d="M5.42995 8.52782C5.33635 8.59043 5.22873 8.62898 5.11664 8.64C5.00455 8.65111 4.89147 8.6343 4.78744 8.59111C4.70428 8.55681 4.62872 8.50637 4.5651 8.4427C4.50148 8.37913 4.45105 8.30357 4.41672 8.22038C4.37363 8.11633 4.35686 8.00328 4.36794 7.89121C4.37902 7.77913 4.41758 7.6715 4.4802 7.57787C4.55544 7.46521 4.6624 7.37742 4.78756 7.32557C4.91272 7.27373 5.05044 7.26016 5.1833 7.28662C5.31617 7.31306 5.43819 7.37833 5.53395 7.4741C5.62971 7.56995 5.6949 7.69207 5.72126 7.82493C5.74766 7.95778 5.73408 8.09546 5.68225 8.22058C5.63042 8.3457 5.54255 8.45256 5.42995 8.52782ZM15.2283 8.52782C15.1347 8.59043 15.0271 8.62898 14.915 8.64C14.8028 8.65111 14.6898 8.6343 14.5857 8.59111C14.5025 8.55671 14.427 8.50637 14.3634 8.4427C14.2998 8.37913 14.2494 8.30357 14.215 8.22038C14.172 8.11633 14.1553 8.00328 14.1663 7.89121C14.1774 7.77913 14.2159 7.6715 14.2785 7.57787C14.3347 7.49362 14.409 7.42299 14.4958 7.3709C14.5827 7.31883 14.68 7.28668 14.7808 7.27678C14.8816 7.26687 14.9834 7.27945 15.0786 7.3136C15.174 7.34777 15.2606 7.40265 15.3322 7.4743C15.428 7.57005 15.4932 7.69207 15.5196 7.82493C15.5461 7.95778 15.5325 8.09546 15.4806 8.22058C15.4287 8.3457 15.341 8.45256 15.2283 8.52782Z" fill="#FFAD03"/>
</g>
<defs>
<clipPath id="clip0_3396_3181">
<rect width="20" height="20" fill="white"/>
</clipPath>
</defs>
</svg>
