<svg width="20" height="20" viewBox="0 0 20 20" fill="none" xmlns="http://www.w3.org/2000/svg">
<path d="M1.30102 14.3286C2.01955 14.3286 2.60204 13.7461 2.60204 13.0276C2.60204 12.309 2.01955 11.7266 1.30102 11.7266C0.582487 11.7266 0 12.309 0 13.0276C0 13.7461 0.582487 14.3286 1.30102 14.3286Z" fill="#FF6666"/>
<path fill-rule="evenodd" clip-rule="evenodd" d="M5.4045 8.92678C5.57371 8.92678 5.71088 9.06395 5.71088 9.23316L5.71088 9.23483L5.69726 11.7278C5.69726 13.1505 4.55547 14.3065 3.13824 14.3295L3.09521 14.3298V11.7278L3.10253 11.7277L3.10966 9.23229C3.11013 9.06342 3.24717 8.92678 3.41604 8.92678H5.4045ZM9.40108 8.92678C9.57029 8.92678 9.70746 9.06395 9.70746 9.23316V12.7224C9.70746 12.8916 9.57029 13.0288 9.40108 13.0288H7.4118C7.24259 13.0288 7.10542 12.8916 7.10542 12.7224V9.23316C7.10542 9.06395 7.24259 8.92678 7.4118 8.92678H9.40108ZM12.5391 8.91147L12.578 8.91178C13.8582 8.93221 14.8937 9.96021 14.9261 11.2375L14.9268 11.2384V12.7071C14.9268 12.8763 14.7897 13.0135 14.6205 13.0135H11.4067C11.2375 13.0135 11.1003 12.8763 11.1003 12.7071V9.21785C11.1003 9.04864 11.2375 8.91147 11.4067 8.91147H12.5391ZM17.8044 12.9829L17.8043 12.9793C16.7286 12.9159 15.8758 12.0235 15.8758 10.9319C15.8758 9.79913 16.7941 8.88086 17.9268 8.88086C19.0185 8.88086 19.9109 9.73369 19.9743 10.8094L19.9779 10.8094V12.6765C19.9779 12.8457 19.8407 12.9829 19.6715 12.9829H17.8044Z" fill="#009999"/>
<path d="M8.40307 8.43505C9.12161 8.43505 9.70409 7.85256 9.70409 7.13403C9.70409 6.41549 9.12161 5.83301 8.40307 5.83301C7.68454 5.83301 7.10205 6.41549 7.10205 7.13403C7.10205 7.85256 7.68454 8.43505 8.40307 8.43505Z" fill="#FFCC66"/>
</svg>
