<svg width="20" height="20" viewBox="0 0 20 20" fill="none" xmlns="http://www.w3.org/2000/svg">
<g clip-path="url(#clip0_3396_1523)">
<path d="M18.6747 8.35281C19.1342 6.9737 18.9759 5.46294 18.2411 4.20851C17.1361 2.28446 14.9146 1.29458 12.7449 1.76041C11.7797 0.673064 10.393 0.0547097 8.93924 0.0635705C6.72151 0.0585072 4.75379 1.48636 4.07151 3.59648C2.64683 3.88825 1.41708 4.78003 0.697463 6.04395C-0.415829 7.96294 -0.162031 10.3819 1.32531 12.0275C0.865817 13.4066 1.02404 14.9174 1.75885 16.1718C2.86392 18.0958 5.08544 19.0857 7.25506 18.6199C8.21961 19.7072 9.60696 20.3256 11.0608 20.3161C13.2797 20.3218 15.2481 18.8927 15.9304 16.7807C17.3551 16.4889 18.5848 15.5971 19.3044 14.3332C20.4165 12.4142 20.162 9.99711 18.6753 8.35154L18.6747 8.35281ZM11.062 18.9927C10.174 18.9939 9.31392 18.6832 8.63227 18.1142C8.66329 18.0977 8.71708 18.068 8.75189 18.0465L12.7848 15.7174C12.9911 15.6003 13.1177 15.3807 13.1165 15.1433V9.45787L14.8209 10.4421C14.8392 10.4509 14.8513 10.4686 14.8538 10.4889V15.1971C14.8513 17.2908 13.1557 18.9883 11.062 18.9927ZM2.90759 15.5098C2.46265 14.7414 2.30253 13.8408 2.45506 12.9667C2.4848 12.9845 2.53734 13.0167 2.57468 13.0383L6.60759 15.3674C6.81202 15.487 7.06518 15.487 7.27025 15.3674L12.1937 12.5243V14.4927C12.1949 14.5129 12.1854 14.5326 12.1696 14.5452L8.09303 16.899C6.27721 17.9446 3.95822 17.3231 2.90822 15.5098H2.90759ZM1.8462 6.70661C2.28923 5.93699 2.9886 5.34838 3.82151 5.04268C3.82151 5.07749 3.81961 5.13889 3.81961 5.18193V9.84079C3.81835 10.0775 3.94493 10.2971 4.15063 10.4142L9.07405 13.2566L7.36961 14.2408C7.35253 14.2522 7.33101 14.2541 7.31202 14.2458L3.2348 11.8902C1.42278 10.8408 0.80126 8.52243 1.84556 6.70724L1.8462 6.70661ZM15.85 9.96547L10.9266 7.12243L12.631 6.13889C12.6481 6.12749 12.6696 6.1256 12.6886 6.13382L16.7658 8.48762C18.581 9.53636 19.2032 11.8585 18.1544 13.6737C17.7108 14.4421 17.012 15.0307 16.1797 15.337V10.5389C16.1816 10.3022 16.0557 10.0832 15.8506 9.96547H15.85ZM17.5462 7.4123C17.5165 7.39395 17.4639 7.36231 17.4266 7.34079L13.3937 5.01167C13.1892 4.89205 12.9361 4.89205 12.731 5.01167L7.80759 7.85471V5.88636C7.80632 5.8661 7.81582 5.84648 7.83164 5.83382L11.9082 3.48192C13.724 2.43446 16.0456 3.05787 17.0924 4.87433C17.5348 5.64142 17.6949 6.53952 17.5449 7.4123H17.5462ZM6.88101 10.9205L5.17594 9.93636C5.15759 9.9275 5.14556 9.90977 5.14303 9.88952V5.18129C5.1443 3.08509 6.84493 1.38636 8.94113 1.38762C9.82784 1.38762 10.6861 1.69901 11.3677 2.2661C11.3367 2.28256 11.2835 2.3123 11.2481 2.33382L7.21518 4.66294C7.00885 4.78003 6.88227 4.99901 6.88354 5.23636L6.88101 10.9193V10.9205ZM7.80696 8.92433L9.99999 7.65787L12.193 8.9237V11.456L9.99999 12.7218L7.80696 11.456V8.92433Z" fill="white"/>
</g>
<defs>
<clipPath id="clip0_3396_1523">
<rect width="20" height="20" fill="white"/>
</clipPath>
</defs>
</svg>
