<svg width="645" height="240" viewBox="0 0 645 240" fill="none" xmlns="http://www.w3.org/2000/svg">
<rect x="395" y="116" width="91" height="35" fill="#D91620"/>
<path d="M487 44L394 44L394 79.8M487 44L580 44L580 79.8M487 44L487 79.8M487 187.2L487 151.4M487 187.2L487 223M487 187.2L580 187.2M487 187.2L394 187.2M487 115.6L487 79.8M487 115.6L487 151.4M487 115.6L394 115.6M487 115.6L580 115.6M487 79.8L394 79.8M487 79.8L580 79.8M487 151.4L394 151.4M487 151.4L580 151.4M487 223L394 223L394 187.2M487 223L580 223L580 187.2M394 187.2L394 151.4M394 115.6L394 151.4M394 115.6L394 79.8M394 151.4L394 79.8M580 187.2L580 151.4M580 115.6L580 151.4M580 115.6L580 79.8M580 151.4L580 79.8" stroke="#F7F7F7" stroke-width="4"/>
<path d="M224 134L204 122.453V145.547L224 134ZM164.645 136H206V132H164.645V136ZM164.645 132H164V136H164.645V132Z" fill="#D91620"/>
<path d="M386 134L366 122.453V145.547L386 134ZM326.645 136H368V132H326.645V136ZM326.645 132H326V136H326.645V132Z" fill="#D91620"/>
<path d="M0.742188 130.617V129.688C0.742188 129.219 0.859375 128.719 1.09375 128.188C1.33333 127.656 1.66667 127.216 2.09375 126.867L2.89844 127.422C2.65885 127.766 2.47396 128.12 2.34375 128.484C2.21354 128.849 2.14844 129.242 2.14844 129.664V130.617H0.742188ZM4 130.617V129.688C4 129.219 4.11719 128.719 4.35156 128.188C4.58594 127.656 4.91927 127.216 5.35156 126.867L6.15625 127.422C5.91667 127.766 5.73177 128.12 5.60156 128.484C5.47135 128.849 5.40625 129.242 5.40625 129.664V130.617H4ZM7.79688 139V127.625H9.27344V132.523H14.9922V127.625H16.4609V139H14.9922V133.742H9.27344V139H7.79688ZM18.4375 135.039V134.789C18.4375 133.555 18.7865 132.549 19.4844 131.773C20.1823 130.992 21.1146 130.602 22.2812 130.602C23.4479 130.602 24.3802 130.992 25.0781 131.773C25.776 132.549 26.125 133.555 26.125 134.789V135.039C26.125 136.273 25.776 137.281 25.0781 138.062C24.3802 138.844 23.4479 139.234 22.2812 139.234C21.1146 139.234 20.1823 138.844 19.4844 138.062C18.7865 137.281 18.4375 136.273 18.4375 135.039ZM19.8906 134.789V135.039C19.8906 135.888 20.0911 136.604 20.4922 137.188C20.8932 137.771 21.4896 138.062 22.2812 138.062C23.0729 138.062 23.6667 137.771 24.0625 137.188C24.4635 136.604 24.6641 135.888 24.6641 135.039V134.789C24.6641 133.94 24.4635 133.224 24.0625 132.641C23.6667 132.057 23.0729 131.766 22.2812 131.766C21.4896 131.766 20.8932 132.057 20.4922 132.641C20.0911 133.224 19.8906 133.94 19.8906 134.789ZM26.9688 130.828H28.3516L29.8672 136.219C29.9245 136.427 29.9688 136.599 30 136.734C30.0365 136.865 30.0755 137.031 30.1172 137.234H30.1641C30.2005 137.031 30.237 136.865 30.2734 136.734C30.3099 136.599 30.362 136.427 30.4297 136.219L32.2109 130.828H33.4219L35.25 136.219C35.3229 136.427 35.375 136.599 35.4062 136.734C35.4427 136.865 35.4818 137.031 35.5234 137.234H35.5703C35.612 137.031 35.6484 136.865 35.6797 136.734C35.7109 136.599 35.7526 136.427 35.8047 136.219L37.2734 130.828H38.5781L36.0625 139H34.9375L33.1562 133.688C33.0885 133.479 33.0234 133.273 32.9609 133.07C32.9036 132.867 32.849 132.661 32.7969 132.453H32.75C32.7031 132.661 32.6484 132.867 32.5859 133.07C32.5286 133.273 32.4661 133.479 32.3984 133.688L30.6172 139H29.4922L26.9688 130.828ZM43.2969 135.039V134.789C43.2969 133.596 43.6068 132.612 44.2266 131.836C44.8464 131.06 45.6745 130.672 46.7109 130.672C47.2786 130.672 47.763 130.776 48.1641 130.984C48.5703 131.188 48.8906 131.456 49.125 131.789V127.031H50.5547V139H49.2656L49.2031 137.93H49.1562C48.9479 138.268 48.6302 138.557 48.2031 138.797C47.776 139.036 47.2786 139.156 46.7109 139.156C45.6745 139.156 44.8464 138.768 44.2266 137.992C43.6068 137.216 43.2969 136.232 43.2969 135.039ZM44.75 135.039C44.75 135.872 44.9323 136.573 45.2969 137.141C45.6615 137.703 46.2344 137.984 47.0156 137.984C47.5365 137.984 47.9792 137.844 48.3438 137.562C48.7083 137.276 48.9688 136.951 49.125 136.586V133.242C48.9688 132.878 48.7083 132.555 48.3438 132.273C47.9792 131.987 47.5365 131.844 47.0156 131.844C46.2344 131.844 45.6615 132.128 45.2969 132.695C44.9323 133.258 44.75 133.956 44.75 134.789V135.039ZM52.3594 135.039V134.789C52.3594 133.555 52.7083 132.549 53.4062 131.773C54.1042 130.992 55.0365 130.602 56.2031 130.602C57.3698 130.602 58.3021 130.992 59 131.773C59.6979 132.549 60.0469 133.555 60.0469 134.789V135.039C60.0469 136.273 59.6979 137.281 59 138.062C58.3021 138.844 57.3698 139.234 56.2031 139.234C55.0365 139.234 54.1042 138.844 53.4062 138.062C52.7083 137.281 52.3594 136.273 52.3594 135.039ZM53.8125 134.789V135.039C53.8125 135.888 54.013 136.604 54.4141 137.188C54.8151 137.771 55.4115 138.062 56.2031 138.062C56.9948 138.062 57.5885 137.771 57.9844 137.188C58.3854 136.604 58.5859 135.888 58.5859 135.039V134.789C58.5859 133.94 58.3854 133.224 57.9844 132.641C57.5885 132.057 56.9948 131.766 56.2031 131.766C55.4115 131.766 54.8151 132.057 54.4141 132.641C54.013 133.224 53.8125 133.94 53.8125 134.789ZM65.875 139V127.625H67.3516V137.789H72.7031V139H65.875ZM74.4375 139V127.625H75.9141V137.789H81.2656V139H74.4375ZM83 139V127.625H84.9062L88.2734 136.211C88.3359 136.372 88.3932 136.539 88.4453 136.711C88.5026 136.878 88.5521 137.039 88.5938 137.195H88.6562C88.6979 137.039 88.7448 136.878 88.7969 136.711C88.8542 136.539 88.9141 136.372 88.9766 136.211L92.3516 127.625H94.25V139H92.8281V130.758C92.8281 130.602 92.8307 130.427 92.8359 130.234C92.8411 130.036 92.8542 129.859 92.875 129.703H92.8125C92.7812 129.859 92.7344 130.036 92.6719 130.234C92.6094 130.427 92.5469 130.602 92.4844 130.758L89.25 139H87.9766L84.7422 130.758C84.6797 130.602 84.6146 130.424 84.5469 130.227C84.4844 130.029 84.4401 129.854 84.4141 129.703H84.3516C84.3724 129.854 84.3854 130.029 84.3906 130.227C84.3958 130.424 84.3984 130.602 84.3984 130.758V139H83ZM96.2031 136.586H97.6328V136.633C97.6328 137.107 97.8047 137.464 98.1484 137.703C98.4974 137.943 98.9583 138.062 99.5312 138.062C100.104 138.062 100.555 137.948 100.883 137.719C101.216 137.49 101.383 137.193 101.383 136.828C101.383 136.464 101.247 136.185 100.977 135.992C100.711 135.794 100.141 135.591 99.2656 135.383C98.3854 135.174 97.6875 134.883 97.1719 134.508C96.6562 134.133 96.3984 133.609 96.3984 132.938C96.3984 132.266 96.6745 131.708 97.2266 131.266C97.7839 130.823 98.5286 130.602 99.4609 130.602C100.388 130.602 101.135 130.823 101.703 131.266C102.271 131.703 102.555 132.299 102.555 133.055V133.102H101.133V133.031C101.133 132.635 100.995 132.326 100.719 132.102C100.448 131.878 100.029 131.766 99.4609 131.766C98.888 131.766 98.4688 131.87 98.2031 132.078C97.9427 132.286 97.8125 132.547 97.8125 132.859C97.8125 133.172 97.9609 133.422 98.2578 133.609C98.5599 133.792 99.151 133.987 100.031 134.195C100.911 134.404 101.589 134.701 102.062 135.086C102.542 135.471 102.781 136.026 102.781 136.75C102.781 137.474 102.51 138.07 101.969 138.539C101.427 139.003 100.615 139.234 99.5312 139.234C98.4479 139.234 97.6224 138.997 97.0547 138.523C96.487 138.049 96.2031 137.419 96.2031 136.633V136.586ZM107.453 130.828H108.836L110.352 136.219C110.409 136.427 110.453 136.599 110.484 136.734C110.521 136.865 110.56 137.031 110.602 137.234H110.648C110.685 137.031 110.721 136.865 110.758 136.734C110.794 136.599 110.846 136.427 110.914 136.219L112.695 130.828H113.906L115.734 136.219C115.807 136.427 115.859 136.599 115.891 136.734C115.927 136.865 115.966 137.031 116.008 137.234H116.055C116.096 137.031 116.133 136.865 116.164 136.734C116.195 136.599 116.237 136.427 116.289 136.219L117.758 130.828H119.062L116.547 139H115.422L113.641 133.688C113.573 133.479 113.508 133.273 113.445 133.07C113.388 132.867 113.333 132.661 113.281 132.453H113.234C113.188 132.661 113.133 132.867 113.07 133.07C113.013 133.273 112.951 133.479 112.883 133.688L111.102 139H109.977L107.453 130.828ZM119.922 135.039V134.789C119.922 133.555 120.271 132.549 120.969 131.773C121.667 130.992 122.599 130.602 123.766 130.602C124.932 130.602 125.865 130.992 126.562 131.773C127.26 132.549 127.609 133.555 127.609 134.789V135.039C127.609 136.273 127.26 137.281 126.562 138.062C125.865 138.844 124.932 139.234 123.766 139.234C122.599 139.234 121.667 138.844 120.969 138.062C120.271 137.281 119.922 136.273 119.922 135.039ZM121.375 134.789V135.039C121.375 135.888 121.576 136.604 121.977 137.188C122.378 137.771 122.974 138.062 123.766 138.062C124.557 138.062 125.151 137.771 125.547 137.188C125.948 136.604 126.148 135.888 126.148 135.039V134.789C126.148 133.94 125.948 133.224 125.547 132.641C125.151 132.057 124.557 131.766 123.766 131.766C122.974 131.766 122.378 132.057 121.977 132.641C121.576 133.224 121.375 133.94 121.375 134.789ZM129.414 139V130.828H130.703L130.758 131.883H130.805C131.013 131.539 131.286 131.24 131.625 130.984C131.964 130.729 132.367 130.602 132.836 130.602C132.951 130.602 133.07 130.615 133.195 130.641C133.32 130.661 133.409 130.682 133.461 130.703V132.023C133.357 132.003 133.247 131.987 133.133 131.977C133.018 131.966 132.893 131.961 132.758 131.961C132.294 131.961 131.896 132.083 131.562 132.328C131.234 132.573 130.992 132.88 130.836 133.25V139H129.414ZM134.836 139V127.031H136.258V134.586L139.758 130.828H141.375L136.258 136.266V139H134.836ZM140.086 139L136.898 134.758L137.789 133.773L141.758 139H140.086ZM144.125 138.25C144.125 138 144.206 137.786 144.367 137.609C144.534 137.427 144.771 137.336 145.078 137.336C145.385 137.336 145.62 137.427 145.781 137.609C145.948 137.786 146.031 138 146.031 138.25C146.031 138.505 145.948 138.724 145.781 138.906C145.62 139.083 145.385 139.172 145.078 139.172C144.771 139.172 144.534 139.083 144.367 138.906C144.206 138.724 144.125 138.505 144.125 138.25ZM142.117 130.445V130.289C142.117 129.43 142.401 128.745 142.969 128.234C143.536 127.724 144.31 127.469 145.289 127.469C146.268 127.469 147.034 127.737 147.586 128.273C148.138 128.805 148.414 129.51 148.414 130.391C148.414 131.094 148.224 131.714 147.844 132.25C147.469 132.786 147.091 133.224 146.711 133.562C146.268 133.969 145.992 134.339 145.883 134.672C145.779 135.005 145.727 135.354 145.727 135.719V135.797H144.297V135.719C144.297 135.068 144.38 134.555 144.547 134.18C144.719 133.799 145.052 133.365 145.547 132.875C145.974 132.453 146.32 132.065 146.586 131.711C146.852 131.357 146.984 130.917 146.984 130.391C146.984 129.87 146.844 129.461 146.562 129.164C146.281 128.862 145.857 128.711 145.289 128.711C144.716 128.711 144.279 128.849 143.977 129.125C143.68 129.401 143.531 129.789 143.531 130.289V130.445H142.117ZM151.641 127.609V128.594C151.641 129.062 151.521 129.562 151.281 130.094C151.047 130.62 150.719 131.06 150.297 131.414L149.477 130.852C149.721 130.508 149.906 130.156 150.031 129.797C150.156 129.432 150.219 129.039 150.219 128.617V127.609H151.641ZM154.891 127.609V128.594C154.891 129.062 154.773 129.562 154.539 130.094C154.305 130.62 153.977 131.06 153.555 131.414L152.734 130.852C152.979 130.508 153.164 130.156 153.289 129.797C153.414 129.432 153.477 129.039 153.477 128.617V127.609H154.891Z" fill="#F7F7F7"/>
<path d="M335 3.625H336.562L339.57 12.1016C339.628 12.2734 339.677 12.4271 339.719 12.5625C339.766 12.6979 339.81 12.8411 339.852 12.9922H339.922C339.969 12.8411 340.013 12.6979 340.055 12.5625C340.102 12.4271 340.156 12.2734 340.219 12.1016L343.258 3.625H344.758L340.539 15.0781H339.211L335 3.625ZM345.062 11.0391V10.7891C345.062 9.55469 345.398 8.54948 346.07 7.77344C346.747 6.99219 347.641 6.60156 348.75 6.60156C349.859 6.60156 350.714 6.96615 351.312 7.69531C351.911 8.41927 352.211 9.40365 352.211 10.6484V11.2344H345.93V10.0938H350.773V9.91406C350.773 9.32031 350.604 8.8151 350.266 8.39844C349.932 7.97656 349.445 7.76562 348.805 7.76562C348.039 7.76562 347.466 8.05729 347.086 8.64062C346.706 9.22396 346.516 9.9401 346.516 10.7891V11.0391C346.516 11.888 346.716 12.6042 347.117 13.1875C347.518 13.7708 348.138 14.0625 348.977 14.0625C349.497 14.0625 349.943 13.9505 350.312 13.7266C350.688 13.4974 350.992 13.2266 351.227 12.9141L352.148 13.6406C351.888 14.0312 351.487 14.3958 350.945 14.7344C350.409 15.0677 349.753 15.2344 348.977 15.2344C347.711 15.2344 346.742 14.8438 346.07 14.0625C345.398 13.2812 345.062 12.2734 345.062 11.0391ZM353.484 11.0391V10.7891C353.484 9.55469 353.818 8.54948 354.484 7.77344C355.156 6.99219 356.076 6.60156 357.242 6.60156C358.331 6.60156 359.156 6.89323 359.719 7.47656C360.281 8.0599 360.562 8.71875 360.562 9.45312V9.49219H359.18V9.45312C359.18 9.00521 359.026 8.61198 358.719 8.27344C358.411 7.9349 357.922 7.76562 357.25 7.76562C356.458 7.76562 355.875 8.05729 355.5 8.64062C355.125 9.21875 354.938 9.9349 354.938 10.7891V11.0391C354.938 11.888 355.125 12.6042 355.5 13.1875C355.875 13.7708 356.456 14.0625 357.242 14.0625C357.919 14.0625 358.411 13.8932 358.719 13.5547C359.026 13.2161 359.18 12.8229 359.18 12.375V12.3359H360.562V12.375C360.562 13.1042 360.281 13.763 359.719 14.3516C359.156 14.9401 358.331 15.2344 357.242 15.2344C356.076 15.2344 355.156 14.8438 354.484 14.0625C353.818 13.2812 353.484 12.2734 353.484 11.0391ZM361.094 7.92188V6.82812H365.742V7.92188H361.094ZM362.555 12.9688V7.48438V7.25781V4.76562H363.977V12.9688C363.977 13.3438 364.049 13.6094 364.195 13.7656C364.346 13.9219 364.578 14 364.891 14C365.036 14 365.177 13.987 365.312 13.9609C365.453 13.9297 365.596 13.888 365.742 13.8359V15C365.607 15.0625 365.432 15.1172 365.219 15.1641C365.005 15.2109 364.768 15.2344 364.508 15.2344C363.914 15.2344 363.44 15.0547 363.086 14.6953C362.732 14.3307 362.555 13.7552 362.555 12.9688ZM366.625 11.0391V10.7891C366.625 9.55469 366.974 8.54948 367.672 7.77344C368.37 6.99219 369.302 6.60156 370.469 6.60156C371.635 6.60156 372.568 6.99219 373.266 7.77344C373.964 8.54948 374.312 9.55469 374.312 10.7891V11.0391C374.312 12.2734 373.964 13.2812 373.266 14.0625C372.568 14.8438 371.635 15.2344 370.469 15.2344C369.302 15.2344 368.37 14.8438 367.672 14.0625C366.974 13.2812 366.625 12.2734 366.625 11.0391ZM368.078 10.7891V11.0391C368.078 11.888 368.279 12.6042 368.68 13.1875C369.081 13.7708 369.677 14.0625 370.469 14.0625C371.26 14.0625 371.854 13.7708 372.25 13.1875C372.651 12.6042 372.852 11.888 372.852 11.0391V10.7891C372.852 9.9401 372.651 9.22396 372.25 8.64062C371.854 8.05729 371.26 7.76562 370.469 7.76562C369.677 7.76562 369.081 8.05729 368.68 8.64062C368.279 9.22396 368.078 9.9401 368.078 10.7891ZM376.117 15V6.82812H377.406L377.461 7.88281H377.508C377.716 7.53906 377.99 7.23958 378.328 6.98438C378.667 6.72917 379.07 6.60156 379.539 6.60156C379.654 6.60156 379.773 6.61458 379.898 6.64062C380.023 6.66146 380.112 6.68229 380.164 6.70312V8.02344C380.06 8.0026 379.951 7.98698 379.836 7.97656C379.721 7.96615 379.596 7.96094 379.461 7.96094C378.997 7.96094 378.599 8.08333 378.266 8.32812C377.938 8.57292 377.695 8.88021 377.539 9.25V15H376.117ZM384.906 11.0391V10.7891C384.906 9.59635 385.216 8.61198 385.836 7.83594C386.456 7.0599 387.284 6.67188 388.32 6.67188C388.888 6.67188 389.372 6.77604 389.773 6.98438C390.18 7.1875 390.5 7.45573 390.734 7.78906V3.03125H392.164V15H390.875L390.812 13.9297H390.766C390.557 14.2682 390.24 14.5573 389.812 14.7969C389.385 15.0365 388.888 15.1562 388.32 15.1562C387.284 15.1562 386.456 14.7682 385.836 13.9922C385.216 13.2161 384.906 12.2318 384.906 11.0391ZM386.359 11.0391C386.359 11.8724 386.542 12.5729 386.906 13.1406C387.271 13.7031 387.844 13.9844 388.625 13.9844C389.146 13.9844 389.589 13.8438 389.953 13.5625C390.318 13.276 390.578 12.9505 390.734 12.5859V9.24219C390.578 8.8776 390.318 8.55469 389.953 8.27344C389.589 7.98698 389.146 7.84375 388.625 7.84375C387.844 7.84375 387.271 8.1276 386.906 8.69531C386.542 9.25781 386.359 9.95573 386.359 10.7891V11.0391ZM394.008 12.5938C394.008 11.7708 394.333 11.1276 394.984 10.6641C395.641 10.2005 396.477 9.96875 397.492 9.96875H399.352V9.39844C399.352 8.90365 399.224 8.5026 398.969 8.19531C398.714 7.88802 398.273 7.73438 397.648 7.73438C397.023 7.73438 396.576 7.86458 396.305 8.125C396.039 8.38021 395.906 8.67708 395.906 9.01562V9.0625H394.484V9.01562C394.484 8.36979 394.771 7.80729 395.344 7.32812C395.922 6.84375 396.703 6.60156 397.688 6.60156C398.667 6.60156 399.424 6.83594 399.961 7.30469C400.503 7.76823 400.773 8.46615 400.773 9.39844V13.125C400.773 13.4635 400.799 13.7839 400.852 14.0859C400.904 14.3828 400.977 14.6458 401.07 14.875V15H399.695C399.622 14.8698 399.555 14.7005 399.492 14.4922C399.435 14.2839 399.398 14.0755 399.383 13.8672C399.19 14.2057 398.878 14.5052 398.445 14.7656C398.018 15.026 397.469 15.1562 396.797 15.1562C396.016 15.1562 395.354 14.9375 394.812 14.5C394.276 14.0573 394.008 13.4219 394.008 12.5938ZM395.43 12.5234C395.43 12.9922 395.565 13.3594 395.836 13.625C396.107 13.8854 396.529 14.0156 397.102 14.0156C397.674 14.0156 398.193 13.8177 398.656 13.4219C399.12 13.026 399.352 12.6068 399.352 12.1641V10.9922H397.648C396.919 10.9922 396.367 11.1302 395.992 11.4062C395.617 11.6823 395.43 12.0547 395.43 12.5234ZM401.875 7.92188V6.82812H406.523V7.92188H401.875ZM403.336 12.9688V7.48438V7.25781V4.76562H404.758V12.9688C404.758 13.3438 404.831 13.6094 404.977 13.7656C405.128 13.9219 405.359 14 405.672 14C405.818 14 405.958 13.987 406.094 13.9609C406.234 13.9297 406.378 13.888 406.523 13.8359V15C406.388 15.0625 406.214 15.1172 406 15.1641C405.786 15.2109 405.549 15.2344 405.289 15.2344C404.695 15.2344 404.221 15.0547 403.867 14.6953C403.513 14.3307 403.336 13.7552 403.336 12.9688ZM407.602 12.5938C407.602 11.7708 407.927 11.1276 408.578 10.6641C409.234 10.2005 410.07 9.96875 411.086 9.96875H412.945V9.39844C412.945 8.90365 412.818 8.5026 412.562 8.19531C412.307 7.88802 411.867 7.73438 411.242 7.73438C410.617 7.73438 410.169 7.86458 409.898 8.125C409.633 8.38021 409.5 8.67708 409.5 9.01562V9.0625H408.078V9.01562C408.078 8.36979 408.365 7.80729 408.938 7.32812C409.516 6.84375 410.297 6.60156 411.281 6.60156C412.26 6.60156 413.018 6.83594 413.555 7.30469C414.096 7.76823 414.367 8.46615 414.367 9.39844V13.125C414.367 13.4635 414.393 13.7839 414.445 14.0859C414.497 14.3828 414.57 14.6458 414.664 14.875V15H413.289C413.216 14.8698 413.148 14.7005 413.086 14.4922C413.029 14.2839 412.992 14.0755 412.977 13.8672C412.784 14.2057 412.471 14.5052 412.039 14.7656C411.612 15.026 411.062 15.1562 410.391 15.1562C409.609 15.1562 408.948 14.9375 408.406 14.5C407.87 14.0573 407.602 13.4219 407.602 12.5938ZM409.023 12.5234C409.023 12.9922 409.159 13.3594 409.43 13.625C409.701 13.8854 410.122 14.0156 410.695 14.0156C411.268 14.0156 411.786 13.8177 412.25 13.4219C412.714 13.026 412.945 12.6068 412.945 12.1641V10.9922H411.242C410.513 10.9922 409.961 11.1302 409.586 11.4062C409.211 11.6823 409.023 12.0547 409.023 12.5234ZM416.617 15V3.03125H418.039V7.79688C418.279 7.45833 418.599 7.1875 419 6.98438C419.406 6.77604 419.893 6.67188 420.461 6.67188C421.497 6.67188 422.326 7.0599 422.945 7.83594C423.565 8.61198 423.875 9.59635 423.875 10.7891V11.0391C423.875 12.2266 423.565 13.2109 422.945 13.9922C422.326 14.7682 421.497 15.1562 420.461 15.1562C419.893 15.1562 419.393 15.0391 418.961 14.8047C418.534 14.5651 418.216 14.276 418.008 13.9375H417.961L417.906 15H416.617ZM418.039 12.5859C418.201 12.9505 418.464 13.276 418.828 13.5625C419.193 13.8438 419.635 13.9844 420.156 13.9844C420.938 13.9844 421.508 13.7031 421.867 13.1406C422.232 12.5729 422.414 11.8724 422.414 11.0391V10.7891C422.414 9.95573 422.232 9.25781 421.867 8.69531C421.508 8.1276 420.938 7.84375 420.156 7.84375C419.635 7.84375 419.193 7.98698 418.828 8.27344C418.464 8.55469 418.201 8.8776 418.039 9.24219V12.5859ZM425.227 12.5938C425.227 11.7708 425.552 11.1276 426.203 10.6641C426.859 10.2005 427.695 9.96875 428.711 9.96875H430.57V9.39844C430.57 8.90365 430.443 8.5026 430.188 8.19531C429.932 7.88802 429.492 7.73438 428.867 7.73438C428.242 7.73438 427.794 7.86458 427.523 8.125C427.258 8.38021 427.125 8.67708 427.125 9.01562V9.0625H425.703V9.01562C425.703 8.36979 425.99 7.80729 426.562 7.32812C427.141 6.84375 427.922 6.60156 428.906 6.60156C429.885 6.60156 430.643 6.83594 431.18 7.30469C431.721 7.76823 431.992 8.46615 431.992 9.39844V13.125C431.992 13.4635 432.018 13.7839 432.07 14.0859C432.122 14.3828 432.195 14.6458 432.289 14.875V15H430.914C430.841 14.8698 430.773 14.7005 430.711 14.4922C430.654 14.2839 430.617 14.0755 430.602 13.8672C430.409 14.2057 430.096 14.5052 429.664 14.7656C429.237 15.026 428.688 15.1562 428.016 15.1562C427.234 15.1562 426.573 14.9375 426.031 14.5C425.495 14.0573 425.227 13.4219 425.227 12.5938ZM426.648 12.5234C426.648 12.9922 426.784 13.3594 427.055 13.625C427.326 13.8854 427.747 14.0156 428.32 14.0156C428.893 14.0156 429.411 13.8177 429.875 13.4219C430.339 13.026 430.57 12.6068 430.57 12.1641V10.9922H428.867C428.138 10.9922 427.586 11.1302 427.211 11.4062C426.836 11.6823 426.648 12.0547 426.648 12.5234ZM433.719 12.5859H435.148V12.6328C435.148 13.1068 435.32 13.4635 435.664 13.7031C436.013 13.9427 436.474 14.0625 437.047 14.0625C437.62 14.0625 438.07 13.9479 438.398 13.7188C438.732 13.4896 438.898 13.1927 438.898 12.8281C438.898 12.4635 438.763 12.1849 438.492 11.9922C438.227 11.7943 437.656 11.5911 436.781 11.3828C435.901 11.1745 435.203 10.8828 434.688 10.5078C434.172 10.1328 433.914 9.60938 433.914 8.9375C433.914 8.26562 434.19 7.70833 434.742 7.26562C435.299 6.82292 436.044 6.60156 436.977 6.60156C437.904 6.60156 438.651 6.82292 439.219 7.26562C439.786 7.70312 440.07 8.29948 440.07 9.05469V9.10156H438.648V9.03125C438.648 8.63542 438.51 8.32552 438.234 8.10156C437.964 7.8776 437.544 7.76562 436.977 7.76562C436.404 7.76562 435.984 7.86979 435.719 8.07812C435.458 8.28646 435.328 8.54688 435.328 8.85938C435.328 9.17188 435.477 9.42188 435.773 9.60938C436.076 9.79167 436.667 9.98698 437.547 10.1953C438.427 10.4036 439.104 10.7005 439.578 11.0859C440.057 11.4714 440.297 12.026 440.297 12.75C440.297 13.474 440.026 14.0703 439.484 14.5391C438.943 15.0026 438.13 15.2344 437.047 15.2344C435.964 15.2344 435.138 14.9974 434.57 14.5234C434.003 14.0495 433.719 13.4193 433.719 12.6328V12.5859ZM441.578 11.0391V10.7891C441.578 9.55469 441.914 8.54948 442.586 7.77344C443.263 6.99219 444.156 6.60156 445.266 6.60156C446.375 6.60156 447.229 6.96615 447.828 7.69531C448.427 8.41927 448.727 9.40365 448.727 10.6484V11.2344H442.445V10.0938H447.289V9.91406C447.289 9.32031 447.12 8.8151 446.781 8.39844C446.448 7.97656 445.961 7.76562 445.32 7.76562C444.555 7.76562 443.982 8.05729 443.602 8.64062C443.221 9.22396 443.031 9.9401 443.031 10.7891V11.0391C443.031 11.888 443.232 12.6042 443.633 13.1875C444.034 13.7708 444.654 14.0625 445.492 14.0625C446.013 14.0625 446.458 13.9505 446.828 13.7266C447.203 13.4974 447.508 13.2266 447.742 12.9141L448.664 13.6406C448.404 14.0312 448.003 14.3958 447.461 14.7344C446.924 15.0677 446.268 15.2344 445.492 15.2344C444.227 15.2344 443.258 14.8438 442.586 14.0625C441.914 13.2812 441.578 12.2734 441.578 11.0391Z" fill="#D91620"/>
<path d="M233.125 141.422V127.625H236.812V128.852H234.547V140.195H236.812V141.422H233.125ZM238.273 135.414V131.211C238.273 130.06 238.591 129.135 239.227 128.438C239.867 127.74 240.755 127.391 241.891 127.391C243.016 127.391 243.901 127.74 244.547 128.438C245.193 129.135 245.516 130.06 245.516 131.211V135.414C245.516 136.565 245.193 137.49 244.547 138.188C243.901 138.885 243.016 139.234 241.891 139.234C240.755 139.229 239.867 138.88 239.227 138.188C238.591 137.49 238.273 136.565 238.273 135.414ZM239.758 135.492C239.758 136.232 239.932 136.839 240.281 137.312C240.63 137.781 241.167 138.016 241.891 138.016C242.62 138.016 243.159 137.781 243.508 137.312C243.857 136.839 244.031 136.232 244.031 135.492V131.133C244.031 130.393 243.857 129.789 243.508 129.32C243.159 128.846 242.62 128.609 241.891 128.609C241.167 128.609 240.63 128.846 240.281 129.32C239.932 129.789 239.758 130.393 239.758 131.133V135.492ZM247.625 138.211C247.625 137.94 247.711 137.711 247.883 137.523C248.055 137.336 248.302 137.242 248.625 137.242C248.948 137.242 249.195 137.336 249.367 137.523C249.539 137.711 249.625 137.94 249.625 138.211C249.625 138.477 249.539 138.703 249.367 138.891C249.195 139.078 248.948 139.172 248.625 139.172C248.302 139.172 248.055 139.078 247.883 138.891C247.711 138.703 247.625 138.477 247.625 138.211ZM251.727 135.414V131.211C251.727 130.06 252.044 129.135 252.68 128.438C253.32 127.74 254.208 127.391 255.344 127.391C256.469 127.391 257.354 127.74 258 128.438C258.646 129.135 258.969 130.06 258.969 131.211V135.414C258.969 136.565 258.646 137.49 258 138.188C257.354 138.885 256.469 139.234 255.344 139.234C254.208 139.229 253.32 138.88 252.68 138.188C252.044 137.49 251.727 136.565 251.727 135.414ZM253.211 135.492C253.211 136.232 253.385 136.839 253.734 137.312C254.083 137.781 254.62 138.016 255.344 138.016C256.073 138.016 256.612 137.781 256.961 137.312C257.31 136.839 257.484 136.232 257.484 135.492V131.133C257.484 130.393 257.31 129.789 256.961 129.32C256.612 128.846 256.073 128.609 255.344 128.609C254.62 128.609 254.083 128.846 253.734 129.32C253.385 129.789 253.211 130.393 253.211 131.133V135.492ZM260.703 140.68C260.948 140.352 261.135 140.016 261.266 139.672C261.401 139.328 261.469 138.924 261.469 138.461V137.305H262.852V138.461C262.852 139.023 262.729 139.539 262.484 140.008C262.24 140.482 261.914 140.891 261.508 141.234L260.703 140.68ZM269.453 138.211C269.453 137.94 269.539 137.711 269.711 137.523C269.883 137.336 270.13 137.242 270.453 137.242C270.776 137.242 271.023 137.336 271.195 137.523C271.367 137.711 271.453 137.94 271.453 138.211C271.453 138.477 271.367 138.703 271.195 138.891C271.023 139.078 270.776 139.172 270.453 139.172C270.13 139.172 269.883 139.078 269.711 138.891C269.539 138.703 269.453 138.477 269.453 138.211ZM273.953 138.211C273.953 137.94 274.039 137.711 274.211 137.523C274.383 137.336 274.63 137.242 274.953 137.242C275.276 137.242 275.523 137.336 275.695 137.523C275.867 137.711 275.953 137.94 275.953 138.211C275.953 138.477 275.867 138.703 275.695 138.891C275.523 139.078 275.276 139.172 274.953 139.172C274.63 139.172 274.383 139.078 274.211 138.891C274.039 138.703 273.953 138.477 273.953 138.211ZM278.453 138.211C278.453 137.94 278.539 137.711 278.711 137.523C278.883 137.336 279.13 137.242 279.453 137.242C279.776 137.242 280.023 137.336 280.195 137.523C280.367 137.711 280.453 137.94 280.453 138.211C280.453 138.477 280.367 138.703 280.195 138.891C280.023 139.078 279.776 139.172 279.453 139.172C279.13 139.172 278.883 139.078 278.711 138.891C278.539 138.703 278.453 138.477 278.453 138.211ZM282.578 140.68C282.823 140.352 283.01 140.016 283.141 139.672C283.276 139.328 283.344 138.924 283.344 138.461V137.305H284.727V138.461C284.727 139.023 284.604 139.539 284.359 140.008C284.115 140.482 283.789 140.891 283.383 141.234L282.578 140.68ZM294.258 139V129.234L291.391 130.438V129.008L295.484 127.469H295.734V139H294.258ZM300.281 138.211C300.281 137.94 300.367 137.711 300.539 137.523C300.711 137.336 300.958 137.242 301.281 137.242C301.604 137.242 301.852 137.336 302.023 137.523C302.195 137.711 302.281 137.94 302.281 138.211C302.281 138.477 302.195 138.703 302.023 138.891C301.852 139.078 301.604 139.172 301.281 139.172C300.958 139.172 300.711 139.078 300.539 138.891C300.367 138.703 300.281 138.477 300.281 138.211ZM304.383 135.414V131.211C304.383 130.06 304.701 129.135 305.336 128.438C305.977 127.74 306.865 127.391 308 127.391C309.125 127.391 310.01 127.74 310.656 128.438C311.302 129.135 311.625 130.06 311.625 131.211V135.414C311.625 136.565 311.302 137.49 310.656 138.188C310.01 138.885 309.125 139.234 308 139.234C306.865 139.229 305.977 138.88 305.336 138.188C304.701 137.49 304.383 136.565 304.383 135.414ZM305.867 135.492C305.867 136.232 306.042 136.839 306.391 137.312C306.74 137.781 307.276 138.016 308 138.016C308.729 138.016 309.268 137.781 309.617 137.312C309.966 136.839 310.141 136.232 310.141 135.492V131.133C310.141 130.393 309.966 129.789 309.617 129.32C309.268 128.846 308.729 128.609 308 128.609C307.276 128.609 306.74 128.846 306.391 129.32C306.042 129.789 305.867 130.393 305.867 131.133V135.492ZM316.781 141.422H313.102V140.195H315.367V128.852H313.102V127.625H316.781V141.422Z" fill="#D91620"/>
<rect x="189" y="29" width="408" height="209" stroke="#D91620" stroke-width="4" stroke-dasharray="8 8"/>
</svg>
