<svg width="327" height="183" viewBox="0 0 327 183" fill="none" xmlns="http://www.w3.org/2000/svg">
<g clip-path="url(#clip0_18_3)">
<rect x="141" y="75" width="91" height="33" fill="#D91620"/>
<path d="M232 2L139 2L139 37.8M232 2L325 2L325 37.8M232 2L232 37.8M232 145.2L232 109.4M232 145.2L232 181M232 145.2L325 145.2M232 145.2L139 145.2M232 73.6L232 37.8M232 73.6L232 109.4M232 73.6L139 73.6M232 73.6L325 73.6M232 37.8L139 37.8M232 37.8L325 37.8M232 109.4L139 109.4M232 109.4L325 109.4M232 181L139 181L139 145.2M232 181L325 181L325 145.2M139 145.2L139 109.4M139 73.6L139 109.4M139 73.6L139 37.8M139 109.4L139 37.8M325 145.2L325 109.4M325 73.6L325 109.4M325 73.6L325 37.8M325 109.4L325 37.8" stroke="#F7F7F7" stroke-width="4"/>
<path d="M15.755 94.255H14.965L14.685 93.985C15.665 92.845 16.255 91.365 16.255 89.755C16.255 86.165 13.345 83.255 9.755 83.255C6.165 83.255 3.255 86.165 3.255 89.755C3.255 93.345 6.165 96.255 9.755 96.255C11.365 96.255 12.845 95.665 13.985 94.685L14.255 94.965V95.755L19.255 100.745L20.745 99.255L15.755 94.255ZM9.755 94.255C7.265 94.255 5.255 92.245 5.255 89.755C5.255 87.265 7.265 85.255 9.755 85.255C12.245 85.255 14.255 87.265 14.255 89.755C14.255 92.245 12.245 94.255 9.755 94.255Z" fill="#F7F7F7"/>
<path d="M125 92L105 80.453V103.547L125 92ZM32 94H107V90H32V94Z" fill="#D91620"/>
</g>
<defs>
<clipPath id="clip0_18_3">
<rect width="327" height="183" fill="white"/>
</clipPath>
</defs>
</svg>
