<svg width="327" height="183" viewBox="0 0 327 183" fill="none" xmlns="http://www.w3.org/2000/svg">
<g clip-path="url(#clip0_18_24)">
<rect x="141" y="2" width="91" height="178" fill="#D91620"/>
<path d="M232 2L139 2L139 37.8M232 2L325 2L325 37.8M232 2L232 37.8M232 145.2L232 109.4M232 145.2L232 181M232 145.2L325 145.2M232 145.2L139 145.2M232 73.6L232 37.8M232 73.6L232 109.4M232 73.6L139 73.6M232 73.6L325 73.6M232 37.8L139 37.8M232 37.8L325 37.8M232 109.4L139 109.4M232 109.4L325 109.4M232 181L139 181L139 145.2M232 181L325 181L325 145.2M139 145.2L139 109.4M139 73.6L139 109.4M139 73.6L139 37.8M139 109.4L139 37.8M325 145.2L325 109.4M325 73.6L325 109.4M325 73.6L325 37.8M325 109.4L325 37.8" stroke="#F7F7F7" stroke-width="4"/>
<path d="M15.755 94.255H14.965L14.685 93.985C15.665 92.845 16.255 91.365 16.255 89.755C16.255 86.165 13.345 83.255 9.755 83.255C6.165 83.255 3.255 86.165 3.255 89.755C3.255 93.345 6.165 96.255 9.755 96.255C11.365 96.255 12.845 95.665 13.985 94.685L14.255 94.965V95.755L19.255 100.745L20.745 99.255L15.755 94.255ZM9.755 94.255C7.265 94.255 5.255 92.245 5.255 89.755C5.255 87.265 7.265 85.255 9.755 85.255C12.245 85.255 14.255 87.265 14.255 89.755C14.255 92.245 12.245 94.255 9.755 94.255Z" fill="#F7F7F7"/>
<path d="M125 92L105 80.453V103.547L125 92ZM125 58L102.237 54.102L110.243 75.764L125 58ZM125 23L102.072 25.7624L115.928 44.2376L125 23ZM125 125.5L110.158 107.807L102.256 129.507L125 125.5ZM125 161.5L116.002 140.231L102.082 158.658L125 161.5ZM33 94H107V90H33V94ZM33.6933 93.876L108.809 66.1157L107.423 62.3637L32.3067 90.124L33.6933 93.876ZM33 90H32V94H33V90ZM34.2 93.6L111.8 35.4L109.4 32.2L31.8 90.4L34.2 93.6ZM32.3157 93.8793L107.402 121.221L108.771 117.462L33.6843 90.1207L32.3157 93.8793ZM31.7945 93.5958L109.432 152.246L111.843 149.054L34.2055 90.4042L31.7945 93.5958Z" fill="#D91620"/>
</g>
<defs>
<clipPath id="clip0_18_24">
<rect width="327" height="183" fill="white"/>
</clipPath>
</defs>
</svg>
