<svg width="300" height="300" viewBox="0 0 300 300" fill="none" xmlns="http://www.w3.org/2000/svg">
<g clip-path="url(#clip0_18_129)">
<path fill-rule="evenodd" clip-rule="evenodd" d="M67.0323 70.6662L84 55L89.0834 77.5276L79.9675 74.6911L17.8697 274.261L127.578 101.801L119.522 96.6772L140 86L139.008 109.073L130.953 103.948L16.1095 284.48L214.803 223.001L211.981 213.881L234.5 219L218.807 235.943L215.985 226.822L12.0912 289.911C11.3818 290.13 10.6093 289.939 10.0847 289.413C9.56004 288.888 9.3697 288.115 9.59031 287.406L76.1482 73.5027L67.0323 70.6662Z" fill="#0A0A0A"/>
<path d="M63.6562 40.0391V39.7891C63.6562 38.5964 63.9661 37.612 64.5859 36.8359C65.2057 36.0599 66.0339 35.6719 67.0703 35.6719C67.6432 35.6719 68.1406 35.7917 68.5625 36.0312C68.9896 36.2708 69.3073 36.5573 69.5156 36.8906H69.5625L69.625 35.8281H70.9141V47.2578H69.4844V43.0312C69.2448 43.3698 68.9245 43.6432 68.5234 43.8516C68.1224 44.0547 67.6354 44.1562 67.0625 44.1562C66.0312 44.1562 65.2057 43.7682 64.5859 42.9922C63.9661 42.2161 63.6562 41.2318 63.6562 40.0391ZM65.1094 40.0391C65.1094 40.8724 65.2917 41.5729 65.6562 42.1406C66.0208 42.7031 66.5938 42.9844 67.375 42.9844C67.8958 42.9844 68.3385 42.8438 68.7031 42.5625C69.0677 42.276 69.3281 41.9505 69.4844 41.5859V38.2422C69.3229 37.8776 69.0599 37.5547 68.6953 37.2734C68.3359 36.987 67.8958 36.8438 67.375 36.8438C66.5938 36.8438 66.0208 37.1276 65.6562 37.6953C65.2917 38.2578 65.1094 38.9557 65.1094 39.7891V40.0391ZM73.1328 41.1094V35.8281H74.5547V41.125C74.5547 41.7812 74.7005 42.2526 74.9922 42.5391C75.2891 42.8203 75.7083 42.9609 76.25 42.9609C76.7135 42.9609 77.1198 42.8359 77.4688 42.5859C77.8229 42.3307 78.1016 42.0052 78.3047 41.6094V35.8281H79.7266V44H78.4375L78.375 42.9453H78.3359C78.0391 43.3203 77.6771 43.6172 77.25 43.8359C76.8229 44.0495 76.349 44.1562 75.8281 44.1562C75.0052 44.1562 74.349 43.9219 73.8594 43.4531C73.375 42.9844 73.1328 42.2031 73.1328 41.1094ZM81.5312 40.0391V39.7891C81.5312 38.5547 81.8672 37.5495 82.5391 36.7734C83.2161 35.9922 84.1094 35.6016 85.2188 35.6016C86.3281 35.6016 87.1823 35.9661 87.7812 36.6953C88.3802 37.4193 88.6797 38.4036 88.6797 39.6484V40.2344H82.3984V39.0938H87.2422V38.9141C87.2422 38.3203 87.0729 37.8151 86.7344 37.3984C86.401 36.9766 85.9141 36.7656 85.2734 36.7656C84.5078 36.7656 83.9349 37.0573 83.5547 37.6406C83.1745 38.224 82.9844 38.9401 82.9844 39.7891V40.0391C82.9844 40.888 83.1849 41.6042 83.5859 42.1875C83.987 42.7708 84.6068 43.0625 85.4453 43.0625C85.9661 43.0625 86.4115 42.9505 86.7812 42.7266C87.1562 42.4974 87.4609 42.2266 87.6953 41.9141L88.6172 42.6406C88.3568 43.0312 87.9557 43.3958 87.4141 43.7344C86.8776 44.0677 86.2214 44.2344 85.4453 44.2344C84.1797 44.2344 83.2109 43.8438 82.5391 43.0625C81.8672 42.2812 81.5312 41.2734 81.5312 40.0391ZM89.9531 40.0391V39.7891C89.9531 38.5547 90.2891 37.5495 90.9609 36.7734C91.638 35.9922 92.5312 35.6016 93.6406 35.6016C94.75 35.6016 95.6042 35.9661 96.2031 36.6953C96.8021 37.4193 97.1016 38.4036 97.1016 39.6484V40.2344H90.8203V39.0938H95.6641V38.9141C95.6641 38.3203 95.4948 37.8151 95.1562 37.3984C94.8229 36.9766 94.3359 36.7656 93.6953 36.7656C92.9297 36.7656 92.3568 37.0573 91.9766 37.6406C91.5964 38.224 91.4062 38.9401 91.4062 39.7891V40.0391C91.4062 40.888 91.6068 41.6042 92.0078 42.1875C92.4089 42.7708 93.0286 43.0625 93.8672 43.0625C94.388 43.0625 94.8333 42.9505 95.2031 42.7266C95.5781 42.4974 95.8828 42.2266 96.1172 41.9141L97.0391 42.6406C96.7786 43.0312 96.3776 43.3958 95.8359 43.7344C95.2995 44.0677 94.6432 44.2344 93.8672 44.2344C92.6016 44.2344 91.6328 43.8438 90.9609 43.0625C90.2891 42.2812 89.9531 41.2734 89.9531 40.0391ZM98.8672 44V35.8281H100.156L100.211 36.8828H100.258C100.555 36.5078 100.917 36.2135 101.344 36C101.771 35.7812 102.245 35.6719 102.766 35.6719C103.589 35.6719 104.242 35.9062 104.727 36.375C105.216 36.8438 105.461 37.625 105.461 38.7188V44H104.039V38.7109C104.039 38.0547 103.891 37.5859 103.594 37.3047C103.302 37.0182 102.885 36.875 102.344 36.875C101.88 36.875 101.471 37 101.117 37.25C100.763 37.5 100.487 37.8229 100.289 38.2188V44H98.8672Z" fill="#0A0A0A"/>
<path d="M129.148 76V64.0312H130.57V71.5859L134.07 67.8281H135.688L130.57 73.2656V76H129.148ZM134.398 76L131.211 71.7578L132.102 70.7734L136.07 76H134.398ZM137.172 76V67.8281H138.594V76H137.172ZM136.992 65.3359C136.992 65.0911 137.068 64.888 137.219 64.7266C137.375 64.5599 137.596 64.4766 137.883 64.4766C138.169 64.4766 138.388 64.5599 138.539 64.7266C138.695 64.888 138.773 65.0911 138.773 65.3359C138.773 65.5755 138.695 65.7786 138.539 65.9453C138.388 66.1068 138.169 66.1875 137.883 66.1875C137.596 66.1875 137.375 66.1068 137.219 65.9453C137.068 65.7786 136.992 65.5755 136.992 65.3359ZM140.961 76V67.8281H142.25L142.305 68.8828H142.352C142.648 68.5078 143.01 68.2135 143.438 68C143.865 67.7812 144.339 67.6719 144.859 67.6719C145.682 67.6719 146.336 67.9062 146.82 68.375C147.31 68.8438 147.555 69.625 147.555 70.7188V76H146.133V70.7109C146.133 70.0547 145.984 69.5859 145.688 69.3047C145.396 69.0182 144.979 68.875 144.438 68.875C143.974 68.875 143.565 69 143.211 69.25C142.857 69.5 142.581 69.8229 142.383 70.2188V76H140.961ZM149.586 78.2344L150.477 77.1562C150.706 77.4167 151.026 77.6484 151.438 77.8516C151.854 78.0599 152.323 78.1641 152.844 78.1641C153.542 78.1641 154.094 77.9609 154.5 77.5547C154.906 77.1536 155.109 76.5833 155.109 75.8438V75.0312C154.875 75.3698 154.555 75.6432 154.148 75.8516C153.747 76.0547 153.26 76.1562 152.688 76.1562C151.656 76.1562 150.831 75.7682 150.211 74.9922C149.591 74.2161 149.281 73.2318 149.281 72.0391V71.7891C149.281 70.5964 149.591 69.612 150.211 68.8359C150.831 68.0599 151.656 67.6719 152.688 67.6719C153.26 67.6719 153.76 67.7917 154.188 68.0312C154.615 68.2708 154.932 68.5573 155.141 68.8906H155.188L155.25 67.8281H156.539V75.8438C156.539 76.9896 156.201 77.8698 155.523 78.4844C154.846 79.099 153.966 79.4062 152.883 79.4062C152.211 79.4062 151.591 79.2943 151.023 79.0703C150.456 78.8516 149.977 78.5729 149.586 78.2344ZM150.734 72.0391C150.734 72.8724 150.917 73.5729 151.281 74.1406C151.646 74.7031 152.219 74.9844 153 74.9844C153.521 74.9844 153.964 74.8411 154.328 74.5547C154.693 74.2682 154.953 73.9427 155.109 73.5781V70.2422C154.953 69.8776 154.693 69.5547 154.328 69.2734C153.964 68.987 153.521 68.8438 153 68.8438C152.219 68.8438 151.646 69.1276 151.281 69.6953C150.917 70.2578 150.734 70.9557 150.734 71.7891V72.0391Z" fill="#0A0A0A"/>
<path d="M243.656 219.039V218.789C243.656 217.555 243.99 216.549 244.656 215.773C245.328 214.992 246.247 214.602 247.414 214.602C248.503 214.602 249.328 214.893 249.891 215.477C250.453 216.06 250.734 216.719 250.734 217.453V217.492H249.352V217.453C249.352 217.005 249.198 216.612 248.891 216.273C248.583 215.935 248.094 215.766 247.422 215.766C246.63 215.766 246.047 216.057 245.672 216.641C245.297 217.219 245.109 217.935 245.109 218.789V219.039C245.109 219.888 245.297 220.604 245.672 221.188C246.047 221.771 246.628 222.062 247.414 222.062C248.091 222.062 248.583 221.893 248.891 221.555C249.198 221.216 249.352 220.823 249.352 220.375V220.336H250.734V220.375C250.734 221.104 250.453 221.763 249.891 222.352C249.328 222.94 248.503 223.234 247.414 223.234C246.247 223.234 245.328 222.844 244.656 222.062C243.99 221.281 243.656 220.273 243.656 219.039ZM251.961 220.594C251.961 219.771 252.286 219.128 252.938 218.664C253.594 218.201 254.43 217.969 255.445 217.969H257.305V217.398C257.305 216.904 257.177 216.503 256.922 216.195C256.667 215.888 256.227 215.734 255.602 215.734C254.977 215.734 254.529 215.865 254.258 216.125C253.992 216.38 253.859 216.677 253.859 217.016V217.062H252.438V217.016C252.438 216.37 252.724 215.807 253.297 215.328C253.875 214.844 254.656 214.602 255.641 214.602C256.62 214.602 257.378 214.836 257.914 215.305C258.456 215.768 258.727 216.466 258.727 217.398V221.125C258.727 221.464 258.753 221.784 258.805 222.086C258.857 222.383 258.93 222.646 259.023 222.875V223H257.648C257.576 222.87 257.508 222.701 257.445 222.492C257.388 222.284 257.352 222.076 257.336 221.867C257.143 222.206 256.831 222.505 256.398 222.766C255.971 223.026 255.422 223.156 254.75 223.156C253.969 223.156 253.307 222.938 252.766 222.5C252.229 222.057 251.961 221.422 251.961 220.594ZM253.383 220.523C253.383 220.992 253.518 221.359 253.789 221.625C254.06 221.885 254.482 222.016 255.055 222.016C255.628 222.016 256.146 221.818 256.609 221.422C257.073 221.026 257.305 220.607 257.305 220.164V218.992H255.602C254.872 218.992 254.32 219.13 253.945 219.406C253.57 219.682 253.383 220.055 253.383 220.523ZM259.828 215.922V214.828H264.477V215.922H259.828ZM261.289 220.969V215.484V215.258V212.766H262.711V220.969C262.711 221.344 262.784 221.609 262.93 221.766C263.081 221.922 263.312 222 263.625 222C263.771 222 263.911 221.987 264.047 221.961C264.188 221.93 264.331 221.888 264.477 221.836V223C264.341 223.062 264.167 223.117 263.953 223.164C263.74 223.211 263.503 223.234 263.242 223.234C262.648 223.234 262.174 223.055 261.82 222.695C261.466 222.331 261.289 221.755 261.289 220.969Z" fill="#0A0A0A"/>
<path d="M254.656 259.039V258.789C254.656 257.596 254.966 256.612 255.586 255.836C256.206 255.06 257.034 254.672 258.07 254.672C258.638 254.672 259.122 254.776 259.523 254.984C259.93 255.188 260.25 255.456 260.484 255.789V251.031H261.914V263H260.625L260.562 261.93H260.516C260.307 262.268 259.99 262.557 259.562 262.797C259.135 263.036 258.638 263.156 258.07 263.156C257.034 263.156 256.206 262.768 255.586 261.992C254.966 261.216 254.656 260.232 254.656 259.039ZM256.109 259.039C256.109 259.872 256.292 260.573 256.656 261.141C257.021 261.703 257.594 261.984 258.375 261.984C258.896 261.984 259.339 261.844 259.703 261.562C260.068 261.276 260.328 260.951 260.484 260.586V257.242C260.328 256.878 260.068 256.555 259.703 256.273C259.339 255.987 258.896 255.844 258.375 255.844C257.594 255.844 257.021 256.128 256.656 256.695C256.292 257.258 256.109 257.956 256.109 258.789V259.039ZM263.719 259.039V258.789C263.719 257.555 264.068 256.549 264.766 255.773C265.464 254.992 266.396 254.602 267.562 254.602C268.729 254.602 269.661 254.992 270.359 255.773C271.057 256.549 271.406 257.555 271.406 258.789V259.039C271.406 260.273 271.057 261.281 270.359 262.062C269.661 262.844 268.729 263.234 267.562 263.234C266.396 263.234 265.464 262.844 264.766 262.062C264.068 261.281 263.719 260.273 263.719 259.039ZM265.172 258.789V259.039C265.172 259.888 265.372 260.604 265.773 261.188C266.174 261.771 266.771 262.062 267.562 262.062C268.354 262.062 268.948 261.771 269.344 261.188C269.745 260.604 269.945 259.888 269.945 259.039V258.789C269.945 257.94 269.745 257.224 269.344 256.641C268.948 256.057 268.354 255.766 267.562 255.766C266.771 255.766 266.174 256.057 265.773 256.641C265.372 257.224 265.172 257.94 265.172 258.789ZM273.023 265.234L273.914 264.156C274.143 264.417 274.464 264.648 274.875 264.852C275.292 265.06 275.76 265.164 276.281 265.164C276.979 265.164 277.531 264.961 277.938 264.555C278.344 264.154 278.547 263.583 278.547 262.844V262.031C278.312 262.37 277.992 262.643 277.586 262.852C277.185 263.055 276.698 263.156 276.125 263.156C275.094 263.156 274.268 262.768 273.648 261.992C273.029 261.216 272.719 260.232 272.719 259.039V258.789C272.719 257.596 273.029 256.612 273.648 255.836C274.268 255.06 275.094 254.672 276.125 254.672C276.698 254.672 277.198 254.792 277.625 255.031C278.052 255.271 278.37 255.557 278.578 255.891H278.625L278.688 254.828H279.977V262.844C279.977 263.99 279.638 264.87 278.961 265.484C278.284 266.099 277.404 266.406 276.32 266.406C275.648 266.406 275.029 266.294 274.461 266.07C273.893 265.852 273.414 265.573 273.023 265.234ZM274.172 259.039C274.172 259.872 274.354 260.573 274.719 261.141C275.083 261.703 275.656 261.984 276.438 261.984C276.958 261.984 277.401 261.841 277.766 261.555C278.13 261.268 278.391 260.943 278.547 260.578V257.242C278.391 256.878 278.13 256.555 277.766 256.273C277.401 255.987 276.958 255.844 276.438 255.844C275.656 255.844 275.083 256.128 274.719 256.695C274.354 257.258 274.172 257.956 274.172 258.789V259.039Z" fill="#D91620"/>
<path d="M243 259.5L221.739 250.483L224.561 273.404L243 259.5ZM11.7444 289.985L225.379 263.684L224.89 259.714L11.2556 286.015L11.7444 289.985Z" fill="#D91620"/>
<path d="M11.5 0.999987L-0.0470063 21L23.047 21L11.5 0.999987ZM11.5 288L9.49999 288L9.49999 290L11.5 290L11.5 288ZM299 288L279 276.453L279 299.547L299 288ZM9.5 19L9.49999 288L13.5 288L13.5 19L9.5 19ZM11.5 290L281 290L281 286L11.5 286L11.5 290Z" fill="#0A0A0A"/>
</g>
<defs>
<clipPath id="clip0_18_129">
<rect width="300" height="300" fill="white"/>
</clipPath>
</defs>
</svg>
