<svg width="696" height="240" viewBox="0 0 696 240" fill="none" xmlns="http://www.w3.org/2000/svg">
<g clip-path="url(#clip0_1745_40731)">
<path d="M0 5.99999C0 2.68629 2.68629 0 6 0H690C693.314 0 696 2.68629 696 6V234C696 237.314 693.314 240 690 240H5.99999C2.68628 240 0 237.314 0 234V5.99999Z" fill="#F7F7F7"/>
<path d="M313.172 121.891V121.781H314.641V121.891C314.641 122.589 314.872 123.112 315.336 123.461C315.799 123.805 316.445 123.977 317.273 123.977C318.107 123.977 318.742 123.799 319.18 123.445C319.622 123.086 319.844 122.617 319.844 122.039C319.844 121.513 319.63 121.094 319.203 120.781C318.781 120.464 317.977 120.133 316.789 119.789C315.565 119.43 314.695 119.01 314.18 118.531C313.664 118.052 313.406 117.367 313.406 116.477C313.406 115.596 313.74 114.862 314.406 114.273C315.078 113.685 316.01 113.391 317.203 113.391C318.385 113.391 319.328 113.701 320.031 114.32C320.734 114.935 321.086 115.721 321.086 116.68V116.789H319.617V116.68C319.617 116.07 319.414 115.581 319.008 115.211C318.602 114.836 318 114.648 317.203 114.648C316.401 114.648 315.81 114.81 315.43 115.133C315.049 115.451 314.859 115.885 314.859 116.438C314.859 116.938 315.055 117.333 315.445 117.625C315.836 117.911 316.635 118.229 317.844 118.578C319.052 118.922 319.93 119.352 320.477 119.867C321.029 120.383 321.305 121.107 321.305 122.039C321.305 122.971 320.943 123.737 320.219 124.336C319.495 124.935 318.513 125.234 317.273 125.234C316.034 125.234 315.039 124.938 314.289 124.344C313.544 123.745 313.172 122.927 313.172 121.891ZM323.086 125V116.828H324.375L324.43 117.883H324.477C324.685 117.539 324.958 117.24 325.297 116.984C325.635 116.729 326.039 116.602 326.508 116.602C326.622 116.602 326.742 116.615 326.867 116.641C326.992 116.661 327.081 116.682 327.133 116.703V118.023C327.029 118.003 326.919 117.987 326.805 117.977C326.69 117.966 326.565 117.961 326.43 117.961C325.966 117.961 325.568 118.083 325.234 118.328C324.906 118.573 324.664 118.88 324.508 119.25V125H323.086ZM327.859 121.039V120.789C327.859 119.555 328.195 118.549 328.867 117.773C329.544 116.992 330.438 116.602 331.547 116.602C332.656 116.602 333.51 116.966 334.109 117.695C334.708 118.419 335.008 119.404 335.008 120.648V121.234H328.727V120.094H333.57V119.914C333.57 119.32 333.401 118.815 333.062 118.398C332.729 117.977 332.242 117.766 331.602 117.766C330.836 117.766 330.263 118.057 329.883 118.641C329.503 119.224 329.312 119.94 329.312 120.789V121.039C329.312 121.888 329.513 122.604 329.914 123.188C330.315 123.771 330.935 124.062 331.773 124.062C332.294 124.062 332.74 123.951 333.109 123.727C333.484 123.497 333.789 123.227 334.023 122.914L334.945 123.641C334.685 124.031 334.284 124.396 333.742 124.734C333.206 125.068 332.549 125.234 331.773 125.234C330.508 125.234 329.539 124.844 328.867 124.062C328.195 123.281 327.859 122.273 327.859 121.039ZM336.281 121.039V120.789C336.281 119.555 336.617 118.549 337.289 117.773C337.966 116.992 338.859 116.602 339.969 116.602C341.078 116.602 341.932 116.966 342.531 117.695C343.13 118.419 343.43 119.404 343.43 120.648V121.234H337.148V120.094H341.992V119.914C341.992 119.32 341.823 118.815 341.484 118.398C341.151 117.977 340.664 117.766 340.023 117.766C339.258 117.766 338.685 118.057 338.305 118.641C337.924 119.224 337.734 119.94 337.734 120.789V121.039C337.734 121.888 337.935 122.604 338.336 123.188C338.737 123.771 339.357 124.062 340.195 124.062C340.716 124.062 341.161 123.951 341.531 123.727C341.906 123.497 342.211 123.227 342.445 122.914L343.367 123.641C343.107 124.031 342.706 124.396 342.164 124.734C341.628 125.068 340.971 125.234 340.195 125.234C338.93 125.234 337.961 124.844 337.289 124.062C336.617 123.281 336.281 122.273 336.281 121.039ZM345.195 125V116.828H346.484L346.539 117.883H346.586C346.883 117.508 347.245 117.214 347.672 117C348.099 116.781 348.573 116.672 349.094 116.672C349.917 116.672 350.57 116.906 351.055 117.375C351.544 117.844 351.789 118.625 351.789 119.719V125H350.367V119.711C350.367 119.055 350.219 118.586 349.922 118.305C349.63 118.018 349.214 117.875 348.672 117.875C348.208 117.875 347.799 118 347.445 118.25C347.091 118.5 346.815 118.823 346.617 119.219V125H345.195ZM353.484 122.586H354.914V122.633C354.914 123.107 355.086 123.464 355.43 123.703C355.779 123.943 356.24 124.062 356.812 124.062C357.385 124.062 357.836 123.948 358.164 123.719C358.497 123.49 358.664 123.193 358.664 122.828C358.664 122.464 358.529 122.185 358.258 121.992C357.992 121.794 357.422 121.591 356.547 121.383C355.667 121.174 354.969 120.883 354.453 120.508C353.938 120.133 353.68 119.609 353.68 118.938C353.68 118.266 353.956 117.708 354.508 117.266C355.065 116.823 355.81 116.602 356.742 116.602C357.669 116.602 358.417 116.823 358.984 117.266C359.552 117.703 359.836 118.299 359.836 119.055V119.102H358.414V119.031C358.414 118.635 358.276 118.326 358 118.102C357.729 117.878 357.31 117.766 356.742 117.766C356.169 117.766 355.75 117.87 355.484 118.078C355.224 118.286 355.094 118.547 355.094 118.859C355.094 119.172 355.242 119.422 355.539 119.609C355.841 119.792 356.432 119.987 357.312 120.195C358.193 120.404 358.87 120.701 359.344 121.086C359.823 121.471 360.062 122.026 360.062 122.75C360.062 123.474 359.792 124.07 359.25 124.539C358.708 125.003 357.896 125.234 356.812 125.234C355.729 125.234 354.904 124.997 354.336 124.523C353.768 124.049 353.484 123.419 353.484 122.633V122.586ZM361.836 125V113.031H363.258V117.844C363.544 117.49 363.911 117.206 364.359 116.992C364.807 116.779 365.294 116.672 365.82 116.672C366.586 116.672 367.211 116.906 367.695 117.375C368.185 117.844 368.43 118.625 368.43 119.719V125H367.008V119.711C367.008 119.055 366.859 118.586 366.562 118.305C366.271 118.018 365.854 117.875 365.312 117.875C364.849 117.875 364.44 118 364.086 118.25C363.732 118.5 363.456 118.823 363.258 119.219V125H361.836ZM370.156 121.039V120.789C370.156 119.555 370.505 118.549 371.203 117.773C371.901 116.992 372.833 116.602 374 116.602C375.167 116.602 376.099 116.992 376.797 117.773C377.495 118.549 377.844 119.555 377.844 120.789V121.039C377.844 122.273 377.495 123.281 376.797 124.062C376.099 124.844 375.167 125.234 374 125.234C372.833 125.234 371.901 124.844 371.203 124.062C370.505 123.281 370.156 122.273 370.156 121.039ZM371.609 120.789V121.039C371.609 121.888 371.81 122.604 372.211 123.188C372.612 123.771 373.208 124.062 374 124.062C374.792 124.062 375.385 123.771 375.781 123.188C376.182 122.604 376.383 121.888 376.383 121.039V120.789C376.383 119.94 376.182 119.224 375.781 118.641C375.385 118.057 374.792 117.766 374 117.766C373.208 117.766 372.612 118.057 372.211 118.641C371.81 119.224 371.609 119.94 371.609 120.789ZM378.5 117.922V116.828H383.148V117.922H378.5ZM379.961 122.969V117.484V117.258V114.766H381.383V122.969C381.383 123.344 381.456 123.609 381.602 123.766C381.753 123.922 381.984 124 382.297 124C382.443 124 382.583 123.987 382.719 123.961C382.859 123.93 383.003 123.888 383.148 123.836V125C383.013 125.062 382.839 125.117 382.625 125.164C382.411 125.211 382.174 125.234 381.914 125.234C381.32 125.234 380.846 125.055 380.492 124.695C380.138 124.331 379.961 123.755 379.961 122.969Z" fill="#6B6F73"/>
</g>
<defs>
<clipPath id="clip0_1745_40731">
<path d="M0 5.99999C0 2.68629 2.68629 0 6 0H690C693.314 0 696 2.68629 696 6V234C696 237.314 693.314 240 690 240H5.99999C2.68628 240 0 237.314 0 234V5.99999Z" fill="white"/>
</clipPath>
</defs>
</svg>
