<svg width="696" height="240" viewBox="0 0 696 240" fill="none" xmlns="http://www.w3.org/2000/svg">
<g clip-path="url(#clip0_1223_5761)">
<path d="M0 5.99999C0 2.68629 2.68629 0 6 0H690C693.314 0 696 2.68629 696 6V234C696 237.314 693.314 240 690 240H5.99999C2.68628 240 0 237.314 0 234V5.99999Z" fill="#F7F7F7"/>
<path d="M275.602 125L279.883 113.547H281.227L285.508 125H283.977L280.867 116.367C280.805 116.19 280.75 116.023 280.703 115.867C280.656 115.706 280.615 115.536 280.578 115.359H280.5C280.464 115.536 280.422 115.706 280.375 115.867C280.328 116.023 280.273 116.19 280.211 116.367L277.07 125H275.602ZM277.438 122.016L277.883 120.805H283.203L283.648 122.016H277.438ZM286.656 125V116.828H287.945L288 117.883H288.047C288.255 117.539 288.529 117.24 288.867 116.984C289.206 116.729 289.609 116.602 290.078 116.602C290.193 116.602 290.312 116.615 290.438 116.641C290.562 116.661 290.651 116.682 290.703 116.703V118.023C290.599 118.003 290.49 117.987 290.375 117.977C290.26 117.966 290.135 117.961 290 117.961C289.536 117.961 289.138 118.083 288.805 118.328C288.477 118.573 288.234 118.88 288.078 119.25V125H286.656ZM291.43 121.039V120.789C291.43 119.555 291.763 118.549 292.43 117.773C293.102 116.992 294.021 116.602 295.188 116.602C296.276 116.602 297.102 116.893 297.664 117.477C298.227 118.06 298.508 118.719 298.508 119.453V119.492H297.125V119.453C297.125 119.005 296.971 118.612 296.664 118.273C296.357 117.935 295.867 117.766 295.195 117.766C294.404 117.766 293.82 118.057 293.445 118.641C293.07 119.219 292.883 119.935 292.883 120.789V121.039C292.883 121.888 293.07 122.604 293.445 123.188C293.82 123.771 294.401 124.062 295.188 124.062C295.865 124.062 296.357 123.893 296.664 123.555C296.971 123.216 297.125 122.823 297.125 122.375V122.336H298.508V122.375C298.508 123.104 298.227 123.763 297.664 124.352C297.102 124.94 296.276 125.234 295.188 125.234C294.021 125.234 293.102 124.844 292.43 124.062C291.763 123.281 291.43 122.273 291.43 121.039ZM300.188 125V113.031H301.609V117.844C301.896 117.49 302.263 117.206 302.711 116.992C303.159 116.779 303.646 116.672 304.172 116.672C304.938 116.672 305.562 116.906 306.047 117.375C306.536 117.844 306.781 118.625 306.781 119.719V125H305.359V119.711C305.359 119.055 305.211 118.586 304.914 118.305C304.622 118.018 304.206 117.875 303.664 117.875C303.201 117.875 302.792 118 302.438 118.25C302.083 118.5 301.807 118.823 301.609 119.219V125H300.188ZM309.07 125V116.828H310.492V125H309.07ZM308.891 114.336C308.891 114.091 308.966 113.888 309.117 113.727C309.273 113.56 309.495 113.477 309.781 113.477C310.068 113.477 310.286 113.56 310.438 113.727C310.594 113.888 310.672 114.091 310.672 114.336C310.672 114.576 310.594 114.779 310.438 114.945C310.286 115.107 310.068 115.188 309.781 115.188C309.495 115.188 309.273 115.107 309.117 114.945C308.966 114.779 308.891 114.576 308.891 114.336ZM311.711 117.922V116.828H316.359V117.922H311.711ZM313.172 122.969V117.484V117.258V114.766H314.594V122.969C314.594 123.344 314.667 123.609 314.812 123.766C314.964 123.922 315.195 124 315.508 124C315.654 124 315.794 123.987 315.93 123.961C316.07 123.93 316.214 123.888 316.359 123.836V125C316.224 125.062 316.049 125.117 315.836 125.164C315.622 125.211 315.385 125.234 315.125 125.234C314.531 125.234 314.057 125.055 313.703 124.695C313.349 124.331 313.172 123.755 313.172 122.969ZM317.398 121.039V120.789C317.398 119.555 317.734 118.549 318.406 117.773C319.083 116.992 319.977 116.602 321.086 116.602C322.195 116.602 323.049 116.966 323.648 117.695C324.247 118.419 324.547 119.404 324.547 120.648V121.234H318.266V120.094H323.109V119.914C323.109 119.32 322.94 118.815 322.602 118.398C322.268 117.977 321.781 117.766 321.141 117.766C320.375 117.766 319.802 118.057 319.422 118.641C319.042 119.224 318.852 119.94 318.852 120.789V121.039C318.852 121.888 319.052 122.604 319.453 123.188C319.854 123.771 320.474 124.062 321.312 124.062C321.833 124.062 322.279 123.951 322.648 123.727C323.023 123.497 323.328 123.227 323.562 122.914L324.484 123.641C324.224 124.031 323.823 124.396 323.281 124.734C322.745 125.068 322.089 125.234 321.312 125.234C320.047 125.234 319.078 124.844 318.406 124.062C317.734 123.281 317.398 122.273 317.398 121.039ZM325.82 121.039V120.789C325.82 119.555 326.154 118.549 326.82 117.773C327.492 116.992 328.411 116.602 329.578 116.602C330.667 116.602 331.492 116.893 332.055 117.477C332.617 118.06 332.898 118.719 332.898 119.453V119.492H331.516V119.453C331.516 119.005 331.362 118.612 331.055 118.273C330.747 117.935 330.258 117.766 329.586 117.766C328.794 117.766 328.211 118.057 327.836 118.641C327.461 119.219 327.273 119.935 327.273 120.789V121.039C327.273 121.888 327.461 122.604 327.836 123.188C328.211 123.771 328.792 124.062 329.578 124.062C330.255 124.062 330.747 123.893 331.055 123.555C331.362 123.216 331.516 122.823 331.516 122.375V122.336H332.898V122.375C332.898 123.104 332.617 123.763 332.055 124.352C331.492 124.94 330.667 125.234 329.578 125.234C328.411 125.234 327.492 124.844 326.82 124.062C326.154 123.281 325.82 122.273 325.82 121.039ZM333.43 117.922V116.828H338.078V117.922H333.43ZM334.891 122.969V117.484V117.258V114.766H336.312V122.969C336.312 123.344 336.385 123.609 336.531 123.766C336.682 123.922 336.914 124 337.227 124C337.372 124 337.513 123.987 337.648 123.961C337.789 123.93 337.932 123.888 338.078 123.836V125C337.943 125.062 337.768 125.117 337.555 125.164C337.341 125.211 337.104 125.234 336.844 125.234C336.25 125.234 335.776 125.055 335.422 124.695C335.068 124.331 334.891 123.755 334.891 122.969ZM339.531 122.109V116.828H340.953V122.125C340.953 122.781 341.099 123.253 341.391 123.539C341.688 123.82 342.107 123.961 342.648 123.961C343.112 123.961 343.518 123.836 343.867 123.586C344.221 123.331 344.5 123.005 344.703 122.609V116.828H346.125V125H344.836L344.773 123.945H344.734C344.438 124.32 344.076 124.617 343.648 124.836C343.221 125.049 342.747 125.156 342.227 125.156C341.404 125.156 340.747 124.922 340.258 124.453C339.773 123.984 339.531 123.203 339.531 122.109ZM348.422 125V116.828H349.711L349.766 117.883H349.812C350.021 117.539 350.294 117.24 350.633 116.984C350.971 116.729 351.375 116.602 351.844 116.602C351.958 116.602 352.078 116.615 352.203 116.641C352.328 116.661 352.417 116.682 352.469 116.703V118.023C352.365 118.003 352.255 117.987 352.141 117.977C352.026 117.966 351.901 117.961 351.766 117.961C351.302 117.961 350.904 118.083 350.57 118.328C350.242 118.573 350 118.88 349.844 119.25V125H348.422ZM353.195 121.039V120.789C353.195 119.555 353.531 118.549 354.203 117.773C354.88 116.992 355.773 116.602 356.883 116.602C357.992 116.602 358.846 116.966 359.445 117.695C360.044 118.419 360.344 119.404 360.344 120.648V121.234H354.062V120.094H358.906V119.914C358.906 119.32 358.737 118.815 358.398 118.398C358.065 117.977 357.578 117.766 356.938 117.766C356.172 117.766 355.599 118.057 355.219 118.641C354.839 119.224 354.648 119.94 354.648 120.789V121.039C354.648 121.888 354.849 122.604 355.25 123.188C355.651 123.771 356.271 124.062 357.109 124.062C357.63 124.062 358.076 123.951 358.445 123.727C358.82 123.497 359.125 123.227 359.359 122.914L360.281 123.641C360.021 124.031 359.62 124.396 359.078 124.734C358.542 125.068 357.885 125.234 357.109 125.234C355.844 125.234 354.875 124.844 354.203 124.062C353.531 123.281 353.195 122.273 353.195 121.039ZM366.133 125V113.625H369.477C370.93 113.625 372.135 114.107 373.094 115.07C374.057 116.034 374.539 117.328 374.539 118.953V119.672C374.539 121.297 374.057 122.591 373.094 123.555C372.135 124.518 370.93 125 369.477 125H366.133ZM367.609 123.789H369.477C370.57 123.789 371.44 123.424 372.086 122.695C372.732 121.966 373.055 120.958 373.055 119.672V118.953C373.055 117.667 372.729 116.659 372.078 115.93C371.432 115.201 370.565 114.836 369.477 114.836H367.609V123.789ZM376.648 125V116.828H378.07V125H376.648ZM376.469 114.336C376.469 114.091 376.544 113.888 376.695 113.727C376.852 113.56 377.073 113.477 377.359 113.477C377.646 113.477 377.865 113.56 378.016 113.727C378.172 113.888 378.25 114.091 378.25 114.336C378.25 114.576 378.172 114.779 378.016 114.945C377.865 115.107 377.646 115.188 377.359 115.188C377.073 115.188 376.852 115.107 376.695 114.945C376.544 114.779 376.469 114.576 376.469 114.336ZM379.984 122.594C379.984 121.771 380.31 121.128 380.961 120.664C381.617 120.201 382.453 119.969 383.469 119.969H385.328V119.398C385.328 118.904 385.201 118.503 384.945 118.195C384.69 117.888 384.25 117.734 383.625 117.734C383 117.734 382.552 117.865 382.281 118.125C382.016 118.38 381.883 118.677 381.883 119.016V119.062H380.461V119.016C380.461 118.37 380.747 117.807 381.32 117.328C381.898 116.844 382.68 116.602 383.664 116.602C384.643 116.602 385.401 116.836 385.938 117.305C386.479 117.768 386.75 118.466 386.75 119.398V123.125C386.75 123.464 386.776 123.784 386.828 124.086C386.88 124.383 386.953 124.646 387.047 124.875V125H385.672C385.599 124.87 385.531 124.701 385.469 124.492C385.411 124.284 385.375 124.076 385.359 123.867C385.167 124.206 384.854 124.505 384.422 124.766C383.995 125.026 383.445 125.156 382.773 125.156C381.992 125.156 381.331 124.938 380.789 124.5C380.253 124.057 379.984 123.422 379.984 122.594ZM381.406 122.523C381.406 122.992 381.542 123.359 381.812 123.625C382.083 123.885 382.505 124.016 383.078 124.016C383.651 124.016 384.169 123.818 384.633 123.422C385.096 123.026 385.328 122.607 385.328 122.164V120.992H383.625C382.896 120.992 382.344 121.13 381.969 121.406C381.594 121.682 381.406 122.055 381.406 122.523ZM388.812 127.234L389.703 126.156C389.932 126.417 390.253 126.648 390.664 126.852C391.081 127.06 391.549 127.164 392.07 127.164C392.768 127.164 393.32 126.961 393.727 126.555C394.133 126.154 394.336 125.583 394.336 124.844V124.031C394.102 124.37 393.781 124.643 393.375 124.852C392.974 125.055 392.487 125.156 391.914 125.156C390.883 125.156 390.057 124.768 389.438 123.992C388.818 123.216 388.508 122.232 388.508 121.039V120.789C388.508 119.596 388.818 118.612 389.438 117.836C390.057 117.06 390.883 116.672 391.914 116.672C392.487 116.672 392.987 116.792 393.414 117.031C393.841 117.271 394.159 117.557 394.367 117.891H394.414L394.477 116.828H395.766V124.844C395.766 125.99 395.427 126.87 394.75 127.484C394.073 128.099 393.193 128.406 392.109 128.406C391.438 128.406 390.818 128.294 390.25 128.07C389.682 127.852 389.203 127.573 388.812 127.234ZM389.961 121.039C389.961 121.872 390.143 122.573 390.508 123.141C390.872 123.703 391.445 123.984 392.227 123.984C392.747 123.984 393.19 123.841 393.555 123.555C393.919 123.268 394.18 122.943 394.336 122.578V119.242C394.18 118.878 393.919 118.555 393.555 118.273C393.19 117.987 392.747 117.844 392.227 117.844C391.445 117.844 390.872 118.128 390.508 118.695C390.143 119.258 389.961 119.956 389.961 120.789V121.039ZM398.062 125V116.828H399.352L399.406 117.883H399.453C399.661 117.539 399.935 117.24 400.273 116.984C400.612 116.729 401.016 116.602 401.484 116.602C401.599 116.602 401.719 116.615 401.844 116.641C401.969 116.661 402.057 116.682 402.109 116.703V118.023C402.005 118.003 401.896 117.987 401.781 117.977C401.667 117.966 401.542 117.961 401.406 117.961C400.943 117.961 400.544 118.083 400.211 118.328C399.883 118.573 399.641 118.88 399.484 119.25V125H398.062ZM402.719 122.594C402.719 121.771 403.044 121.128 403.695 120.664C404.352 120.201 405.188 119.969 406.203 119.969H408.062V119.398C408.062 118.904 407.935 118.503 407.68 118.195C407.424 117.888 406.984 117.734 406.359 117.734C405.734 117.734 405.286 117.865 405.016 118.125C404.75 118.38 404.617 118.677 404.617 119.016V119.062H403.195V119.016C403.195 118.37 403.482 117.807 404.055 117.328C404.633 116.844 405.414 116.602 406.398 116.602C407.378 116.602 408.135 116.836 408.672 117.305C409.214 117.768 409.484 118.466 409.484 119.398V123.125C409.484 123.464 409.51 123.784 409.562 124.086C409.615 124.383 409.688 124.646 409.781 124.875V125H408.406C408.333 124.87 408.266 124.701 408.203 124.492C408.146 124.284 408.109 124.076 408.094 123.867C407.901 124.206 407.589 124.505 407.156 124.766C406.729 125.026 406.18 125.156 405.508 125.156C404.727 125.156 404.065 124.938 403.523 124.5C402.987 124.057 402.719 123.422 402.719 122.594ZM404.141 122.523C404.141 122.992 404.276 123.359 404.547 123.625C404.818 123.885 405.24 124.016 405.812 124.016C406.385 124.016 406.904 123.818 407.367 123.422C407.831 123.026 408.062 122.607 408.062 122.164V120.992H406.359C405.63 120.992 405.078 121.13 404.703 121.406C404.328 121.682 404.141 122.055 404.141 122.523ZM411.734 125V116.828H413.023L413.078 117.883H413.125C413.417 117.513 413.768 117.219 414.18 117C414.591 116.781 415.049 116.672 415.555 116.672C416.102 116.672 416.573 116.781 416.969 117C417.37 117.219 417.674 117.573 417.883 118.062H417.922C418.266 117.573 418.643 117.219 419.055 117C419.471 116.781 419.951 116.672 420.492 116.672C421.336 116.672 421.995 116.906 422.469 117.375C422.948 117.844 423.188 118.625 423.188 119.719V125H421.758V119.703C421.758 119.047 421.617 118.578 421.336 118.297C421.06 118.016 420.664 117.875 420.148 117.875C419.701 117.875 419.307 118 418.969 118.25C418.635 118.5 418.37 118.823 418.172 119.219V125H416.75V119.703C416.75 119.047 416.609 118.578 416.328 118.297C416.047 118.016 415.648 117.875 415.133 117.875C414.685 117.875 414.292 118 413.953 118.25C413.62 118.5 413.354 118.823 413.156 119.219V125H411.734Z" fill="#6B6F73"/>
</g>
<defs>
<clipPath id="clip0_1223_5761">
<path d="M0 5.99999C0 2.68629 2.68629 0 6 0H690C693.314 0 696 2.68629 696 6V234C696 237.314 693.314 240 690 240H5.99999C2.68628 240 0 237.314 0 234V5.99999Z" fill="white"/>
</clipPath>
</defs>
</svg>
