<svg width="696" height="340" viewBox="0 0 696 340" fill="none" xmlns="http://www.w3.org/2000/svg">
<path d="M309.939 55L306.397 44.78H307.811L310.989 54.104L310.317 53.768H311.997L311.283 54.104L314.209 44.78H315.581L312.291 55H309.939ZM319.906 55.252C319.253 55.252 318.688 55.14 318.212 54.916C317.736 54.692 317.349 54.398 317.05 54.034C316.752 53.6607 316.528 53.2453 316.378 52.788C316.238 52.3307 316.168 51.864 316.168 51.388V51.136C316.168 50.6507 316.238 50.1793 316.378 49.722C316.528 49.2647 316.752 48.854 317.05 48.49C317.349 48.1167 317.727 47.8227 318.184 47.608C318.651 47.384 319.197 47.272 319.822 47.272C320.634 47.272 321.302 47.4493 321.824 47.804C322.356 48.1493 322.748 48.5973 323 49.148C323.262 49.6987 323.392 50.2867 323.392 50.912V51.514H316.756V50.506H322.412L322.104 51.052C322.104 50.52 322.02 50.0627 321.852 49.68C321.684 49.288 321.432 48.9847 321.096 48.77C320.76 48.5553 320.336 48.448 319.822 48.448C319.29 48.448 318.847 48.5693 318.492 48.812C318.147 49.0547 317.886 49.386 317.708 49.806C317.54 50.226 317.456 50.7113 317.456 51.262C317.456 51.794 317.54 52.2747 317.708 52.704C317.886 53.124 318.156 53.46 318.52 53.712C318.884 53.9547 319.346 54.076 319.906 54.076C320.494 54.076 320.97 53.9453 321.334 53.684C321.708 53.4227 321.932 53.1193 322.006 52.774H323.266C323.164 53.2873 322.958 53.7307 322.65 54.104C322.342 54.4773 321.955 54.762 321.488 54.958C321.022 55.154 320.494 55.252 319.906 55.252ZM328.507 55.252C327.863 55.252 327.303 55.14 326.827 54.916C326.36 54.692 325.973 54.3933 325.665 54.02C325.357 53.6373 325.123 53.2173 324.965 52.76C324.815 52.3027 324.741 51.8453 324.741 51.388V51.136C324.741 50.66 324.815 50.1933 324.965 49.736C325.123 49.2787 325.357 48.868 325.665 48.504C325.982 48.1307 326.374 47.832 326.841 47.608C327.307 47.384 327.853 47.272 328.479 47.272C329.104 47.272 329.664 47.3887 330.159 47.622C330.663 47.8553 331.064 48.1867 331.363 48.616C331.671 49.036 331.843 49.5353 331.881 50.114H330.593C330.527 49.6473 330.313 49.26 329.949 48.952C329.585 48.6347 329.095 48.476 328.479 48.476C327.947 48.476 327.503 48.5973 327.149 48.84C326.794 49.0827 326.528 49.414 326.351 49.834C326.173 50.254 326.085 50.73 326.085 51.262C326.085 51.7753 326.173 52.2467 326.351 52.676C326.528 53.096 326.794 53.432 327.149 53.684C327.513 53.9267 327.965 54.048 328.507 54.048C328.927 54.048 329.291 53.9733 329.599 53.824C329.907 53.6747 330.154 53.474 330.341 53.222C330.527 52.97 330.639 52.6853 330.677 52.368H331.965C331.937 52.956 331.764 53.4647 331.447 53.894C331.139 54.3233 330.728 54.6593 330.215 54.902C329.711 55.1353 329.141 55.252 328.507 55.252ZM336.703 55.084C336.143 55.084 335.658 55.0047 335.247 54.846C334.846 54.6873 334.533 54.4167 334.309 54.034C334.094 53.642 333.987 53.1147 333.987 52.452V45.256H335.275V52.62C335.275 53.0213 335.382 53.334 335.597 53.558C335.821 53.7727 336.134 53.88 336.535 53.88H337.851V55.084H336.703ZM332.699 48.532V47.524H337.851V48.532H332.699ZM343.141 55.252C342.488 55.252 341.914 55.14 341.419 54.916C340.925 54.692 340.505 54.398 340.159 54.034C339.823 53.6607 339.567 53.2453 339.389 52.788C339.221 52.3307 339.137 51.864 339.137 51.388V51.136C339.137 50.66 339.226 50.1933 339.403 49.736C339.581 49.2693 339.842 48.854 340.187 48.49C340.533 48.1167 340.953 47.8227 341.447 47.608C341.942 47.384 342.507 47.272 343.141 47.272C343.776 47.272 344.341 47.384 344.835 47.608C345.33 47.8227 345.75 48.1167 346.095 48.49C346.441 48.854 346.702 49.2693 346.879 49.736C347.057 50.1933 347.145 50.66 347.145 51.136V51.388C347.145 51.864 347.057 52.3307 346.879 52.788C346.711 53.2453 346.455 53.6607 346.109 54.034C345.773 54.398 345.358 54.692 344.863 54.916C344.369 55.14 343.795 55.252 343.141 55.252ZM343.141 54.048C343.701 54.048 344.177 53.9267 344.569 53.684C344.971 53.432 345.274 53.096 345.479 52.676C345.694 52.256 345.801 51.7847 345.801 51.262C345.801 50.73 345.694 50.254 345.479 49.834C345.265 49.414 344.957 49.0827 344.555 48.84C344.163 48.5973 343.692 48.476 343.141 48.476C342.6 48.476 342.129 48.5973 341.727 48.84C341.326 49.0827 341.018 49.414 340.803 49.834C340.589 50.254 340.481 50.73 340.481 51.262C340.481 51.7847 340.584 52.256 340.789 52.676C341.004 53.096 341.307 53.432 341.699 53.684C342.101 53.9267 342.581 54.048 343.141 54.048ZM349.158 55V47.524H350.222V50.604H350.166C350.166 49.512 350.404 48.714 350.88 48.21C351.365 47.6967 352.089 47.44 353.05 47.44H353.302V48.644H352.826C352.079 48.644 351.505 48.8447 351.104 49.246C350.703 49.638 350.502 50.2073 350.502 50.954V55H349.158ZM359.374 55.056V53.796H361.922C362.538 53.796 363.084 53.698 363.56 53.502C364.045 53.2967 364.456 53.0167 364.792 52.662C365.137 52.3073 365.399 51.892 365.576 51.416C365.753 50.94 365.842 50.4267 365.842 49.876C365.842 49.2973 365.753 48.7747 365.576 48.308C365.399 47.832 365.137 47.4213 364.792 47.076C364.456 46.7213 364.045 46.4507 363.56 46.264C363.084 46.0773 362.538 45.984 361.922 45.984H359.374V44.724H361.782C362.706 44.724 363.509 44.8687 364.19 45.158C364.871 45.438 365.436 45.8207 365.884 46.306C366.341 46.782 366.682 47.3187 366.906 47.916C367.13 48.504 367.242 49.106 367.242 49.722V50.03C367.242 50.6273 367.13 51.2247 366.906 51.822C366.682 52.4193 366.341 52.9607 365.884 53.446C365.436 53.9313 364.871 54.3233 364.19 54.622C363.509 54.9113 362.706 55.056 361.782 55.056H359.374ZM358.282 55.056V44.724H359.654V55.056H358.282ZM373.682 55V52.76H373.458V50.17C373.458 49.6567 373.323 49.2693 373.052 49.008C372.791 48.7467 372.403 48.616 371.89 48.616C371.601 48.616 371.302 48.6207 370.994 48.63C370.686 48.6393 370.392 48.6487 370.112 48.658C369.832 48.6673 369.589 48.6813 369.384 48.7V47.524C369.589 47.5053 369.804 47.4913 370.028 47.482C370.261 47.4633 370.499 47.454 370.742 47.454C370.985 47.4447 371.218 47.44 371.442 47.44C372.207 47.44 372.833 47.5333 373.318 47.72C373.803 47.8973 374.163 48.1913 374.396 48.602C374.629 49.0127 374.746 49.568 374.746 50.268V55H373.682ZM371.232 55.196C370.672 55.196 370.187 55.1027 369.776 54.916C369.375 54.72 369.062 54.44 368.838 54.076C368.623 53.712 368.516 53.2733 368.516 52.76C368.516 52.228 368.633 51.7847 368.866 51.43C369.109 51.0753 369.459 50.8093 369.916 50.632C370.373 50.4453 370.924 50.352 371.568 50.352H373.598V51.36H371.512C370.971 51.36 370.555 51.4907 370.266 51.752C369.977 52.0133 369.832 52.3493 369.832 52.76C369.832 53.1707 369.977 53.502 370.266 53.754C370.555 54.006 370.971 54.132 371.512 54.132C371.829 54.132 372.133 54.076 372.422 53.964C372.711 53.8427 372.949 53.6467 373.136 53.376C373.332 53.096 373.439 52.7133 373.458 52.228L373.822 52.76C373.775 53.292 373.645 53.74 373.43 54.104C373.225 54.4587 372.935 54.7293 372.562 54.916C372.198 55.1027 371.755 55.196 371.232 55.196ZM380.125 55.084C379.565 55.084 379.079 55.0047 378.669 54.846C378.267 54.6873 377.955 54.4167 377.731 54.034C377.516 53.642 377.409 53.1147 377.409 52.452V45.256H378.697V52.62C378.697 53.0213 378.804 53.334 379.019 53.558C379.243 53.7727 379.555 53.88 379.957 53.88H381.273V55.084H380.125ZM376.121 48.532V47.524H381.273V48.532H376.121ZM387.668 55V52.76H387.444V50.17C387.444 49.6567 387.309 49.2693 387.038 49.008C386.777 48.7467 386.39 48.616 385.876 48.616C385.587 48.616 385.288 48.6207 384.98 48.63C384.672 48.6393 384.378 48.6487 384.098 48.658C383.818 48.6673 383.576 48.6813 383.37 48.7V47.524C383.576 47.5053 383.79 47.4913 384.014 47.482C384.248 47.4633 384.486 47.454 384.728 47.454C384.971 47.4447 385.204 47.44 385.428 47.44C386.194 47.44 386.819 47.5333 387.304 47.72C387.79 47.8973 388.149 48.1913 388.382 48.602C388.616 49.0127 388.732 49.568 388.732 50.268V55H387.668ZM385.218 55.196C384.658 55.196 384.173 55.1027 383.762 54.916C383.361 54.72 383.048 54.44 382.824 54.076C382.61 53.712 382.502 53.2733 382.502 52.76C382.502 52.228 382.619 51.7847 382.852 51.43C383.095 51.0753 383.445 50.8093 383.902 50.632C384.36 50.4453 384.91 50.352 385.554 50.352H387.584V51.36H385.498C384.957 51.36 384.542 51.4907 384.252 51.752C383.963 52.0133 383.818 52.3493 383.818 52.76C383.818 53.1707 383.963 53.502 384.252 53.754C384.542 54.006 384.957 54.132 385.498 54.132C385.816 54.132 386.119 54.076 386.408 53.964C386.698 53.8427 386.936 53.6467 387.122 53.376C387.318 53.096 387.426 52.7133 387.444 52.228L387.808 52.76C387.762 53.292 387.631 53.74 387.416 54.104C387.211 54.4587 386.922 54.7293 386.548 54.916C386.184 55.1027 385.741 55.196 385.218 55.196Z" fill="white"/>
<path d="M252.5 36C252.5 29.6487 257.649 24.5 264 24.5H432C438.351 24.5 443.5 29.6487 443.5 36V65C443.5 71.3513 438.351 76.5 432 76.5H264C257.649 76.5 252.5 71.3513 252.5 65V36Z" stroke="#611C9B"/>
<path d="M347.646 140.354C347.842 140.549 348.158 140.549 348.354 140.354L351.536 137.172C351.731 136.976 351.731 136.66 351.536 136.464C351.34 136.269 351.024 136.269 350.828 136.464L348 139.293L345.172 136.464C344.976 136.269 344.66 136.269 344.464 136.464C344.269 136.66 344.269 136.976 344.464 137.172L347.646 140.354ZM348.5 140V93H347.5V140H348.5Z" fill="#5A5D60"/>
<path d="M40.7483 254.252C39.899 254.252 39.1756 254.112 38.5783 253.832C37.981 253.552 37.5236 253.165 37.2063 252.67C36.889 252.175 36.7303 251.615 36.7303 250.99H38.1023C38.1023 251.298 38.1816 251.606 38.3403 251.914C38.5083 252.222 38.7836 252.479 39.1663 252.684C39.5583 252.889 40.0856 252.992 40.7483 252.992C41.3643 252.992 41.8683 252.903 42.2603 252.726C42.6523 252.539 42.9416 252.301 43.1283 252.012C43.315 251.713 43.4083 251.391 43.4083 251.046C43.4083 250.626 43.2263 250.281 42.8623 250.01C42.4983 249.73 41.9663 249.557 41.2663 249.492L40.1323 249.394C39.227 249.319 38.5036 249.039 37.9623 248.554C37.421 248.069 37.1503 247.429 37.1503 246.636C37.1503 246.011 37.2996 245.465 37.5983 244.998C37.9063 244.531 38.331 244.167 38.8723 243.906C39.4136 243.635 40.0436 243.5 40.7623 243.5C41.4716 243.5 42.097 243.631 42.6383 243.892C43.1796 244.153 43.5996 244.522 43.8983 244.998C44.2063 245.465 44.3603 246.025 44.3603 246.678H42.9883C42.9883 246.351 42.909 246.043 42.7503 245.754C42.601 245.465 42.363 245.227 42.0363 245.04C41.7096 244.853 41.285 244.76 40.7623 244.76C40.2583 244.76 39.8383 244.849 39.5023 245.026C39.1756 245.203 38.9283 245.437 38.7603 245.726C38.6016 246.006 38.5223 246.309 38.5223 246.636C38.5223 247.009 38.667 247.341 38.9563 247.63C39.2456 247.919 39.675 248.087 40.2443 248.134L41.3783 248.232C42.0783 248.288 42.6803 248.437 43.1843 248.68C43.6976 248.913 44.0896 249.231 44.3603 249.632C44.6403 250.024 44.7803 250.495 44.7803 251.046C44.7803 251.671 44.6123 252.227 44.2763 252.712C43.9403 253.197 43.469 253.575 42.8623 253.846C42.2556 254.117 41.551 254.252 40.7483 254.252ZM47.2506 254V246.524H48.5946V254H47.2506ZM46.1026 247.588V246.524H48.5946V247.588H46.1026ZM47.6286 245.32C47.33 245.32 47.106 245.241 46.9566 245.082C46.8166 244.923 46.7466 244.723 46.7466 244.48C46.7466 244.237 46.8166 244.037 46.9566 243.878C47.106 243.719 47.33 243.64 47.6286 243.64C47.9273 243.64 48.1466 243.719 48.2866 243.878C48.436 244.037 48.5106 244.237 48.5106 244.48C48.5106 244.723 48.436 244.923 48.2866 245.082C48.1466 245.241 47.9273 245.32 47.6286 245.32ZM51.1933 254V246.524H52.2573V249.73H52.0893C52.0893 249.002 52.1826 248.386 52.3693 247.882C52.5653 247.369 52.8546 246.977 53.2373 246.706C53.6199 246.435 54.1053 246.3 54.6933 246.3H54.7493C55.3373 246.3 55.8226 246.435 56.2053 246.706C56.5973 246.977 56.8866 247.369 57.0733 247.882C57.2599 248.386 57.3533 249.002 57.3533 249.73H56.9613C56.9613 249.002 57.0593 248.386 57.2553 247.882C57.4513 247.369 57.7406 246.977 58.1233 246.706C58.5153 246.435 59.0053 246.3 59.5933 246.3H59.6493C60.2373 246.3 60.7273 246.435 61.1193 246.706C61.5113 246.977 61.8006 247.369 61.9873 247.882C62.1833 248.386 62.2813 249.002 62.2813 249.73V254H60.9373V249.436C60.9373 248.829 60.7879 248.363 60.4893 248.036C60.1906 247.7 59.7753 247.532 59.2433 247.532C58.6926 247.532 58.2493 247.709 57.9133 248.064C57.5773 248.409 57.4093 248.895 57.4093 249.52V254H56.0653V249.436C56.0653 248.829 55.9159 248.363 55.6173 248.036C55.3186 247.7 54.9033 247.532 54.3713 247.532C53.8206 247.532 53.3773 247.709 53.0413 248.064C52.7053 248.409 52.5373 248.895 52.5373 249.52V254H51.1933ZM65.1061 254V246.524H66.4501V254H65.1061ZM63.9581 247.588V246.524H66.4501V247.588H63.9581ZM65.4841 245.32C65.1854 245.32 64.9614 245.241 64.8121 245.082C64.6721 244.923 64.6021 244.723 64.6021 244.48C64.6021 244.237 64.6721 244.037 64.8121 243.878C64.9614 243.719 65.1854 243.64 65.4841 243.64C65.7828 243.64 66.0021 243.719 66.1421 243.878C66.2914 244.037 66.3661 244.237 66.3661 244.48C66.3661 244.723 66.2914 244.923 66.1421 245.082C66.0021 245.241 65.7828 245.32 65.4841 245.32ZM69.1327 254V243.78H70.4767V254H69.1327ZM68.0967 244.844V243.78H70.4767V244.844H68.0967ZM77.5766 254V251.76H77.3526V249.17C77.3526 248.657 77.2173 248.269 76.9466 248.008C76.6853 247.747 76.2979 247.616 75.7846 247.616C75.4953 247.616 75.1966 247.621 74.8886 247.63C74.5806 247.639 74.2866 247.649 74.0066 247.658C73.7266 247.667 73.4839 247.681 73.2786 247.7V246.524C73.4839 246.505 73.6986 246.491 73.9226 246.482C74.1559 246.463 74.3939 246.454 74.6366 246.454C74.8793 246.445 75.1126 246.44 75.3366 246.44C76.1019 246.44 76.7273 246.533 77.2126 246.72C77.6979 246.897 78.0573 247.191 78.2906 247.602C78.5239 248.013 78.6406 248.568 78.6406 249.268V254H77.5766ZM75.1266 254.196C74.5666 254.196 74.0813 254.103 73.6706 253.916C73.2693 253.72 72.9566 253.44 72.7326 253.076C72.5179 252.712 72.4106 252.273 72.4106 251.76C72.4106 251.228 72.5273 250.785 72.7606 250.43C73.0033 250.075 73.3533 249.809 73.8106 249.632C74.2679 249.445 74.8186 249.352 75.4626 249.352H77.4926V250.36H75.4066C74.8653 250.36 74.4499 250.491 74.1606 250.752C73.8713 251.013 73.7266 251.349 73.7266 251.76C73.7266 252.171 73.8713 252.502 74.1606 252.754C74.4499 253.006 74.8653 253.132 75.4066 253.132C75.7239 253.132 76.0273 253.076 76.3166 252.964C76.6059 252.843 76.8439 252.647 77.0306 252.376C77.2266 252.096 77.3339 251.713 77.3526 251.228L77.7166 251.76C77.6699 252.292 77.5393 252.74 77.3246 253.104C77.1193 253.459 76.8299 253.729 76.4566 253.916C76.0926 254.103 75.6493 254.196 75.1266 254.196ZM81.1073 254V246.524H82.1713V249.604H82.1153C82.1153 248.512 82.3533 247.714 82.8293 247.21C83.3147 246.697 84.038 246.44 84.9993 246.44H85.2513V247.644H84.7753C84.0287 247.644 83.4547 247.845 83.0533 248.246C82.652 248.638 82.4513 249.207 82.4513 249.954V254H81.1073ZM87.2135 254V246.524H88.5575V254H87.2135ZM86.0655 247.588V246.524H88.5575V247.588H86.0655ZM87.5915 245.32C87.2929 245.32 87.0689 245.241 86.9195 245.082C86.7795 244.923 86.7095 244.723 86.7095 244.48C86.7095 244.237 86.7795 244.037 86.9195 243.878C87.0689 243.719 87.2929 243.64 87.5915 243.64C87.8902 243.64 88.1095 243.719 88.2495 243.878C88.3989 244.037 88.4735 244.237 88.4735 244.48C88.4735 244.723 88.3989 244.923 88.2495 245.082C88.1095 245.241 87.8902 245.32 87.5915 245.32ZM94.0682 254.084C93.5082 254.084 93.0228 254.005 92.6122 253.846C92.2108 253.687 91.8982 253.417 91.6742 253.034C91.4595 252.642 91.3522 252.115 91.3522 251.452V244.256H92.6402V251.62C92.6402 252.021 92.7475 252.334 92.9622 252.558C93.1862 252.773 93.4988 252.88 93.9002 252.88H95.2162V254.084H94.0682ZM90.0642 247.532V246.524H95.2162V247.532H90.0642ZM96.6131 256.912V255.708H97.6911C98.0084 255.708 98.2744 255.666 98.4891 255.582C98.7131 255.507 98.8951 255.377 99.0351 255.19C99.1844 255.003 99.3058 254.756 99.3991 254.448L101.751 246.524H103.067L100.575 254.798C100.426 255.293 100.216 255.694 99.9451 256.002C99.6744 256.319 99.3431 256.548 98.9511 256.688C98.5684 256.837 98.1204 256.912 97.6071 256.912H96.6131ZM98.8951 253.832V252.712H100.519V253.832H98.8951ZM98.7551 253.832L96.0811 246.524H97.4531L100.015 253.832H98.7551ZM111.473 254.252C110.624 254.252 109.9 254.112 109.303 253.832C108.706 253.552 108.248 253.165 107.931 252.67C107.614 252.175 107.455 251.615 107.455 250.99H108.827C108.827 251.298 108.906 251.606 109.065 251.914C109.233 252.222 109.508 252.479 109.891 252.684C110.283 252.889 110.81 252.992 111.473 252.992C112.089 252.992 112.593 252.903 112.985 252.726C113.377 252.539 113.666 252.301 113.853 252.012C114.04 251.713 114.133 251.391 114.133 251.046C114.133 250.626 113.951 250.281 113.587 250.01C113.223 249.73 112.691 249.557 111.991 249.492L110.857 249.394C109.952 249.319 109.228 249.039 108.687 248.554C108.146 248.069 107.875 247.429 107.875 246.636C107.875 246.011 108.024 245.465 108.323 244.998C108.631 244.531 109.056 244.167 109.597 243.906C110.138 243.635 110.768 243.5 111.487 243.5C112.196 243.5 112.822 243.631 113.363 243.892C113.904 244.153 114.324 244.522 114.623 244.998C114.931 245.465 115.085 246.025 115.085 246.678H113.713C113.713 246.351 113.634 246.043 113.475 245.754C113.326 245.465 113.088 245.227 112.761 245.04C112.434 244.853 112.01 244.76 111.487 244.76C110.983 244.76 110.563 244.849 110.227 245.026C109.9 245.203 109.653 245.437 109.485 245.726C109.326 246.006 109.247 246.309 109.247 246.636C109.247 247.009 109.392 247.341 109.681 247.63C109.97 247.919 110.4 248.087 110.969 248.134L112.103 248.232C112.803 248.288 113.405 248.437 113.909 248.68C114.422 248.913 114.814 249.231 115.085 249.632C115.365 250.024 115.505 250.495 115.505 251.046C115.505 251.671 115.337 252.227 115.001 252.712C114.665 253.197 114.194 253.575 113.587 253.846C112.98 254.117 112.276 254.252 111.473 254.252ZM120.789 254.252C120.136 254.252 119.571 254.14 119.095 253.916C118.619 253.692 118.232 253.398 117.933 253.034C117.635 252.661 117.411 252.245 117.261 251.788C117.121 251.331 117.051 250.864 117.051 250.388V250.136C117.051 249.651 117.121 249.179 117.261 248.722C117.411 248.265 117.635 247.854 117.933 247.49C118.232 247.117 118.61 246.823 119.067 246.608C119.534 246.384 120.08 246.272 120.705 246.272C121.517 246.272 122.185 246.449 122.707 246.804C123.239 247.149 123.631 247.597 123.883 248.148C124.145 248.699 124.275 249.287 124.275 249.912V250.514H117.639V249.506H123.295L122.987 250.052C122.987 249.52 122.903 249.063 122.735 248.68C122.567 248.288 122.315 247.985 121.979 247.77C121.643 247.555 121.219 247.448 120.705 247.448C120.173 247.448 119.73 247.569 119.375 247.812C119.03 248.055 118.769 248.386 118.591 248.806C118.423 249.226 118.339 249.711 118.339 250.262C118.339 250.794 118.423 251.275 118.591 251.704C118.769 252.124 119.039 252.46 119.403 252.712C119.767 252.955 120.229 253.076 120.789 253.076C121.377 253.076 121.853 252.945 122.217 252.684C122.591 252.423 122.815 252.119 122.889 251.774H124.149C124.047 252.287 123.841 252.731 123.533 253.104C123.225 253.477 122.838 253.762 122.371 253.958C121.905 254.154 121.377 254.252 120.789 254.252ZM130.706 254V251.76H130.482V249.17C130.482 248.657 130.346 248.269 130.076 248.008C129.814 247.747 129.427 247.616 128.914 247.616C128.624 247.616 128.326 247.621 128.018 247.63C127.71 247.639 127.416 247.649 127.136 247.658C126.856 247.667 126.613 247.681 126.408 247.7V246.524C126.613 246.505 126.828 246.491 127.052 246.482C127.285 246.463 127.523 246.454 127.766 246.454C128.008 246.445 128.242 246.44 128.466 246.44C129.231 246.44 129.856 246.533 130.342 246.72C130.827 246.897 131.186 247.191 131.42 247.602C131.653 248.013 131.77 248.568 131.77 249.268V254H130.706ZM128.256 254.196C127.696 254.196 127.21 254.103 126.8 253.916C126.398 253.72 126.086 253.44 125.862 253.076C125.647 252.712 125.54 252.273 125.54 251.76C125.54 251.228 125.656 250.785 125.89 250.43C126.132 250.075 126.482 249.809 126.94 249.632C127.397 249.445 127.948 249.352 128.592 249.352H130.622V250.36H128.536C127.994 250.36 127.579 250.491 127.29 250.752C127 251.013 126.856 251.349 126.856 251.76C126.856 252.171 127 252.502 127.29 252.754C127.579 253.006 127.994 253.132 128.536 253.132C128.853 253.132 129.156 253.076 129.446 252.964C129.735 252.843 129.973 252.647 130.16 252.376C130.356 252.096 130.463 251.713 130.482 251.228L130.846 251.76C130.799 252.292 130.668 252.74 130.454 253.104C130.248 253.459 129.959 253.729 129.586 253.916C129.222 254.103 128.778 254.196 128.256 254.196ZM134.236 254V246.524H135.3V249.604H135.244C135.244 248.512 135.482 247.714 135.958 247.21C136.444 246.697 137.167 246.44 138.128 246.44H138.38V247.644H137.904C137.158 247.644 136.584 247.845 136.182 248.246C135.781 248.638 135.58 249.207 135.58 249.954V254H134.236ZM143.102 254.252C142.458 254.252 141.898 254.14 141.422 253.916C140.956 253.692 140.568 253.393 140.26 253.02C139.952 252.637 139.719 252.217 139.56 251.76C139.411 251.303 139.336 250.845 139.336 250.388V250.136C139.336 249.66 139.411 249.193 139.56 248.736C139.719 248.279 139.952 247.868 140.26 247.504C140.578 247.131 140.97 246.832 141.436 246.608C141.903 246.384 142.449 246.272 143.074 246.272C143.7 246.272 144.26 246.389 144.754 246.622C145.258 246.855 145.66 247.187 145.958 247.616C146.266 248.036 146.439 248.535 146.476 249.114H145.188C145.123 248.647 144.908 248.26 144.544 247.952C144.18 247.635 143.69 247.476 143.074 247.476C142.542 247.476 142.099 247.597 141.744 247.84C141.39 248.083 141.124 248.414 140.946 248.834C140.769 249.254 140.68 249.73 140.68 250.262C140.68 250.775 140.769 251.247 140.946 251.676C141.124 252.096 141.39 252.432 141.744 252.684C142.108 252.927 142.561 253.048 143.102 253.048C143.522 253.048 143.886 252.973 144.194 252.824C144.502 252.675 144.75 252.474 144.936 252.222C145.123 251.97 145.235 251.685 145.272 251.368H146.56C146.532 251.956 146.36 252.465 146.042 252.894C145.734 253.323 145.324 253.659 144.81 253.902C144.306 254.135 143.737 254.252 143.102 254.252ZM148.387 254V243.78H149.731V249.884H149.395C149.395 249.147 149.488 248.512 149.675 247.98C149.871 247.439 150.169 247.023 150.571 246.734C150.972 246.445 151.485 246.3 152.111 246.3H152.167C153.063 246.3 153.739 246.599 154.197 247.196C154.654 247.784 154.883 248.629 154.883 249.73V254H153.539V249.45C153.539 248.843 153.366 248.372 153.021 248.036C152.685 247.7 152.246 247.532 151.705 247.532C151.107 247.532 150.627 247.733 150.263 248.134C149.908 248.526 149.731 249.044 149.731 249.688V254H148.387Z" fill="white"/>
<rect x="0.5" y="223.5" width="191" height="52" rx="11.5" stroke="#611C9B"/>
<path d="M252.354 249.854C252.549 249.658 252.549 249.342 252.354 249.146L249.172 245.964C248.976 245.769 248.66 245.769 248.464 245.964C248.269 246.16 248.269 246.476 248.464 246.672L251.293 249.5L248.464 252.328C248.269 252.524 248.269 252.84 248.464 253.036C248.66 253.231 248.976 253.231 249.172 253.036L252.354 249.854ZM208 250H252V249H208V250Z" fill="#5A5D60"/>
<path d="M347.999 339.5L328.248 328.25M347.999 339.5V317M347.999 339.5L367.75 328.25M328.248 328.25L347.999 317M328.248 328.25V305.75M347.999 317L367.75 328.25M347.999 317L328.248 305.75M347.999 317V294.5M347.999 317L367.75 305.75M367.75 328.25V305.75M328.248 305.75L347.999 294.5M328.248 305.75V283.25M347.999 294.5L367.75 305.75M347.999 294.5L328.248 283.25M347.999 294.5V272M347.999 294.5L367.75 283.25M367.75 305.75V283.25M328.248 283.25L347.999 272M328.248 283.25V260.75M347.999 272L367.75 283.25M347.999 272L328.248 260.75M347.999 272V249.5M347.999 272L367.75 260.75M367.75 283.25V260.75M328.248 260.75L347.999 249.5M328.248 260.75V238.25M347.999 249.5L367.75 260.75M347.999 249.5L328.248 238.25M347.999 249.5V227M347.999 249.5L367.75 238.25M367.75 260.75V238.25M328.248 238.25L347.999 227M328.248 238.25V215.75M347.999 227L367.75 238.25M347.999 227L328.248 215.75M347.999 227V204.5M347.999 227L367.75 215.75M367.75 238.25V215.75M328.248 215.75L347.999 204.5M328.248 215.75V193.25M347.999 204.5L367.75 215.75M347.999 204.5L328.248 193.25M347.999 204.5V182M347.999 204.5L367.75 193.25M367.75 215.75V193.25M328.248 193.25L347.999 182M328.248 193.25V170.75M347.999 182L367.75 193.25M347.999 182L328.248 170.75M347.999 182V159.5M347.999 182L367.75 170.75M367.75 193.25V170.75M328.248 170.75L347.999 159.5M347.999 159.5L367.75 170.75M308.502 317L328.253 328.25V305.75M308.502 317L288.751 305.75M308.502 317V294.5M308.502 317L328.253 305.75M328.253 305.75L308.502 294.5M328.253 305.75V283.25M288.751 305.75L308.502 294.5M288.751 305.75V283.25M288.751 305.75L269 294.5M308.502 294.5L288.751 283.25M308.502 294.5V272M308.502 294.5L328.253 283.25M288.751 283.25L308.502 272M288.751 283.25V260.75M288.751 283.25L269 294.5M288.751 283.25L269 272M308.502 272L328.253 283.25M308.502 272L288.751 260.75M308.502 272V249.5M308.502 272L328.253 260.75M328.253 283.25V260.75M269 294.5V272M288.751 260.75L308.502 249.5M288.751 260.75V238.25M288.751 260.75L269 272M288.751 260.75L269 249.5M308.502 249.5L328.253 260.75M308.502 249.5L288.751 238.25M308.502 249.5V227M308.502 249.5L328.253 238.25M328.253 260.75V238.25M269 272V249.5M288.751 238.25L308.502 227M288.751 238.25V215.75M288.751 238.25L269 249.5M288.751 238.25L269 227M308.502 227L328.253 238.25M308.502 227L288.751 215.75M308.502 227L308.502 204.5M308.502 227L328.253 215.75M328.253 238.25V215.75M269 249.5V227M288.751 215.75L308.502 204.5M288.751 215.75V193.25M288.751 215.75L269 227M288.751 215.75L269 204.5M308.502 204.5L328.253 215.75M308.502 204.5L288.751 193.25M308.502 204.5V182M308.502 204.5L328.253 193.25M328.253 215.75V193.25M269 227V204.5M288.751 193.25L308.502 182M288.751 193.25L269 204.5M308.502 182L328.253 193.25M308.502 182L328.253 170.75V193.25M387.498 317L367.746 328.25V305.75M387.498 317L367.746 305.75M387.498 317V294.5M387.498 317L407.249 305.75M367.746 305.75L387.498 294.5M367.746 305.75V283.25M387.498 294.5L407.249 305.75M387.498 294.5L367.746 283.25M387.498 294.5V272M387.498 294.5L407.249 283.25M407.249 305.75V283.25M407.249 305.75L427 294.5M367.746 283.25L387.498 272M367.746 283.25V260.75M387.498 272L407.249 283.25M387.498 272L367.746 260.75M387.498 272V249.5M387.498 272L407.249 260.75M407.249 283.25V260.75M407.249 283.25L427 294.5M407.249 283.25L427 272M427 294.5V272M367.746 260.75L387.498 249.5M367.746 260.75V238.25M387.498 249.5L407.249 260.75M387.498 249.5L367.746 238.25M387.498 249.5V227M387.498 249.5L407.249 238.25M407.249 260.75V238.25M407.249 260.75L427 272M407.249 260.75L427 249.5M427 272V249.5M367.746 238.25L387.498 227M367.746 238.25V215.75M387.498 227L407.249 238.25M387.498 227L367.746 215.75M387.498 227V204.5M387.498 227L407.249 215.75M407.249 238.25V215.75M407.249 238.25L427 249.5M407.249 238.25L427 227M427 249.5V227M367.746 215.75L387.498 204.5M367.746 215.75V193.25M387.498 204.5L407.249 215.75M387.498 204.5L367.746 193.25M387.498 204.5V182M387.498 204.5L407.249 193.25M407.249 215.75V193.25M407.249 215.75L427 227M407.249 215.75L427 204.5M427 227V204.5M367.746 193.25L387.498 182M367.746 193.25V170.75L387.498 182M387.498 182L407.249 193.25M407.249 193.25L427 204.5M367.752 328.25V305.75V283.25V260.75V238.25V215.75V193.25V170.75M288.745 305.75V283.25V260.75V238.25V215.75V193.25M407.252 305.75V283.25V260.75V238.25V215.75V193.25M407.254 305.75V283.25V260.75V238.25V215.75V193.25" stroke="#5A5D60" stroke-linecap="round" stroke-linejoin="round"/>
<path d="M297.878 254.5L302.086 242.82H304.742L309.078 254.5H307.462L303.542 243.844L304.31 244.228H302.422L303.238 243.844L299.446 254.5H297.878ZM300.39 251.012L300.918 249.604H305.958L306.486 251.012H300.39ZM313.764 254.756C312.644 254.756 311.775 254.516 311.156 254.036C310.548 253.556 310.234 252.9 310.212 252.068H311.652C311.674 252.399 311.839 252.713 312.148 253.012C312.468 253.3 313.007 253.444 313.764 253.444C314.447 253.444 314.97 253.311 315.332 253.044C315.695 252.767 315.876 252.431 315.876 252.036C315.876 251.684 315.743 251.412 315.476 251.22C315.21 251.017 314.778 250.884 314.18 250.82L313.252 250.724C312.442 250.639 311.78 250.399 311.268 250.004C310.756 249.599 310.5 249.033 310.5 248.308C310.5 247.764 310.639 247.3 310.916 246.916C311.194 246.521 311.578 246.223 312.068 246.02C312.559 245.807 313.124 245.7 313.764 245.7C314.724 245.7 315.503 245.913 316.1 246.34C316.698 246.767 317.007 247.401 317.028 248.244H315.588C315.578 247.903 315.418 247.615 315.108 247.38C314.81 247.135 314.362 247.012 313.764 247.012C313.167 247.012 312.714 247.135 312.404 247.38C312.095 247.625 311.94 247.935 311.94 248.308C311.94 248.628 312.047 248.884 312.26 249.076C312.484 249.268 312.847 249.391 313.348 249.444L314.276 249.54C315.194 249.636 315.93 249.892 316.484 250.308C317.039 250.713 317.316 251.289 317.316 252.036C317.316 252.569 317.162 253.044 316.852 253.46C316.554 253.865 316.138 254.185 315.604 254.42C315.071 254.644 314.458 254.756 313.764 254.756ZM322.87 254.596C322.23 254.596 321.676 254.505 321.206 254.324C320.748 254.143 320.39 253.833 320.134 253.396C319.889 252.948 319.766 252.345 319.766 251.588V243.364H321.238V251.78C321.238 252.239 321.361 252.596 321.606 252.852C321.862 253.097 322.22 253.22 322.678 253.22H324.182V254.596H322.87ZM318.294 247.108V245.956H324.182V247.108H318.294ZM326.355 254.5V245.956H327.571V249.476H327.507C327.507 248.228 327.779 247.316 328.323 246.74C328.877 246.153 329.704 245.86 330.803 245.86H331.091V247.236H330.547C329.693 247.236 329.037 247.465 328.579 247.924C328.12 248.372 327.891 249.023 327.891 249.876V254.5H326.355ZM338.054 254.5V251.94H337.798V248.98C337.798 248.393 337.643 247.951 337.334 247.652C337.035 247.353 336.593 247.204 336.006 247.204C335.675 247.204 335.334 247.209 334.982 247.22C334.63 247.231 334.294 247.241 333.974 247.252C333.654 247.263 333.377 247.279 333.142 247.3V245.956C333.377 245.935 333.622 245.919 333.878 245.908C334.145 245.887 334.417 245.876 334.694 245.876C334.971 245.865 335.238 245.86 335.494 245.86C336.369 245.86 337.083 245.967 337.638 246.18C338.193 246.383 338.603 246.719 338.87 247.188C339.137 247.657 339.27 248.292 339.27 249.092V254.5H338.054ZM335.254 254.724C334.614 254.724 334.059 254.617 333.59 254.404C333.131 254.18 332.774 253.86 332.518 253.444C332.273 253.028 332.15 252.527 332.15 251.94C332.15 251.332 332.283 250.825 332.55 250.42C332.827 250.015 333.227 249.711 333.75 249.508C334.273 249.295 334.902 249.188 335.638 249.188H337.958V250.34H335.574C334.955 250.34 334.481 250.489 334.15 250.788C333.819 251.087 333.654 251.471 333.654 251.94C333.654 252.409 333.819 252.788 334.15 253.076C334.481 253.364 334.955 253.508 335.574 253.508C335.937 253.508 336.283 253.444 336.614 253.316C336.945 253.177 337.217 252.953 337.43 252.644C337.654 252.324 337.777 251.887 337.798 251.332L338.214 251.94C338.161 252.548 338.011 253.06 337.766 253.476C337.531 253.881 337.201 254.191 336.774 254.404C336.358 254.617 335.851 254.724 335.254 254.724ZM348.658 254.5L344.61 242.82H346.226L349.858 253.476L349.09 253.092H351.01L350.194 253.476L353.538 242.82H355.106L351.346 254.5H348.658ZM360.049 254.788C359.303 254.788 358.657 254.66 358.113 254.404C357.569 254.148 357.127 253.812 356.785 253.396C356.444 252.969 356.188 252.495 356.017 251.972C355.857 251.449 355.777 250.916 355.777 250.372V250.084C355.777 249.529 355.857 248.991 356.017 248.468C356.188 247.945 356.444 247.476 356.785 247.06C357.127 246.633 357.559 246.297 358.081 246.052C358.615 245.796 359.239 245.668 359.953 245.668C360.881 245.668 361.644 245.871 362.241 246.276C362.849 246.671 363.297 247.183 363.585 247.812C363.884 248.441 364.033 249.113 364.033 249.828V250.516H356.449V249.364H362.913L362.561 249.988C362.561 249.38 362.465 248.857 362.273 248.42C362.081 247.972 361.793 247.625 361.409 247.38C361.025 247.135 360.54 247.012 359.953 247.012C359.345 247.012 358.839 247.151 358.433 247.428C358.039 247.705 357.74 248.084 357.537 248.564C357.345 249.044 357.249 249.599 357.249 250.228C357.249 250.836 357.345 251.385 357.537 251.876C357.74 252.356 358.049 252.74 358.465 253.028C358.881 253.305 359.409 253.444 360.049 253.444C360.721 253.444 361.265 253.295 361.681 252.996C362.108 252.697 362.364 252.351 362.449 251.956H363.889C363.772 252.543 363.537 253.049 363.185 253.476C362.833 253.903 362.391 254.228 361.857 254.452C361.324 254.676 360.721 254.788 360.049 254.788ZM369.878 254.788C369.142 254.788 368.502 254.66 367.958 254.404C367.425 254.148 366.982 253.807 366.63 253.38C366.278 252.943 366.012 252.463 365.83 251.94C365.66 251.417 365.574 250.895 365.574 250.372V250.084C365.574 249.54 365.66 249.007 365.83 248.484C366.012 247.961 366.278 247.492 366.63 247.076C366.993 246.649 367.441 246.308 367.974 246.052C368.508 245.796 369.132 245.668 369.846 245.668C370.561 245.668 371.201 245.801 371.766 246.068C372.342 246.335 372.801 246.713 373.142 247.204C373.494 247.684 373.692 248.255 373.734 248.916H372.262C372.188 248.383 371.942 247.94 371.526 247.588C371.11 247.225 370.55 247.044 369.846 247.044C369.238 247.044 368.732 247.183 368.326 247.46C367.921 247.737 367.617 248.116 367.414 248.596C367.212 249.076 367.11 249.62 367.11 250.228C367.11 250.815 367.212 251.353 367.414 251.844C367.617 252.324 367.921 252.708 368.326 252.996C368.742 253.273 369.26 253.412 369.878 253.412C370.358 253.412 370.774 253.327 371.126 253.156C371.478 252.985 371.761 252.756 371.974 252.468C372.188 252.18 372.316 251.855 372.358 251.492H373.83C373.798 252.164 373.601 252.745 373.238 253.236C372.886 253.727 372.417 254.111 371.83 254.388C371.254 254.655 370.604 254.788 369.878 254.788ZM379.245 254.596C378.605 254.596 378.051 254.505 377.581 254.324C377.123 254.143 376.765 253.833 376.509 253.396C376.264 252.948 376.141 252.345 376.141 251.588V243.364H377.613V251.78C377.613 252.239 377.736 252.596 377.981 252.852C378.237 253.097 378.595 253.22 379.053 253.22H380.557V254.596H379.245ZM374.669 247.108V245.956H380.557V247.108H374.669ZM386.603 254.788C385.857 254.788 385.201 254.66 384.635 254.404C384.07 254.148 383.59 253.812 383.195 253.396C382.811 252.969 382.518 252.495 382.315 251.972C382.123 251.449 382.027 250.916 382.027 250.372V250.084C382.027 249.54 382.129 249.007 382.331 248.484C382.534 247.951 382.833 247.476 383.227 247.06C383.622 246.633 384.102 246.297 384.667 246.052C385.233 245.796 385.878 245.668 386.603 245.668C387.329 245.668 387.974 245.796 388.539 246.052C389.105 246.297 389.585 246.633 389.979 247.06C390.374 247.476 390.673 247.951 390.875 248.484C391.078 249.007 391.179 249.54 391.179 250.084V250.372C391.179 250.916 391.078 251.449 390.875 251.972C390.683 252.495 390.39 252.969 389.995 253.396C389.611 253.812 389.137 254.148 388.571 254.404C388.006 254.66 387.35 254.788 386.603 254.788ZM386.603 253.412C387.243 253.412 387.787 253.273 388.235 252.996C388.694 252.708 389.041 252.324 389.275 251.844C389.521 251.364 389.643 250.825 389.643 250.228C389.643 249.62 389.521 249.076 389.275 248.596C389.03 248.116 388.678 247.737 388.219 247.46C387.771 247.183 387.233 247.044 386.603 247.044C385.985 247.044 385.446 247.183 384.987 247.46C384.529 247.737 384.177 248.116 383.931 248.596C383.686 249.076 383.563 249.62 383.563 250.228C383.563 250.825 383.681 251.364 383.915 251.844C384.161 252.324 384.507 252.708 384.955 252.996C385.414 253.273 385.963 253.412 386.603 253.412ZM393.48 254.5V245.956H394.696V249.476H394.632C394.632 248.228 394.904 247.316 395.448 246.74C396.002 246.153 396.829 245.86 397.928 245.86H398.216V247.236H397.672C396.818 247.236 396.162 247.465 395.704 247.924C395.245 248.372 395.016 249.023 395.016 249.876V254.5H393.48Z" fill="#9946B9"/>
<path d="M488.354 249.854C488.549 249.658 488.549 249.342 488.354 249.146L485.172 245.964C484.976 245.769 484.66 245.769 484.464 245.964C484.269 246.16 484.269 246.476 484.464 246.672L487.293 249.5L484.464 252.328C484.269 252.524 484.269 252.84 484.464 253.036C484.66 253.231 484.976 253.231 485.172 253.036L488.354 249.854ZM444 250H488V249H444V250Z" fill="#5A5D60"/>
<path d="M534.027 254V243.78H536.267L541.461 252.768H541.909L541.629 253.02V243.78H542.945V254H540.677L535.483 245.012H535.035L535.315 244.76V254H534.027ZM548.89 254.252C548.236 254.252 547.672 254.14 547.196 253.916C546.72 253.692 546.332 253.398 546.034 253.034C545.735 252.661 545.511 252.245 545.362 251.788C545.222 251.331 545.152 250.864 545.152 250.388V250.136C545.152 249.651 545.222 249.179 545.362 248.722C545.511 248.265 545.735 247.854 546.034 247.49C546.332 247.117 546.71 246.823 547.168 246.608C547.634 246.384 548.18 246.272 548.806 246.272C549.618 246.272 550.285 246.449 550.808 246.804C551.34 247.149 551.732 247.597 551.984 248.148C552.245 248.699 552.376 249.287 552.376 249.912V250.514H545.74V249.506H551.396L551.088 250.052C551.088 249.52 551.004 249.063 550.836 248.68C550.668 248.288 550.416 247.985 550.08 247.77C549.744 247.555 549.319 247.448 548.806 247.448C548.274 247.448 547.83 247.569 547.476 247.812C547.13 248.055 546.869 248.386 546.692 248.806C546.524 249.226 546.44 249.711 546.44 250.262C546.44 250.794 546.524 251.275 546.692 251.704C546.869 252.124 547.14 252.46 547.504 252.712C547.868 252.955 548.33 253.076 548.89 253.076C549.478 253.076 549.954 252.945 550.318 252.684C550.691 252.423 550.915 252.119 550.99 251.774H552.25C552.147 252.287 551.942 252.731 551.634 253.104C551.326 253.477 550.938 253.762 550.472 253.958C550.005 254.154 549.478 254.252 548.89 254.252ZM558.806 254V251.76H558.582V249.17C558.582 248.657 558.447 248.269 558.176 248.008C557.915 247.747 557.527 247.616 557.014 247.616C556.725 247.616 556.426 247.621 556.118 247.63C555.81 247.639 555.516 247.649 555.236 247.658C554.956 247.667 554.713 247.681 554.508 247.7V246.524C554.713 246.505 554.928 246.491 555.152 246.482C555.385 246.463 555.623 246.454 555.866 246.454C556.109 246.445 556.342 246.44 556.566 246.44C557.331 246.44 557.957 246.533 558.442 246.72C558.927 246.897 559.287 247.191 559.52 247.602C559.753 248.013 559.87 248.568 559.87 249.268V254H558.806ZM556.356 254.196C555.796 254.196 555.311 254.103 554.9 253.916C554.499 253.72 554.186 253.44 553.962 253.076C553.747 252.712 553.64 252.273 553.64 251.76C553.64 251.228 553.757 250.785 553.99 250.43C554.233 250.075 554.583 249.809 555.04 249.632C555.497 249.445 556.048 249.352 556.692 249.352H558.722V250.36H556.636C556.095 250.36 555.679 250.491 555.39 250.752C555.101 251.013 554.956 251.349 554.956 251.76C554.956 252.171 555.101 252.502 555.39 252.754C555.679 253.006 556.095 253.132 556.636 253.132C556.953 253.132 557.257 253.076 557.546 252.964C557.835 252.843 558.073 252.647 558.26 252.376C558.456 252.096 558.563 251.713 558.582 251.228L558.946 251.76C558.899 252.292 558.769 252.74 558.554 253.104C558.349 253.459 558.059 253.729 557.686 253.916C557.322 254.103 556.879 254.196 556.356 254.196ZM562.337 254V246.524H563.401V249.604H563.345C563.345 248.512 563.583 247.714 564.059 247.21C564.544 246.697 565.267 246.44 566.229 246.44H566.481V247.644H566.005C565.258 247.644 564.684 247.845 564.283 248.246C563.881 248.638 563.681 249.207 563.681 249.954V254H562.337ZM571.175 254.252C570.522 254.252 569.957 254.14 569.481 253.916C569.005 253.692 568.618 253.398 568.319 253.034C568.02 252.661 567.796 252.245 567.647 251.788C567.507 251.331 567.437 250.864 567.437 250.388V250.136C567.437 249.651 567.507 249.179 567.647 248.722C567.796 248.265 568.02 247.854 568.319 247.49C568.618 247.117 568.996 246.823 569.453 246.608C569.92 246.384 570.466 246.272 571.091 246.272C571.903 246.272 572.57 246.449 573.093 246.804C573.625 247.149 574.017 247.597 574.269 248.148C574.53 248.699 574.661 249.287 574.661 249.912V250.514H568.025V249.506H573.681L573.373 250.052C573.373 249.52 573.289 249.063 573.121 248.68C572.953 248.288 572.701 247.985 572.365 247.77C572.029 247.555 571.604 247.448 571.091 247.448C570.559 247.448 570.116 247.569 569.761 247.812C569.416 248.055 569.154 248.386 568.977 248.806C568.809 249.226 568.725 249.711 568.725 250.262C568.725 250.794 568.809 251.275 568.977 251.704C569.154 252.124 569.425 252.46 569.789 252.712C570.153 252.955 570.615 253.076 571.175 253.076C571.763 253.076 572.239 252.945 572.603 252.684C572.976 252.423 573.2 252.119 573.275 251.774H574.535C574.432 252.287 574.227 252.731 573.919 253.104C573.611 253.477 573.224 253.762 572.757 253.958C572.29 254.154 571.763 254.252 571.175 254.252ZM579.019 254.224C578.039 254.224 577.279 254.014 576.737 253.594C576.205 253.174 575.93 252.6 575.911 251.872H577.171C577.19 252.161 577.335 252.437 577.605 252.698C577.885 252.95 578.357 253.076 579.019 253.076C579.617 253.076 580.074 252.959 580.391 252.726C580.709 252.483 580.867 252.189 580.867 251.844C580.867 251.536 580.751 251.298 580.517 251.13C580.284 250.953 579.906 250.836 579.383 250.78L578.571 250.696C577.862 250.621 577.283 250.411 576.835 250.066C576.387 249.711 576.163 249.217 576.163 248.582C576.163 248.106 576.285 247.7 576.527 247.364C576.77 247.019 577.106 246.757 577.535 246.58C577.965 246.393 578.459 246.3 579.019 246.3C579.859 246.3 580.541 246.487 581.063 246.86C581.586 247.233 581.857 247.789 581.875 248.526H580.615C580.606 248.227 580.466 247.975 580.195 247.77C579.934 247.555 579.542 247.448 579.019 247.448C578.497 247.448 578.1 247.555 577.829 247.77C577.559 247.985 577.423 248.255 577.423 248.582C577.423 248.862 577.517 249.086 577.703 249.254C577.899 249.422 578.217 249.529 578.655 249.576L579.467 249.66C580.27 249.744 580.914 249.968 581.399 250.332C581.885 250.687 582.127 251.191 582.127 251.844C582.127 252.311 581.992 252.726 581.721 253.09C581.46 253.445 581.096 253.725 580.629 253.93C580.163 254.126 579.626 254.224 579.019 254.224ZM586.987 254.084C586.427 254.084 585.942 254.005 585.531 253.846C585.13 253.687 584.817 253.417 584.593 253.034C584.378 252.642 584.271 252.115 584.271 251.452V244.256H585.559V251.62C585.559 252.021 585.666 252.334 585.881 252.558C586.105 252.773 586.418 252.88 586.819 252.88H588.135V254.084H586.987ZM582.983 247.532V246.524H588.135V247.532H582.983ZM593.418 254V243.78H595.658L600.852 252.768H601.3L601.02 253.02V243.78H602.336V254H600.068L594.874 245.012H594.426L594.706 244.76V254H593.418ZM608.28 254.252C607.627 254.252 607.062 254.14 606.586 253.916C606.11 253.692 605.723 253.398 605.424 253.034C605.126 252.661 604.902 252.245 604.752 251.788C604.612 251.331 604.542 250.864 604.542 250.388V250.136C604.542 249.651 604.612 249.179 604.752 248.722C604.902 248.265 605.126 247.854 605.424 247.49C605.723 247.117 606.101 246.823 606.558 246.608C607.025 246.384 607.571 246.272 608.196 246.272C609.008 246.272 609.676 246.449 610.198 246.804C610.73 247.149 611.122 247.597 611.374 248.148C611.636 248.699 611.766 249.287 611.766 249.912V250.514H605.13V249.506H610.786L610.478 250.052C610.478 249.52 610.394 249.063 610.226 248.68C610.058 248.288 609.806 247.985 609.47 247.77C609.134 247.555 608.71 247.448 608.196 247.448C607.664 247.448 607.221 247.569 606.866 247.812C606.521 248.055 606.26 248.386 606.082 248.806C605.914 249.226 605.83 249.711 605.83 250.262C605.83 250.794 605.914 251.275 606.082 251.704C606.26 252.124 606.53 252.46 606.894 252.712C607.258 252.955 607.72 253.076 608.28 253.076C608.868 253.076 609.344 252.945 609.708 252.684C610.082 252.423 610.306 252.119 610.38 251.774H611.64C611.538 252.287 611.332 252.731 611.024 253.104C610.716 253.477 610.329 253.762 609.862 253.958C609.396 254.154 608.868 254.252 608.28 254.252ZM614.039 254V246.524H615.383V254H614.039ZM612.891 247.588V246.524H615.383V247.588H612.891ZM614.417 245.32C614.118 245.32 613.894 245.241 613.745 245.082C613.605 244.923 613.535 244.723 613.535 244.48C613.535 244.237 613.605 244.037 613.745 243.878C613.894 243.719 614.118 243.64 614.417 243.64C614.715 243.64 614.935 243.719 615.075 243.878C615.224 244.037 615.299 244.237 615.299 244.48C615.299 244.723 615.224 244.923 615.075 245.082C614.935 245.241 614.715 245.32 614.417 245.32ZM620.809 256.912C620.464 256.912 620.114 256.898 619.759 256.87C619.414 256.842 619.083 256.805 618.765 256.758V255.624C619.101 255.671 619.451 255.708 619.815 255.736C620.189 255.773 620.539 255.792 620.865 255.792C621.547 255.792 622.088 255.699 622.489 255.512C622.9 255.335 623.194 255.05 623.371 254.658C623.558 254.275 623.651 253.781 623.651 253.174V251.746L624.099 250.682C624.071 251.438 623.913 252.068 623.623 252.572C623.334 253.067 622.956 253.44 622.489 253.692C622.032 253.935 621.523 254.056 620.963 254.056C620.441 254.056 619.96 253.958 619.521 253.762C619.092 253.557 618.719 253.277 618.401 252.922C618.093 252.567 617.851 252.161 617.673 251.704C617.505 251.237 617.421 250.747 617.421 250.234V249.982C617.421 249.459 617.51 248.974 617.687 248.526C617.865 248.069 618.112 247.672 618.429 247.336C618.747 247 619.125 246.739 619.563 246.552C620.011 246.365 620.501 246.272 621.033 246.272C621.659 246.272 622.209 246.407 622.685 246.678C623.161 246.939 623.535 247.327 623.805 247.84C624.085 248.344 624.239 248.965 624.267 249.702L623.875 249.716V246.524H624.939V253.118C624.939 254.014 624.799 254.737 624.519 255.288C624.249 255.848 623.81 256.259 623.203 256.52C622.606 256.781 621.808 256.912 620.809 256.912ZM621.215 252.824C621.663 252.824 622.069 252.726 622.433 252.53C622.807 252.334 623.101 252.054 623.315 251.69C623.539 251.317 623.651 250.873 623.651 250.36V249.716C623.651 249.212 623.535 248.787 623.301 248.442C623.077 248.097 622.783 247.835 622.419 247.658C622.055 247.481 621.659 247.392 621.229 247.392C620.744 247.392 620.315 247.504 619.941 247.728C619.568 247.952 619.279 248.269 619.073 248.68C618.868 249.081 618.765 249.557 618.765 250.108C618.765 250.659 618.868 251.139 619.073 251.55C619.288 251.961 619.577 252.278 619.941 252.502C620.315 252.717 620.739 252.824 621.215 252.824ZM627.429 254V243.78H628.773V249.884H628.437C628.437 249.147 628.53 248.512 628.717 247.98C628.913 247.439 629.211 247.023 629.613 246.734C630.014 246.445 630.527 246.3 631.153 246.3H631.209C632.105 246.3 632.781 246.599 633.239 247.196C633.696 247.784 633.925 248.629 633.925 249.73V254H632.581V249.45C632.581 248.843 632.408 248.372 632.063 248.036C631.727 247.7 631.288 247.532 630.747 247.532C630.149 247.532 629.669 247.733 629.305 248.134C628.95 248.526 628.773 249.044 628.773 249.688V254H627.429ZM640.332 254.252C639.716 254.252 639.165 254.117 638.68 253.846C638.204 253.575 637.826 253.183 637.546 252.67C637.266 252.147 637.112 251.522 637.084 250.794H637.448V254H636.384V243.78H637.728V248.75L637.252 249.772C637.289 248.96 637.452 248.297 637.742 247.784C638.031 247.271 638.409 246.893 638.876 246.65C639.352 246.398 639.874 246.272 640.444 246.272C640.976 246.272 641.461 246.375 641.9 246.58C642.338 246.776 642.716 247.051 643.034 247.406C643.351 247.751 643.594 248.157 643.762 248.624C643.93 249.081 644.014 249.576 644.014 250.108V250.36C644.014 250.892 643.925 251.391 643.748 251.858C643.58 252.325 643.332 252.74 643.006 253.104C642.679 253.459 642.287 253.739 641.83 253.944C641.382 254.149 640.882 254.252 640.332 254.252ZM640.178 253.076C640.682 253.076 641.12 252.955 641.494 252.712C641.867 252.469 642.156 252.138 642.362 251.718C642.567 251.289 642.67 250.794 642.67 250.234C642.67 249.674 642.562 249.184 642.348 248.764C642.142 248.344 641.853 248.022 641.48 247.798C641.106 247.565 640.672 247.448 640.178 247.448C639.73 247.448 639.314 247.551 638.932 247.756C638.549 247.952 638.241 248.241 638.008 248.624C637.784 248.997 637.672 249.45 637.672 249.982V250.626C637.672 251.139 637.788 251.578 638.022 251.942C638.255 252.306 638.563 252.586 638.946 252.782C639.328 252.978 639.739 253.076 640.178 253.076ZM649.48 254.252C648.827 254.252 648.253 254.14 647.758 253.916C647.263 253.692 646.843 253.398 646.498 253.034C646.162 252.661 645.905 252.245 645.728 251.788C645.56 251.331 645.476 250.864 645.476 250.388V250.136C645.476 249.66 645.565 249.193 645.742 248.736C645.919 248.269 646.181 247.854 646.526 247.49C646.871 247.117 647.291 246.823 647.786 246.608C648.281 246.384 648.845 246.272 649.48 246.272C650.115 246.272 650.679 246.384 651.174 246.608C651.669 246.823 652.089 247.117 652.434 247.49C652.779 247.854 653.041 248.269 653.218 248.736C653.395 249.193 653.484 249.66 653.484 250.136V250.388C653.484 250.864 653.395 251.331 653.218 251.788C653.05 252.245 652.793 252.661 652.448 253.034C652.112 253.398 651.697 253.692 651.202 253.916C650.707 254.14 650.133 254.252 649.48 254.252ZM649.48 253.048C650.04 253.048 650.516 252.927 650.908 252.684C651.309 252.432 651.613 252.096 651.818 251.676C652.033 251.256 652.14 250.785 652.14 250.262C652.14 249.73 652.033 249.254 651.818 248.834C651.603 248.414 651.295 248.083 650.894 247.84C650.502 247.597 650.031 247.476 649.48 247.476C648.939 247.476 648.467 247.597 648.066 247.84C647.665 248.083 647.357 248.414 647.142 248.834C646.927 249.254 646.82 249.73 646.82 250.262C646.82 250.785 646.923 251.256 647.128 251.676C647.343 252.096 647.646 252.432 648.038 252.684C648.439 252.927 648.92 253.048 649.48 253.048ZM655.497 254V246.524H656.561V249.604H656.505C656.505 248.512 656.743 247.714 657.219 247.21C657.704 246.697 658.428 246.44 659.389 246.44H659.641V247.644H659.165C658.418 247.644 657.844 247.845 657.443 248.246C657.042 248.638 656.841 249.207 656.841 249.954V254H655.497ZM663.689 254.224C662.709 254.224 661.949 254.014 661.407 253.594C660.875 253.174 660.6 252.6 660.581 251.872H661.841C661.86 252.161 662.005 252.437 662.275 252.698C662.555 252.95 663.027 253.076 663.689 253.076C664.287 253.076 664.744 252.959 665.061 252.726C665.379 252.483 665.537 252.189 665.537 251.844C665.537 251.536 665.421 251.298 665.187 251.13C664.954 250.953 664.576 250.836 664.053 250.78L663.241 250.696C662.532 250.621 661.953 250.411 661.505 250.066C661.057 249.711 660.833 249.217 660.833 248.582C660.833 248.106 660.955 247.7 661.197 247.364C661.44 247.019 661.776 246.757 662.205 246.58C662.635 246.393 663.129 246.3 663.689 246.3C664.529 246.3 665.211 246.487 665.733 246.86C666.256 247.233 666.527 247.789 666.545 248.526H665.285C665.276 248.227 665.136 247.975 664.865 247.77C664.604 247.555 664.212 247.448 663.689 247.448C663.167 247.448 662.77 247.555 662.499 247.77C662.229 247.985 662.093 248.255 662.093 248.582C662.093 248.862 662.187 249.086 662.373 249.254C662.569 249.422 662.887 249.529 663.325 249.576L664.137 249.66C664.94 249.744 665.584 249.968 666.069 250.332C666.555 250.687 666.797 251.191 666.797 251.844C666.797 252.311 666.662 252.726 666.391 253.09C666.13 253.445 665.766 253.725 665.299 253.93C664.833 254.126 664.296 254.224 663.689 254.224Z" fill="white"/>
<rect x="504.5" y="223.5" width="191" height="52" rx="11.5" stroke="#611C9B"/>
</svg>
